<?xml version="1.0" encoding="utf-8"?>
<!-- Generator: Adobe Illustrator 21.0.2, SVG Export Plug-In . SVG Version: 6.00 Build 0)  -->
<svg version="1.1" id="Слой_1" xmlns="http://www.w3.org/2000/svg" xmlns:xlink="http://www.w3.org/1999/xlink" x="0px" y="0px"
	 viewBox="0 0 1797.4 736.3" style="enable-background:new 0 0 1797.4 736.3;" xml:space="preserve">
<style type="text/css">
	.st0{fill:url(#SVGID_1_);}
	.st1{fill:url(#SVGID_2_);}
	.st2{fill:#050B3F;stroke:#030514;stroke-width:0.25;stroke-miterlimit:10;}
	.st3{fill:#011135;}
	.st4{fill:#5DB2B2;}
	.st5{fill:#070C21;}
	.st6{fill:#03071E;}
	.st7{fill:none;stroke:#030514;stroke-width:2;stroke-miterlimit:10;}
	.st8{fill:#030514;}
	.st9{fill:url(#SVGID_3_);}
	.st10{fill:#EBFF55;}
	.st11{fill:#63610B;stroke:#63610B;stroke-miterlimit:10;}
	.st12{fill:#030514;stroke:#030514;stroke-miterlimit:10;}
	.st13{fill:none;stroke:#030514;stroke-miterlimit:10;}
</style>
<g id="Слой_1_1_">
	
		<linearGradient id="SVGID_1_" gradientUnits="userSpaceOnUse" x1="399.4731" y1="-366.6922" x2="1347.127" y2="1274.6921" gradientTransform="matrix(1 0 0 -1 0 994)">
		<stop  offset="0.1111" style="stop-color:#FFFFFF"/>
		<stop  offset="0.6533" style="stop-color:#010023"/>
	</linearGradient>
	<rect x="-86.7" class="st0" width="1920" height="1080"/>
	
		<radialGradient id="SVGID_2_" cx="329.5918" cy="640.9866" r="147.088" gradientTransform="matrix(0.9259 -0.3777 -0.3777 -0.9259 271.6714 1040.0626)" gradientUnits="userSpaceOnUse">
		<stop  offset="0" style="stop-color:#FDDCA7"/>
		<stop  offset="0.2371" style="stop-color:#E8D9BD"/>
		<stop  offset="0.7301" style="stop-color:#B2D1F7"/>
		<stop  offset="0.7978" style="stop-color:#AAD0FF"/>
	</radialGradient>
	<path class="st1" d="M475.1,407.5c-86.1,35.1-183.2-3.2-216.8-85.6c-20.2-49.6-12.9-103.8,15-146.8
		c-64.1,43.2-92.3,124.3-63.1,195.8c33.6,82.4,130.7,120.7,216.8,85.6c34.3-14,61.7-37.5,80.1-66
		C497.3,397.1,486.6,402.8,475.1,407.5z"/>
</g>
<g id="Слой_2">
	<path class="st2" d="M1324.3,311.9c17.4-39.8,34.8-79.5,52.2-119.3c14.6-34.8,29.2-69.6,43.8-104.4c18.4-17.4,36.8-34.8,55.2-52.2
		c-0.1,8.6-0.1,20.6,0.8,35c0.6,9.1,2.7,38.4,15.3,91.2c8.2,34.4,14,58.8,26.8,90.8c10.5,26.3,19.4,44.1,35.5,71.3
		c46.8,79.3,58.5,107.4,136.2,160s143.2,55.7,143.2,55.7v540h-1920V465.4c141.4,55.4,237.1,47,299.2,28.1
		c43-13.1,65.3-29.9,142.1-50c90.8-23.8,120.2-16.1,160.6-41.3c32-19.9,70.9-60.4,92-152.1c23.2-31.6,46.5-63.2,69.7-94.7
		c22.8,27.2,45.6,54.4,68.4,81.6c14.5,43.6,35,71.2,51.7,88.7c8.2,8.5,29.8,36.9,66.7,65.3c24.5,18.9,77.4,58.8,157.9,75
		c35.2,7.1,103.2,20.8,167.3-13.1c1-0.5,1.7-0.9,2.5-1.3C1270.8,408,1309.5,341.4,1324.3,311.9z"/>
	<path class="st3" d="M-159.6,574.3c8.1-1.6,123.5-48.8,254.4-27.2s244.2,25.1,299.5,31.4c55.3,6.3,126.5-58.5,232.3-64.4
		c105.8-5.9,161,13.6,267.5,54.5s301.8,98.6,357.5,97.3c55.7-1.3,133.7-53.9,263.6-68.5s190.8-27.9,284.1,8.2s0,676.9,0,676.9h-1959
		V574.3H-159.6z"/>
	<path class="st4" d="M677,154.4c-23.2,31.6-46.5,63.2-69.7,94.7c-21.1,91.7-60,132.2-92,152.1c-40.4,25.2-69.8,17.6-160.6,41.3
		c-26.5,6.9-46.6,13.5-63.2,19.6c0,0,75-13.1,131.6-14.4s52.6-2.6,92.1-6.6c39.5-3.9,61.8-19.7,61.8-19.7l43.4-22.4l23.7-14.5
		l11.8-23.7l14.5-21.1l2.6-18.4l-15.8,9.2l9.2-17.1l9.2-21.1l11.8-14.5h-19.7l-9.2-7.9l11.8-9.2l6.6-13.2l-9.2-6.6l-13.2-6.6
		l13.2-9.2l9.2-13.2h-13.2h-10.5l15.8-21.1L677,154.4z"/>
	<path class="st4" d="M1378.3,190.4c-17.4,39.8-34.8,79.5-52.2,119.3c-14.3,28.4-50.8,91.4-124.7,134.8c0,0,22-0.6,57.5-12.4
		s36.8-5.3,89.5-27.6c52.6-22.4,64.4-61.8,64.4-61.8l9.3-28.9l18.4-23.7l13.2-18.4l3.9-25l19.6-17.1l-17-6.6H1447l13.2-25h-11.8
		l14.5-17.1l-6.6-14.5l-7.9-14.1l9.2-21.5c3-2.8,6-5.6,9-8.4c-1.7-2.5-3.4-4.9-5-7.4l-17.1-7.9c4.7-13.6,9.4-27.2,14.1-40.8
		c6.2-10.8,12.5-21.7,18.7-32.5c-18.4,17.4-36.8,34.8-55.2,52.2C1407.5,120.8,1392.9,155.6,1378.3,190.4z"/>
	<path class="st5" d="M-99.5,700.9c0,0,21-36.6,212.8-58.1c104.4-11.7,156-15.2,201.1-13.6c52.2,1.9,91.8,8.1,127,13.6
		C600,667.4,618,697.7,680.2,679.5c40.5-11.9,62.3-33.5,106.6-29.4c14.7,1.4,36.5,6.1,69.9,4.1c17.5-1.1,31.8-3.6,41.4-5.6
		c141.5-41.7,247.6-34.2,318.3-19.7c175.2,35.9,257.7,120.5,360.9,104.8c57-8.6,100.6-4.5,113.4-7.8c28.4-7.3,50.3-17.2,63.7-24.1
		c16.9-11.5,42.1-25.6,74.9-34c16.3-4.2,31.2-6.2,44-7c0,0,14.8,5.6,59.8,95.6l-59.3,304.1c0,0-1042.4,59.3-1495.5,24
		S-194.6,952-194.6,952L-99.5,700.9z"/>
	<path class="st5" d="M1949.1,414.9"/>
	<path class="st5" d="M1044.8,578.2l-3.6,9.6h3.6l-3.6,8.5h3.6l-3.6,7.9h3.6l-6.7,10.3h3.3l-3.3,13.3l12.7,6.4l11.5-7
		c-3.2-4.3-6.5-8.5-9.7-12.8c0.9-0.2,1.9-0.4,2.8-0.6c-1.7-3.8-3.5-7.6-5.2-11.4l4.2,1.2l-4.2-8.5h4.2c-2.1-2.4-4.2-4.9-6.4-7.3
		c0.7-0.2,1.4-0.4,2.1-0.6C1048.4,584.3,1046.6,581.3,1044.8,578.2z"/>
	<path class="st5" d="M1029.5,577.8l-3.6,9.6h3.6l-3.6,8.5h3.6l-3.6,7.9h3.6l-6.7,10.3h3.3l-3.3,13.3l12.7,6.4l11.5-7
		c-3.2-4.3-6.5-8.5-9.7-12.8c0.9-0.2,1.9-0.4,2.8-0.6c-1.7-3.8-3.5-7.6-5.2-11.4l4.2,1.2l-4.2-8.5h4.2c-2.1-2.4-4.2-4.9-6.4-7.3
		c0.7-0.2,1.4-0.4,2.1-0.6C1033.1,583.8,1031.3,580.8,1029.5,577.8z"/>
	<path class="st5" d="M1020.7,582.4l-3.6,9.6h3.6l-3.6,8.5h3.6l-3.6,7.9h3.6l-6.7,10.3h3.3L1014,632l12.7,6.4l11.5-7
		c-3.2-4.3-6.5-8.5-9.7-12.8c0.9-0.2,1.9-0.4,2.8-0.6c-1.7-3.8-3.5-7.6-5.2-11.4l4.2,1.2l-4.2-8.5h4.2c-2.1-2.4-4.2-4.9-6.4-7.3
		c0.7-0.2,1.4-0.4,2.1-0.6C1024.3,588.4,1022.5,585.4,1020.7,582.4z"/>
	<path class="st5" d="M1005.4,582l-3.6,9.6h3.6l-3.6,8.5h3.6l-3.6,7.9h3.6l-6.7,10.3h3.3l-3.3,13.3l12.7,6.4l11.5-7
		c-3.2-4.3-6.5-8.5-9.7-12.8c0.9-0.2,1.9-0.4,2.8-0.6c-1.7-3.8-3.5-7.6-5.2-11.4l4.2,1.2l-4.2-8.5h4.2c-2.1-2.4-4.2-4.9-6.4-7.3
		c0.7-0.2,1.4-0.4,2.1-0.6C1009.1,588,1007.2,585,1005.4,582z"/>
	<path class="st5" d="M1056.9,577.9l5.1,9l-3.6,0.6l4.9,7.8l-3.6,0.6l4.8,7.2l-3.6,0.6l8.2,9.1l-3.3,0.5l5.3,12.6l-11.6,8.3
		l-12.4-5.2c2.5-4.7,5.1-9.4,7.6-14.1c-1-0.1-1.9-0.1-2.9-0.2c1.1-4,2.3-8,3.4-12l-4,1.8l2.9-9l-4.2,0.7c1.7-2.7,3.4-5.5,5.2-8.2
		c-0.7-0.1-1.4-0.1-2.2-0.2C1054.2,584.4,1055.6,581.2,1056.9,577.9z"/>
	<path class="st5" d="M1071.9,575.1l5.1,9l-3.6,0.6l4.9,7.8l-3.6,0.6l4.8,7.2l-3.6,0.6l8.2,9.1l-3.3,0.5l5.3,12.6l-11.6,8.3
		l-12.4-5.2c2.5-4.7,5.1-9.4,7.6-14.1c-1-0.1-1.9-0.1-2.9-0.2c1.1-4,2.3-8,3.4-12l-4,1.8l2.9-9l-4.2,0.7c1.7-2.7,3.4-5.5,5.2-8.2
		c-0.7-0.1-1.4-0.1-2.2-0.2C1069.2,581.6,1070.6,578.4,1071.9,575.1z"/>
	<path class="st5" d="M1081.3,578.3l5.1,9l-3.6,0.6l4.9,7.8l-3.6,0.6l4.8,7.2l-3.6,0.6l8.2,9.1l-3.3,0.5l5.3,12.6l-11.6,8.3
		l-12.4-5.2c2.5-4.7,5.1-9.4,7.6-14.1c-1-0.1-1.9-0.1-2.9-0.2c1.1-4,2.3-8,3.4-12l-4,1.8l2.9-9l-4.2,0.7c1.7-2.7,3.4-5.5,5.2-8.2
		c-0.7-0.1-1.4-0.1-2.2-0.2C1078.7,584.8,1080,581.6,1081.3,578.3z"/>
	<path class="st5" d="M1096.3,575.6l5.1,9l-3.6,0.6l4.9,7.8l-3.6,0.6l4.8,7.2l-3.6,0.6l8.2,9.1l-3.3,0.5l5.3,12.6l-11.6,8.3
		l-12.4-5.2c2.5-4.7,5.1-9.4,7.6-14.1c-1-0.1-1.9-0.1-2.9-0.2c1.1-4,2.3-8,3.4-12l-4,1.8l2.9-9l-4.2,0.7c1.7-2.7,3.4-5.5,5.2-8.2
		c-0.7-0.1-1.4-0.1-2.2-0.2C1093.7,582.1,1095,578.8,1096.3,575.6z"/>
	<path class="st5" d="M993.3,580.5l-3.6,9.6h3.6l-3.6,8.5h3.6l-3.6,7.9h3.6l-6.7,10.3h3.3l-3.3,13.3l12.7,6.4l11.5-7
		c-3.2-4.3-6.5-8.5-9.7-12.8c0.9-0.2,1.9-0.4,2.8-0.6c-1.7-3.8-3.5-7.6-5.2-11.4l4.2,1.2l-4.2-8.5h4.2c-2.1-2.4-4.2-4.9-6.4-7.3
		c0.7-0.2,1.4-0.4,2.1-0.6C997,586.6,995.1,583.5,993.3,580.5z"/>
	<path class="st5" d="M978.1,580.1l-3.6,9.6h3.6l-3.6,8.5h3.6l-3.6,7.9h3.6l-6.7,10.3h3.3l-3.3,13.3l12.7,6.4l11.5-7
		c-3.2-4.3-6.5-8.5-9.7-12.8c0.9-0.2,1.9-0.4,2.8-0.6c-1.7-3.8-3.5-7.6-5.2-11.4l4.2,1.2l-4.2-8.5h4.2c-2.1-2.4-4.2-4.9-6.4-7.3
		c0.7-0.2,1.4-0.4,2.1-0.6C981.7,586.1,979.9,583.1,978.1,580.1z"/>
	<path class="st5" d="M969.2,584.7l-3.6,9.6h3.6l-3.6,8.5h3.6l-3.6,7.9h3.6l-6.7,10.3h3.3l-3.3,13.3l12.7,6.4l11.5-7
		c-3.2-4.3-6.5-8.5-9.7-12.8c0.9-0.2,1.9-0.4,2.8-0.6c-1.7-3.8-3.5-7.6-5.2-11.4l4.2,1.2l-4.2-8.5h4.2c-2.1-2.4-4.2-4.9-6.4-7.3
		c0.7-0.2,1.4-0.4,2.1-0.6C972.9,590.7,971.1,587.7,969.2,584.7z"/>
	<path class="st5" d="M954,584.3l-3.6,9.6h3.6l-3.6,8.5h3.6l-3.6,7.9h3.6l-6.7,10.3h3.3l-3.3,13.3l12.7,6.4l11.5-7
		c-3.2-4.3-6.5-8.5-9.7-12.8c0.9-0.2,1.9-0.4,2.8-0.6c-1.7-3.8-3.5-7.6-5.2-11.4l4.2,1.2l-4.2-8.5h4.2c-2.1-2.4-4.2-4.9-6.4-7.3
		c0.7-0.2,1.4-0.4,2.1-0.6C957.6,590.3,955.8,587.3,954,584.3z"/>
	<path class="st5" d="M1148.7,578.7l-3.6,9.6h3.6l-3.6,8.5h3.6l-3.6,7.9h3.6L1142,615h3.3l-3.3,13.3l12.7,6.4l11.5-7
		c-3.2-4.3-6.5-8.5-9.7-12.8c0.9-0.2,1.9-0.4,2.8-0.6c-1.7-3.8-3.5-7.6-5.2-11.4l4.2,1.2l-4.2-8.5h4.2c-2.1-2.4-4.2-4.9-6.4-7.3
		c0.7-0.2,1.4-0.4,2.1-0.6C1152.4,584.7,1150.5,581.7,1148.7,578.7z"/>
	<path class="st5" d="M1133.5,578.2l-3.6,9.6h3.6l-3.6,8.5h3.6l-3.6,7.9h3.6l-6.7,10.3h3.3l-3.3,13.3l12.7,6.4l11.5-7
		c-3.2-4.3-6.5-8.5-9.7-12.8c0.9-0.2,1.9-0.4,2.8-0.6c-1.7-3.8-3.5-7.6-5.2-11.4l4.2,1.2l-4.2-8.5h4.2c-2.1-2.4-4.2-4.9-6.4-7.3
		c0.7-0.2,1.4-0.4,2.1-0.6C1137.1,584.3,1135.3,581.3,1133.5,578.2z"/>
	<path class="st5" d="M1124.6,582.8l-3.6,9.6h3.6l-3.6,8.5h3.6l-3.6,7.9h3.6l-6.7,10.3h3.3l-3.3,13.3l12.7,6.4l11.5-7
		c-3.2-4.3-6.5-8.5-9.7-12.8c0.9-0.2,1.9-0.4,2.8-0.6c-1.7-3.8-3.5-7.6-5.2-11.4l4.2,1.2l-4.2-8.5h4.2c-2.1-2.4-4.2-4.9-6.4-7.3
		c0.7-0.2,1.4-0.4,2.1-0.6C1128.3,588.8,1126.5,585.8,1124.6,582.8z"/>
	<path class="st5" d="M1109.4,582.4l-3.6,9.6h3.6l-3.6,8.5h3.6l-3.6,7.9h3.6l-6.7,10.3h3.3l-3.3,13.3l12.7,6.4l11.5-7
		c-3.2-4.3-6.5-8.5-9.7-12.8c0.9-0.2,1.9-0.4,2.8-0.6c-1.7-3.8-3.5-7.6-5.2-11.4l4.2,1.2l-4.2-8.5h4.2c-2.1-2.4-4.2-4.9-6.4-7.3
		c0.7-0.2,1.4-0.4,2.1-0.6C1113,588.4,1111.2,585.4,1109.4,582.4z"/>
	<path class="st5" d="M1200.2,576.8l-3.6,9.6h3.6l-3.6,8.5h3.6l-3.6,7.9h3.6l-6.7,10.3h3.3l-3.3,13.3l12.7,6.4l11.5-7
		c-3.2-4.3-6.5-8.5-9.7-12.8c0.9-0.2,1.9-0.4,2.8-0.6c-1.7-3.8-3.5-7.6-5.2-11.4l4.2,1.2l-4.2-8.5h4.2c-2.1-2.4-4.2-4.9-6.4-7.3
		c0.7-0.2,1.4-0.4,2.1-0.6C1203.8,582.8,1202,579.8,1200.2,576.8z"/>
	<path class="st5" d="M1184.9,576.4l-3.6,9.6h3.6l-3.6,8.5h3.6l-3.6,7.9h3.6l-6.7,10.3h3.3l-3.2,13.3l12.7,6.4l11.5-7
		c-3.2-4.3-6.5-8.5-9.7-12.8c0.9-0.2,1.9-0.4,2.8-0.6c-1.7-3.8-3.5-7.6-5.2-11.4l4.2,1.2l-4.2-8.5h4.2c-2.1-2.4-4.2-4.9-6.4-7.3
		c0.7-0.2,1.4-0.4,2.1-0.6C1188.5,582.4,1186.7,579.4,1184.9,576.4z"/>
	<path class="st5" d="M1176.1,581l-3.6,9.6h3.6l-3.6,8.5h3.6l-3.6,7.9h3.6l-6.7,10.3h3.3l-3.3,13.3l12.7,6.4l11.5-7
		c-3.2-4.3-6.5-8.5-9.7-12.8c0.9-0.2,1.9-0.4,2.8-0.6c-1.7-3.8-3.5-7.6-5.2-11.4l4.2,1.2l-4.2-8.5h4.2c-2.1-2.4-4.2-4.9-6.4-7.3
		c0.7-0.2,1.4-0.4,2.1-0.6C1179.7,587,1177.9,584,1176.1,581z"/>
	<path class="st5" d="M1160.8,580.5l-3.6,9.6h3.6l-3.6,8.5h3.6l-3.6,7.9h3.6l-6.7,10.3h3.3l-3.3,13.3l12.7,6.4l11.5-7
		c-3.2-4.3-6.5-8.5-9.7-12.8c0.9-0.2,1.9-0.4,2.8-0.6c-1.7-3.8-3.5-7.6-5.2-11.4l4.2,1.2l-4.2-8.5h4.2c-2.1-2.4-4.2-4.9-6.4-7.3
		c0.7-0.2,1.4-0.4,2.1-0.6C1164.5,586.6,1162.6,583.5,1160.8,580.5z"/>
	<path class="st5" d="M1046.8,567.2l-3.6,9.6h3.6l-3.6,8.5h3.6l-3.6,7.9h3.6l-6.7,10.3h3.3l-3.3,13.3l12.7,6.4l11.5-7
		c-3.2-4.3-6.5-8.5-9.7-12.8c0.9-0.2,1.9-0.4,2.8-0.6c-1.7-3.8-3.5-7.6-5.2-11.4l4.2,1.2l-4.2-8.5h4.2c-2.1-2.4-4.2-4.9-6.4-7.3
		c0.7-0.2,1.4-0.4,2.1-0.6C1050.4,573.3,1048.6,570.3,1046.8,567.2z"/>
	<path class="st5" d="M1031.5,566.8l-3.6,9.6h3.6l-3.6,8.5h3.6l-3.6,7.9h3.6l-6.7,10.3h3.3l-3.3,13.3l12.7,6.4l11.5-7
		c-3.2-4.3-6.5-8.5-9.7-12.8c0.9-0.2,1.9-0.4,2.8-0.6c-1.7-3.8-3.5-7.6-5.2-11.4l4.2,1.2l-4.2-8.5h4.2c-2.1-2.4-4.2-4.9-6.4-7.3
		c0.7-0.2,1.4-0.4,2.1-0.6C1035.1,572.8,1033.3,569.8,1031.5,566.8z"/>
	<path class="st5" d="M1022.7,571.4l-3.6,9.6h3.6l-3.6,8.5h3.6l-3.6,7.9h3.6l-6.7,10.3h3.3L1016,621l12.7,6.4l11.5-7
		c-3.2-4.3-6.5-8.5-9.7-12.8c0.9-0.2,1.9-0.4,2.8-0.6c-1.7-3.8-3.5-7.6-5.2-11.4l4.2,1.2l-4.2-8.5h4.2c-2.1-2.4-4.2-4.9-6.4-7.3
		c0.7-0.2,1.4-0.4,2.1-0.6C1026.3,577.4,1024.5,574.4,1022.7,571.4z"/>
	<path class="st5" d="M1007.4,571l-3.6,9.6h3.6l-3.6,8.5h3.6l-3.6,7.9h3.6l-6.7,10.3h3.3l-3.3,13.3l12.7,6.4l11.5-7
		c-3.2-4.3-6.5-8.5-9.7-12.8c0.9-0.2,1.9-0.4,2.8-0.6c-1.7-3.8-3.5-7.6-5.2-11.4l4.2,1.2l-4.2-8.5h4.2c-2.1-2.4-4.2-4.9-6.4-7.3
		c0.7-0.2,1.4-0.4,2.1-0.6C1011.1,577,1009.2,574,1007.4,571z"/>
	<path class="st5" d="M1275.1,592.9l-6.1,8.3l3.5,1l-5.8,7.1l3.5,1l-5.7,6.6l3.5,1l-9.2,8.1l3.2,0.9l-6.9,11.9l10.5,9.6l13-3.6
		c-1.9-5-3.9-10-5.8-15c1,0,1.9,0.1,2.9,0.1c-0.6-4.1-1.3-8.2-1.9-12.4l3.7,2.3l-1.7-9.3l4.1,1.2c-1.4-2.9-2.7-5.9-4.1-8.8
		c0.7,0,1.5,0,2.2,0C1277,599.7,1276.1,596.3,1275.1,592.9z"/>
	<path class="st5" d="M1260.6,588.3l-6.1,8.3l3.5,1l-5.8,7.1l3.5,1l-5.7,6.6l3.5,1l-9.2,8.1l3.2,0.9l-6.9,11.9l10.5,9.6l13-3.6
		c-1.9-5-3.9-10-5.8-15c1,0,1.9,0.1,2.9,0.1c-0.6-4.1-1.3-8.2-1.9-12.4l3.7,2.3l-1.7-9.3l4.1,1.2c-1.4-2.9-2.7-5.9-4.1-8.8
		c0.7,0,1.5,0,2.2,0C1262.5,595.1,1261.5,591.7,1260.6,588.3z"/>
	<path class="st5" d="M1250.9,590.3l-6.1,8.3l3.5,1l-5.8,7.1l3.5,1l-5.7,6.6l3.5,1l-9.2,8.1l3.2,0.9l-6.9,11.9l10.5,9.6l13-3.6
		c-1.9-5-3.9-10-5.8-15c1,0,1.9,0.1,2.9,0.1c-0.6-4.1-1.3-8.2-1.9-12.4l3.7,2.3l-1.7-9.3l4.1,1.2c-1.4-2.9-2.7-5.9-4.1-8.8
		c0.7,0,1.5,0,2.2,0C1252.7,597.1,1251.8,593.7,1250.9,590.3z"/>
	<path class="st5" d="M1236.3,585.7l-6.1,8.3l3.5,1l-5.8,7.1l3.5,1l-5.7,6.6l3.5,1l-9.2,8.1l3.2,0.9l-6.9,11.9l10.5,9.6l13-3.6
		c-1.9-5-3.9-10-5.8-15c1,0,1.9,0.1,2.9,0.1c-0.6-4.1-1.3-8.2-1.9-12.4l3.7,2.3l-1.7-9.3l4.1,1.2c-1.4-2.9-2.7-5.9-4.1-8.8
		c0.7,0,1.5,0,2.2,0C1238.2,592.5,1237.2,589.1,1236.3,585.7z"/>
	<path class="st5" d="M1345.8,620.6l-7.6,6.9l3.2,1.7l-7.1,5.9l3.2,1.7l-6.8,5.3l3.2,1.7l-10.6,6.1l3,1.5l-9,10.3l8.4,11.5l13.4-1
		c-0.9-5.3-1.9-10.5-2.8-15.8c0.9,0.2,1.9,0.5,2.8,0.7c0.2-4.2,0.3-8.3,0.5-12.5l3.2,3l0.1-9.5l3.8,1.9c-0.8-3.1-1.5-6.3-2.3-9.4
		c0.7,0.2,1.4,0.3,2.1,0.5C1346.3,627.6,1346,624.1,1345.8,620.6z"/>
	<path class="st5" d="M1332.4,613.3l-7.6,6.9l3.2,1.7l-7.1,5.9l3.2,1.7l-6.8,5.3l3.2,1.7l-10.6,6.1l3,1.5l-9,10.3l8.4,11.5l13.4-1
		c-0.9-5.3-1.9-10.5-2.8-15.8c0.9,0.2,1.9,0.5,2.8,0.7c0.2-4.2,0.3-8.3,0.5-12.5l3.2,3l0.1-9.5l3.8,1.9c-0.8-3.1-1.5-6.3-2.3-9.4
		c0.7,0.2,1.4,0.3,2.1,0.5C1332.9,620.3,1332.6,616.8,1332.4,613.3z"/>
	<path class="st5" d="M1322.4,613.3l-7.6,6.9l3.2,1.7l-7.1,5.9l3.2,1.7l-6.8,5.3l3.2,1.7l-10.6,6.1l3,1.5l-9,10.3l8.4,11.5l13.4-1
		c-0.9-5.3-1.9-10.5-2.8-15.8c0.9,0.2,1.9,0.5,2.8,0.7c0.2-4.2,0.3-8.3,0.5-12.5l3.2,3l0.1-9.5l3.8,1.9c-0.8-3.1-1.5-6.3-2.3-9.4
		c0.7,0.2,1.4,0.3,2.1,0.5C1322.9,620.4,1322.7,616.9,1322.4,613.3z"/>
	<path class="st5" d="M1309.1,606l-7.6,6.9l3.2,1.7l-7.1,5.9l3.2,1.7l-6.8,5.3l3.2,1.7l-10.6,6.1l3,1.5l-9,10.3l8.4,11.5l13.4-1
		c-0.9-5.3-1.9-10.5-2.8-15.8c0.9,0.2,1.9,0.5,2.8,0.7c0.2-4.2,0.3-8.3,0.5-12.5l3.2,3l0.1-9.5l3.8,1.9c-0.8-3.1-1.5-6.3-2.3-9.4
		c0.7,0.2,1.4,0.3,2.1,0.5C1309.6,613,1309.3,609.5,1309.1,606z"/>
	<path class="st5" d="M1299.7,617.5l-3.6,9.6h3.6l-3.6,8.5h3.6l-3.6,7.9h3.6l-6.7,10.3h3.3l-3.3,13.3l12.7,6.4l11.5-7
		c-3.2-4.3-6.5-8.5-9.7-12.8c0.9-0.2,1.9-0.4,2.8-0.6c-1.7-3.8-3.5-7.6-5.2-11.4l4.2,1.2l-4.2-8.5h4.2c-2.1-2.4-4.2-4.9-6.4-7.3
		c0.7-0.2,1.4-0.4,2.1-0.6C1303.4,623.5,1301.6,620.5,1299.7,617.5z"/>
	<path class="st5" d="M1284.5,617l-3.6,9.6h3.6l-3.6,8.5h3.6l-3.6,7.9h3.6l-6.7,10.3h3.3l-3.3,13.3l12.7,6.4l11.5-7
		c-3.2-4.3-6.5-8.5-9.7-12.8c0.9-0.2,1.9-0.4,2.8-0.6c-1.7-3.8-3.5-7.6-5.2-11.4l4.2,1.2l-4.2-8.5h4.2c-2.1-2.4-4.2-4.9-6.4-7.3
		c0.7-0.2,1.4-0.4,2.1-0.6C1288.1,623.1,1286.3,620.1,1284.5,617z"/>
	<path class="st5" d="M1275.7,621.6l-3.6,9.6h3.6l-3.6,8.5h3.6l-3.6,7.9h3.6l-6.7,10.3h3.3l-3.3,13.3l12.7,6.4l11.5-7
		c-3.2-4.3-6.5-8.5-9.7-12.8c0.9-0.2,1.9-0.4,2.8-0.6c-1.7-3.8-3.5-7.6-5.2-11.4l4.2,1.2l-4.2-8.5h4.2c-2.1-2.4-4.2-4.9-6.4-7.3
		c0.7-0.2,1.4-0.4,2.1-0.6C1279.3,627.6,1277.5,624.6,1275.7,621.6z"/>
	<path class="st5" d="M1260.4,621.2l-3.6,9.6h3.6l-3.6,8.5h3.6l-3.6,7.9h3.6l-6.7,10.3h3.3l-3.3,13.3l12.7,6.4l11.5-7
		c-3.2-4.3-6.5-8.5-9.7-12.8c0.9-0.2,1.9-0.4,2.8-0.6c-1.7-3.8-3.5-7.6-5.2-11.4l4.2,1.2l-4.2-8.5h4.2c-2.1-2.4-4.2-4.9-6.4-7.3
		c0.7-0.2,1.4-0.4,2.1-0.6C1264,627.2,1262.2,624.2,1260.4,621.2z"/>
	<path class="st5" d="M1377.5,626.6l-3.6,9.6h3.6l-3.6,8.5h3.6l-3.6,7.9h3.6l-6.7,10.3h3.3l-3.3,13.3l12.7,6.4l11.5-7
		c-3.2-4.3-6.5-8.5-9.7-12.8c0.9-0.2,1.9-0.4,2.8-0.6c-1.7-3.8-3.5-7.6-5.2-11.4l4.2,1.2l-4.2-8.5h4.2c-2.1-2.4-4.2-4.9-6.4-7.3
		c0.7-0.2,1.4-0.4,2.1-0.6C1381.1,632.7,1379.3,629.6,1377.5,626.6z"/>
	<path class="st5" d="M1362.2,626.2l-3.6,9.6h3.6l-3.6,8.5h3.6l-3.6,7.9h3.6l-6.7,10.3h3.3l-3.3,13.3l12.7,6.4l11.5-7
		c-3.2-4.3-6.5-8.5-9.7-12.8c0.9-0.2,1.9-0.4,2.8-0.6c-1.7-3.8-3.5-7.6-5.2-11.4l4.2,1.2l-4.2-8.5h4.2c-2.1-2.4-4.2-4.9-6.4-7.3
		c0.7-0.2,1.4-0.4,2.1-0.6C1365.9,632.2,1364.1,629.2,1362.2,626.2z"/>
	<path class="st5" d="M1353.4,630.8l-3.6,9.6h3.6l-3.6,8.5h3.6l-3.6,7.9h3.6l-6.7,10.3h3.3l-3.3,13.3l12.7,6.4l11.5-7
		c-3.2-4.3-6.5-8.5-9.7-12.8c0.9-0.2,1.9-0.4,2.8-0.6c-1.7-3.8-3.5-7.6-5.2-11.4l4.2,1.2l-4.2-8.5h4.2c-2.1-2.4-4.2-4.9-6.4-7.3
		c0.7-0.2,1.4-0.4,2.1-0.6C1357,636.8,1355.2,633.8,1353.4,630.8z"/>
	<path class="st5" d="M1338.2,630.4l-3.6,9.6h3.6l-3.6,8.5h3.6l-3.6,7.9h3.6l-6.7,10.3h3.3l-3.3,13.3l12.7,6.4l11.5-7
		c-3.2-4.3-6.5-8.5-9.7-12.8c0.9-0.2,1.9-0.4,2.8-0.6c-1.7-3.8-3.5-7.6-5.2-11.4l4.2,1.2l-4.2-8.5h4.2c-2.1-2.4-4.2-4.9-6.4-7.3
		c0.7-0.2,1.4-0.4,2.1-0.6C1341.8,636.4,1340,633.4,1338.2,630.4z"/>
	<path class="st5" d="M1430.3,654.6l-3.6,9.6h3.6l-3.6,8.5h3.6l-3.6,7.9h3.6l-6.7,10.3h3.3l-3.3,13.3l12.7,6.4l11.5-7
		c-3.2-4.3-6.5-8.5-9.7-12.8c0.9-0.2,1.9-0.4,2.8-0.6c-1.7-3.8-3.5-7.6-5.2-11.4l4.2,1.2l-4.2-8.5h4.2c-2.1-2.4-4.2-4.9-6.4-7.3
		c0.7-0.2,1.4-0.4,2.1-0.6C1434,660.6,1432.1,657.6,1430.3,654.6z"/>
	<path class="st5" d="M1415.1,654.1l-3.6,9.6h3.6l-3.6,8.5h3.6l-3.6,7.9h3.6l-6.7,10.3h3.3l-3.3,13.3l12.7,6.4l11.5-7
		c-3.2-4.3-6.5-8.5-9.7-12.8c0.9-0.2,1.9-0.4,2.8-0.6c-1.7-3.8-3.5-7.6-5.2-11.4l4.2,1.2l-4.2-8.5h4.2c-2.1-2.4-4.2-4.9-6.4-7.3
		c0.7-0.2,1.4-0.4,2.1-0.6C1418.7,660.1,1416.9,657.1,1415.1,654.1z"/>
	<path class="st5" d="M1406.2,658.7l-3.6,9.6h3.6l-3.6,8.5h3.6l-3.6,7.9h3.6l-6.7,10.3h3.3l-3.3,13.3l12.7,6.4l11.5-7
		c-3.2-4.3-6.5-8.5-9.7-12.8c0.9-0.2,1.9-0.4,2.8-0.6c-1.7-3.8-3.5-7.6-5.2-11.4l4.2,1.2l-4.2-8.5h4.2c-2.1-2.4-4.2-4.9-6.4-7.3
		c0.7-0.2,1.4-0.4,2.1-0.6C1409.9,664.7,1408.1,661.7,1406.2,658.7z"/>
	<path class="st5" d="M1391,658.3l-3.6,9.6h3.6l-3.6,8.5h3.6l-3.6,7.9h3.6l-6.7,10.3h3.3l-3.3,13.3l12.7,6.4l11.5-7
		c-3.2-4.3-6.5-8.5-9.7-12.8c0.9-0.2,1.9-0.4,2.8-0.6c-1.7-3.8-3.5-7.6-5.2-11.4l4.2,1.2l-4.2-8.5h4.2c-2.1-2.4-4.2-4.9-6.4-7.3
		c0.7-0.2,1.4-0.4,2.1-0.6C1394.6,664.3,1392.8,661.3,1391,658.3z"/>
	<path class="st5" d="M1487.2,675.6l-6.5,8l3.4,1.2l-6.2,6.9l3.4,1.2l-6,6.3l3.4,1.2l-9.6,7.6l3.2,1.1l-7.4,11.6l10,10.1l13.1-3
		c-1.7-5.1-3.4-10.1-5.1-15.2c1,0.1,1.9,0.2,2.9,0.3c-0.4-4.1-0.9-8.3-1.3-12.4l3.6,2.5l-1.3-9.4l4,1.4c-1.2-3-2.5-6-3.7-9
		c0.7,0,1.5,0.1,2.2,0.1C1488.7,682.5,1487.9,679,1487.2,675.6z"/>
	<path class="st5" d="M1472.9,670.3l-6.5,8l3.4,1.2l-6.2,6.9l3.4,1.2l-6,6.3l3.4,1.2l-9.6,7.6l3.2,1.1l-7.4,11.6l10,10.1l13.1-3
		c-1.7-5.1-3.4-10.1-5.1-15.2c1,0.1,1.9,0.2,2.9,0.3c-0.4-4.1-0.9-8.3-1.3-12.4l3.6,2.5l-1.3-9.4l4,1.4c-1.2-3-2.5-6-3.7-9
		c0.7,0,1.5,0.1,2.2,0.1C1474.4,677.2,1473.6,673.8,1472.9,670.3z"/>
	<path class="st5" d="M1463,671.8l-6.5,8l3.4,1.2l-6.2,6.9l3.4,1.2l-6,6.3l3.4,1.2l-9.6,7.6l3.2,1.1l-7.4,11.6l10,10.1l13.1-3
		c-1.7-5.1-3.4-10.1-5.1-15.2c1,0.1,1.9,0.2,2.9,0.3c-0.4-4.1-0.9-8.3-1.3-12.4l3.6,2.5l-1.3-9.4l4,1.4c-1.2-3-2.5-6-3.7-9
		c0.7,0,1.5,0.1,2.2,0.1C1464.5,678.7,1463.8,675.3,1463,671.8z"/>
	<path class="st5" d="M1448.7,666.6l-6.5,8l3.4,1.2l-6.2,6.9l3.4,1.2l-6,6.3l3.4,1.2l-9.6,7.6l3.2,1.1l-7.4,11.6l10,10.1l13.1-3
		c-1.7-5.1-3.4-10.1-5.1-15.2c1,0.1,1.9,0.2,2.9,0.3c-0.4-4.1-0.9-8.3-1.3-12.4l3.6,2.5l-1.3-9.4l4,1.4c-1.2-3-2.5-6-3.7-9
		c0.7,0,1.5,0.1,2.2,0.1C1450.2,673.4,1449.5,670,1448.7,666.6z"/>
	<path class="st5" d="M942.8,592.6l-3.6,9.6h3.6l-3.6,8.5h3.6l-3.6,7.9h3.6l-6.7,10.3h3.3l-3.3,13.3l12.7,6.4l11.5-7
		c-3.2-4.3-6.5-8.5-9.7-12.8c0.9-0.2,1.9-0.4,2.8-0.6c-1.7-3.8-3.5-7.6-5.2-11.4l4.2,1.2l-4.2-8.5h4.2c-2.1-2.4-4.2-4.9-6.4-7.3
		c0.7-0.2,1.4-0.4,2.1-0.6C946.4,598.7,944.6,595.6,942.8,592.6z"/>
	<path class="st5" d="M927.5,592.2l-3.6,9.6h3.6l-3.6,8.5h3.6l-3.6,7.9h3.6l-6.7,10.3h3.3l-3.3,13.3l12.7,6.4l11.5-7
		c-3.2-4.3-6.5-8.5-9.7-12.8c0.9-0.2,1.9-0.4,2.8-0.6c-1.7-3.8-3.5-7.6-5.2-11.4l4.2,1.2l-4.2-8.5h4.2c-2.1-2.4-4.2-4.9-6.4-7.3
		c0.7-0.2,1.4-0.4,2.1-0.6C931.2,598.2,929.3,595.2,927.5,592.2z"/>
	<path class="st5" d="M918.7,596.8l-3.6,9.6h3.6l-3.6,8.5h3.6l-3.6,7.9h3.6l-6.7,10.3h3.3l-3.3,13.3l12.7,6.4l11.5-7
		c-3.2-4.3-6.5-8.5-9.7-12.8c0.9-0.2,1.9-0.4,2.8-0.6c-1.7-3.8-3.5-7.6-5.2-11.4l4.2,1.2l-4.2-8.5h4.2c-2.1-2.4-4.2-4.9-6.4-7.3
		c0.7-0.2,1.4-0.4,2.1-0.6C922.3,602.8,920.5,599.8,918.7,596.8z"/>
	<path class="st5" d="M903.4,596.4l-3.6,9.6h3.6l-3.6,8.5h3.6l-3.6,7.9h3.6l-6.7,10.3h3.3l-3.3,13.3l12.7,6.4l11.5-7
		c-3.2-4.3-6.5-8.5-9.7-12.8c0.9-0.2,1.9-0.4,2.8-0.6c-1.7-3.8-3.5-7.6-5.2-11.4l4.2,1.2l-4.2-8.5h4.2c-2.1-2.4-4.2-4.9-6.4-7.3
		c0.7-0.2,1.4-0.4,2.1-0.6C907.1,602.4,905.3,599.4,903.4,596.4z"/>
	<path class="st5" d="M874.6,609.8l-3.6,9.6h3.6l-3.6,8.5h3.6l-3.6,7.9h3.6l-6.7,10.3h3.3l-3.3,13.3l12.7,6.4l11.5-7
		c-3.2-4.3-6.5-8.5-9.7-12.8c0.9-0.2,1.9-0.4,2.8-0.6c-1.7-3.8-3.5-7.6-5.2-11.4l4.2,1.2l-4.2-8.5h4.2c-2.1-2.4-4.2-4.9-6.4-7.3
		c0.7-0.2,1.4-0.4,2.1-0.6C878.2,615.8,876.4,612.8,874.6,609.8z"/>
	<path class="st5" d="M859.3,609.4l-3.6,9.6h3.6l-3.6,8.5h3.6l-3.6,7.9h3.6l-6.7,10.3h3.3l-3.3,13.3l12.7,6.4l11.5-7
		c-3.2-4.3-6.5-8.5-9.7-12.8c0.9-0.2,1.9-0.4,2.8-0.6c-1.7-3.8-3.5-7.6-5.2-11.4l4.2,1.2l-4.2-8.5h4.2c-2.1-2.4-4.2-4.9-6.4-7.3
		c0.7-0.2,1.4-0.4,2.1-0.6C863,615.4,861.1,612.4,859.3,609.4z"/>
	<path class="st5" d="M850.5,614l-3.6,9.6h3.6l-3.6,8.5h3.6l-3.6,7.9h3.6l-6.7,10.3h3.3l-3.3,13.3l12.7,6.4l11.5-7
		c-3.2-4.3-6.5-8.5-9.7-12.8c0.9-0.2,1.9-0.4,2.8-0.6c-1.7-3.8-3.5-7.6-5.2-11.4l4.2,1.2l-4.2-8.5h4.2c-2.1-2.4-4.2-4.9-6.4-7.3
		c0.7-0.2,1.4-0.4,2.1-0.6C854.1,620,852.3,617,850.5,614z"/>
	<path class="st5" d="M835.2,613.5l-3.6,9.6h3.6l-3.6,8.5h3.6l-3.6,7.9h3.6l-6.7,10.3h3.3l-3.3,13.3l12.7,6.4l11.5-7
		c-3.2-4.3-6.5-8.5-9.7-12.8c0.9-0.2,1.9-0.4,2.8-0.6c-1.7-3.8-3.5-7.6-5.2-11.4l4.2,1.2l-4.2-8.5h4.2c-2.1-2.4-4.2-4.9-6.4-7.3
		c0.7-0.2,1.4-0.4,2.1-0.6C838.9,619.5,837.1,616.5,835.2,613.5z"/>
	<path class="st5" d="M802.5,616.6l-3.6,9.6h3.6l-3.6,8.5h3.6l-3.6,7.9h3.6l-6.7,10.3h3.3l-3.3,13.3l12.7,6.4l11.5-7
		c-3.2-4.3-6.5-8.5-9.7-12.8c0.9-0.2,1.9-0.4,2.8-0.6c-1.7-3.8-3.5-7.6-5.2-11.4l4.2,1.2l-4.2-8.5h4.2c-2.1-2.4-4.2-4.9-6.4-7.3
		c0.7-0.2,1.4-0.4,2.1-0.6C806.1,622.6,804.3,619.6,802.5,616.6z"/>
	<path class="st5" d="M787.2,616.1l-3.6,9.6h3.6l-3.6,8.5h3.6l-3.6,7.9h3.6l-6.7,10.3h3.3l-3.3,13.3l12.7,6.4l11.5-7
		c-3.2-4.3-6.5-8.5-9.7-12.8c0.9-0.2,1.9-0.4,2.8-0.6c-1.7-3.8-3.5-7.6-5.2-11.4l4.2,1.2l-4.2-8.5h4.2c-2.1-2.4-4.2-4.9-6.4-7.3
		c0.7-0.2,1.4-0.4,2.1-0.6C790.9,622.1,789,619.1,787.2,616.1z"/>
	<path class="st5" d="M778.4,620.7l-3.6,9.6h3.6l-3.6,8.5h3.6l-3.6,7.9h3.6l-6.7,10.3h3.3l-3.3,13.3l12.7,6.4l11.5-7
		c-3.2-4.3-6.5-8.5-9.7-12.8c0.9-0.2,1.9-0.4,2.8-0.6c-1.7-3.8-3.5-7.6-5.2-11.4l4.2,1.2l-4.2-8.5h4.2c-2.1-2.4-4.2-4.9-6.4-7.3
		c0.7-0.2,1.4-0.4,2.1-0.6C782,626.7,780.2,623.7,778.4,620.7z"/>
	<path class="st5" d="M763.1,620.3l-3.6,9.6h3.6l-3.6,8.5h3.6l-3.6,7.9h3.6l-6.7,10.3h3.3l-3.3,13.3l12.7,6.4l11.5-7
		c-3.2-4.3-6.5-8.5-9.7-12.8c0.9-0.2,1.9-0.4,2.8-0.6c-1.7-3.8-3.5-7.6-5.2-11.4l4.2,1.2l-4.2-8.5h4.2c-2.1-2.4-4.2-4.9-6.4-7.3
		c0.7-0.2,1.4-0.4,2.1-0.6C766.8,626.3,765,623.3,763.1,620.3z"/>
	<path class="st5" d="M893.7,614.6l-3.6,9.6h3.6l-3.6,8.5h3.6l-3.6,7.9h3.6l-6.7,10.3h3.3l-3.3,13.3l12.7,6.4l11.5-7
		c-3.2-4.3-6.5-8.5-9.7-12.8c0.9-0.2,1.9-0.4,2.8-0.6c-1.7-3.8-3.5-7.6-5.2-11.4l4.2,1.2l-4.2-8.5h4.2c-2.1-2.4-4.2-4.9-6.4-7.3
		c0.7-0.2,1.4-0.4,2.1-0.6C897.4,620.6,895.6,617.6,893.7,614.6z"/>
	<path class="st5" d="M878.5,614.2l-3.6,9.6h3.6l-3.6,8.5h3.6l-3.6,7.9h3.6l-6.7,10.3h3.3l-3.3,13.3l12.7,6.4l11.5-7
		c-3.2-4.3-6.5-8.5-9.7-12.8c0.9-0.2,1.9-0.4,2.8-0.6c-1.7-3.8-3.5-7.6-5.2-11.4l4.2,1.2l-4.2-8.5h4.2c-2.1-2.4-4.2-4.9-6.4-7.3
		c0.7-0.2,1.4-0.4,2.1-0.6C882.1,620.2,880.3,617.2,878.5,614.2z"/>
	<path class="st5" d="M869.7,618.7l-3.6,9.6h3.6l-3.6,8.5h3.6l-3.6,7.9h3.6L863,655h3.3l-3.3,13.3l12.7,6.4l11.5-7
		c-3.2-4.3-6.5-8.5-9.7-12.8c0.9-0.2,1.9-0.4,2.8-0.6c-1.7-3.8-3.5-7.6-5.2-11.4l4.2,1.2l-4.2-8.5h4.2c-2.1-2.4-4.2-4.9-6.4-7.3
		c0.7-0.2,1.4-0.4,2.1-0.6C873.3,624.8,871.5,621.7,869.7,618.7z"/>
	<path class="st5" d="M854.4,618.3l-3.6,9.6h3.6l-3.6,8.5h3.6l-3.6,7.9h3.6l-6.7,10.3h3.3l-3.3,13.3l12.7,6.4l11.5-7
		c-3.2-4.3-6.5-8.5-9.7-12.8c0.9-0.2,1.9-0.4,2.8-0.6c-1.7-3.8-3.5-7.6-5.2-11.4l4.2,1.2l-4.2-8.5h4.2c-2.1-2.4-4.2-4.9-6.4-7.3
		c0.7-0.2,1.4-0.4,2.1-0.6C858,624.3,856.2,621.3,854.4,618.3z"/>
	<path class="st5" d="M1528.7,685.4l-3.6,9.6h3.6l-3.6,8.5h3.6l-3.6,7.9h3.6l-6.7,10.3h3.3L1522,735l12.7,6.4l11.5-7
		c-3.2-4.3-6.5-8.5-9.7-12.8c0.9-0.2,1.9-0.4,2.8-0.6c-1.7-3.8-3.5-7.6-5.2-11.4l4.2,1.2l-4.2-8.5h4.2c-2.1-2.4-4.2-4.9-6.4-7.3
		c0.7-0.2,1.4-0.4,2.1-0.6C1532.3,691.4,1530.5,688.4,1528.7,685.4z"/>
	<path class="st5" d="M1513.5,685l-3.6,9.6h3.6l-3.6,8.5h3.6l-3.6,7.9h3.6l-6.7,10.3h3.3l-3.3,13.3l12.7,6.4l11.5-7
		c-3.2-4.3-6.5-8.5-9.7-12.8c0.9-0.2,1.9-0.4,2.8-0.6c-1.7-3.8-3.5-7.6-5.2-11.4l4.2,1.2l-4.2-8.5h4.2c-2.1-2.4-4.2-4.9-6.4-7.3
		c0.7-0.2,1.4-0.4,2.1-0.6C1517.1,691,1515.3,688,1513.5,685z"/>
	<path class="st5" d="M1504.6,689.6l-3.6,9.6h3.6l-3.6,8.5h3.6l-3.6,7.9h3.6l-6.7,10.3h3.3l-3.3,13.3l12.7,6.4l11.5-7
		c-3.2-4.3-6.5-8.5-9.7-12.8c0.9-0.2,1.9-0.4,2.8-0.6c-1.7-3.8-3.5-7.6-5.2-11.4l4.2,1.2l-4.2-8.5h4.2c-2.1-2.4-4.2-4.9-6.4-7.3
		c0.7-0.2,1.4-0.4,2.1-0.6C1508.3,695.6,1506.4,692.6,1504.6,689.6z"/>
	<path class="st5" d="M1489.4,689.1l-3.6,9.6h3.6l-3.6,8.5h3.6l-3.6,7.9h3.6l-6.7,10.3h3.3l-3.3,13.3l12.7,6.4l11.5-7
		c-3.2-4.3-6.5-8.5-9.7-12.8c0.9-0.2,1.9-0.4,2.8-0.6c-1.7-3.8-3.5-7.6-5.2-11.4l4.2,1.2l-4.2-8.5h4.2c-2.1-2.4-4.2-4.9-6.4-7.3
		c0.7-0.2,1.4-0.4,2.1-0.6C1493,695.1,1491.2,692.1,1489.4,689.1z"/>
	<path class="st5" d="M1587.9,685.7l-3.6,9.6h3.6l-3.6,8.5h3.6l-3.6,7.9h3.6l-6.6,10.3h3.3l-3.3,13.3l12.7,6.4l11.5-7
		c-3.2-4.3-6.5-8.5-9.7-12.8c0.9-0.2,1.9-0.4,2.8-0.6c-1.7-3.8-3.5-7.6-5.2-11.4l4.2,1.2l-4.2-8.5h4.2c-2.1-2.4-4.2-4.9-6.4-7.3
		c0.7-0.2,1.4-0.4,2.1-0.6C1591.6,691.7,1589.8,688.7,1587.9,685.7z"/>
	<path class="st5" d="M1572.7,685.3l-3.6,9.6h3.6l-3.6,8.5h3.6l-3.6,7.9h3.6l-6.7,10.3h3.3l-3.3,13.3l12.7,6.4l11.5-7
		c-3.2-4.3-6.5-8.5-9.7-12.8c0.9-0.2,1.9-0.4,2.8-0.6c-1.7-3.8-3.5-7.6-5.2-11.4l4.2,1.2l-4.2-8.5h4.2c-2.1-2.4-4.2-4.9-6.4-7.3
		c0.7-0.2,1.4-0.4,2.1-0.6C1576.3,691.3,1574.5,688.3,1572.7,685.3z"/>
	<path class="st5" d="M1563.9,689.9l-3.6,9.6h3.6l-3.6,8.5h3.6l-3.6,7.9h3.6l-6.7,10.3h3.3l-3.3,13.3l12.7,6.4l11.5-7
		c-3.2-4.3-6.5-8.5-9.7-12.8c0.9-0.2,1.9-0.4,2.8-0.6c-1.7-3.8-3.5-7.6-5.2-11.4l4.2,1.2l-4.2-8.5h4.2c-2.1-2.4-4.2-4.9-6.4-7.3
		c0.7-0.2,1.4-0.4,2.1-0.6C1567.5,695.9,1565.7,692.9,1563.9,689.9z"/>
	<path class="st5" d="M1548.6,689.4l-3.6,9.6h3.6l-3.6,8.5h3.6l-3.6,7.9h3.6l-6.7,10.3h3.3l-3.3,13.3l12.7,6.4l11.5-7
		c-3.2-4.3-6.5-8.5-9.7-12.8c0.9-0.2,1.9-0.4,2.8-0.6c-1.7-3.8-3.5-7.6-5.2-11.4l4.2,1.2l-4.2-8.5h4.2c-2.1-2.4-4.2-4.9-6.4-7.3
		c0.7-0.2,1.4-0.4,2.1-0.6C1552.2,695.5,1550.4,692.4,1548.6,689.4z"/>
	<path class="st5" d="M1645.3,680.3l-3.6,9.6h3.6l-3.6,8.5h3.6l-3.6,7.9h3.6l-6.7,10.3h3.3l-3.3,13.3l12.7,6.4l11.5-7
		c-3.2-4.3-6.5-8.5-9.7-12.8c0.9-0.2,1.9-0.4,2.8-0.6c-1.7-3.8-3.5-7.6-5.2-11.4l4.2,1.2l-4.2-8.5h4.2c-2.1-2.4-4.2-4.9-6.4-7.3
		c0.7-0.2,1.4-0.4,2.1-0.6C1649,686.3,1647.2,683.3,1645.3,680.3z"/>
	<path class="st5" d="M1630.1,679.8l-3.6,9.6h3.6l-3.6,8.5h3.6l-3.6,7.9h3.6l-6.7,10.3h3.3l-3.3,13.3l12.7,6.4l11.5-7
		c-3.2-4.3-6.5-8.5-9.7-12.8c0.9-0.2,1.9-0.4,2.8-0.6c-1.7-3.8-3.5-7.6-5.2-11.4l4.2,1.2l-4.2-8.5h4.2c-2.1-2.4-4.2-4.9-6.4-7.3
		c0.7-0.2,1.4-0.4,2.1-0.6C1633.7,685.8,1631.9,682.8,1630.1,679.8z"/>
	<path class="st5" d="M1621.3,684.4l-3.6,9.6h3.6l-3.6,8.5h3.6l-3.6,7.9h3.6l-6.7,10.3h3.3l-3.3,13.3l12.7,6.4l11.5-7
		c-3.2-4.3-6.5-8.5-9.7-12.8c0.9-0.2,1.9-0.4,2.8-0.6c-1.7-3.8-3.5-7.6-5.2-11.4l4.2,1.2l-4.2-8.5h4.2c-2.1-2.4-4.2-4.9-6.4-7.3
		c0.7-0.2,1.4-0.4,2.1-0.6C1624.9,690.4,1623.1,687.4,1621.3,684.4z"/>
	<path class="st5" d="M1606,684l-3.6,9.6h3.6l-3.6,8.5h3.6l-3.6,7.9h3.6l-6.7,10.3h3.3l-3.3,13.3l12.7,6.4l11.5-7
		c-3.2-4.3-6.5-8.5-9.7-12.8c0.9-0.2,1.9-0.4,2.8-0.6c-1.7-3.8-3.5-7.6-5.2-11.4l4.2,1.2l-4.2-8.5h4.2c-2.1-2.4-4.2-4.9-6.4-7.3
		c0.7-0.2,1.4-0.4,2.1-0.6C1609.6,690,1607.8,687,1606,684z"/>
	<path class="st5" d="M526.6,612.7l-3.6,9.6h3.6l-3.6,8.5h3.6l-3.6,7.9h3.6l-6.7,10.3h3.3l-3.3,13.3l12.7,6.4l11.5-7
		c-3.2-4.3-6.5-8.5-9.7-12.8c0.9-0.2,1.9-0.4,2.8-0.6c-1.7-3.8-3.5-7.6-5.2-11.4l4.2,1.2l-4.2-8.5h4.2c-2.1-2.4-4.2-4.9-6.4-7.3
		c0.7-0.2,1.4-0.4,2.1-0.6C530.2,618.7,528.4,615.7,526.6,612.7z"/>
	<path class="st5" d="M511.3,612.2l-3.6,9.6h3.6l-3.6,8.5h3.6l-3.6,7.9h3.6l-6.7,10.3h3.3l-3.3,13.3l12.7,6.4l11.5-7
		c-3.2-4.3-6.5-8.5-9.7-12.8c0.9-0.2,1.9-0.4,2.8-0.6c-1.7-3.8-3.5-7.6-5.2-11.4l4.2,1.2l-4.2-8.5h4.2c-2.1-2.4-4.2-4.9-6.4-7.3
		c0.7-0.2,1.4-0.4,2.1-0.6C515,618.2,513.1,615.2,511.3,612.2z"/>
	<path class="st5" d="M502.5,616.8l-3.6,9.6h3.6l-3.6,8.5h3.6l-3.6,7.9h3.6l-6.7,10.3h3.3l-3.3,13.3l12.7,6.4l11.5-7
		c-3.2-4.3-6.5-8.5-9.7-12.8c0.9-0.2,1.9-0.4,2.8-0.6c-1.7-3.8-3.5-7.6-5.2-11.4l4.2,1.2l-4.2-8.5h4.2c-2.1-2.4-4.2-4.9-6.4-7.3
		c0.7-0.2,1.4-0.4,2.1-0.6C506.1,622.8,504.3,619.8,502.5,616.8z"/>
	<path class="st5" d="M487.2,616.4l-3.6,9.6h3.6l-3.6,8.5h3.6l-3.6,7.9h3.6l-6.7,10.3h3.3l-3.3,13.3l12.7,6.4l11.5-7
		c-3.2-4.3-6.5-8.5-9.7-12.8c0.9-0.2,1.9-0.4,2.8-0.6c-1.7-3.8-3.5-7.6-5.2-11.4l4.2,1.2l-4.2-8.5h4.2c-2.1-2.4-4.2-4.9-6.4-7.3
		c0.7-0.2,1.4-0.4,2.1-0.6C490.9,622.4,489.1,619.4,487.2,616.4z"/>
	<path class="st5" d="M477.8,598.9l-3.6,9.6h3.6l-3.6,8.5h3.6l-3.6,7.9h3.6l-6.7,10.3h3.3l-3.3,13.3l12.7,6.4l11.5-7
		c-3.2-4.3-6.5-8.5-9.7-12.8c0.9-0.2,1.9-0.4,2.8-0.6c-1.7-3.8-3.5-7.6-5.2-11.4l4.2,1.2l-4.2-8.5h4.2c-2.1-2.4-4.2-4.9-6.4-7.3
		c0.7-0.2,1.4-0.4,2.1-0.6C481.5,604.9,479.6,601.9,477.8,598.9z"/>
	<path class="st5" d="M462.6,598.5l-3.6,9.6h3.6l-3.6,8.5h3.6l-3.6,7.9h3.6l-6.7,10.3h3.3l-3.3,13.3l12.7,6.4l11.5-7
		c-3.2-4.3-6.5-8.5-9.7-12.8c0.9-0.2,1.9-0.4,2.8-0.6c-1.7-3.8-3.5-7.6-5.2-11.4l4.2,1.2l-4.2-8.5h4.2c-2.1-2.4-4.2-4.9-6.4-7.3
		c0.7-0.2,1.4-0.4,2.1-0.6C466.2,604.5,464.4,601.5,462.6,598.5z"/>
	<path class="st5" d="M453.7,603.1l-3.6,9.6h3.6l-3.6,8.5h3.6l-3.6,7.9h3.6l-6.7,10.3h3.3l-3.3,13.3l12.7,6.4l11.5-7
		c-3.2-4.3-6.5-8.5-9.7-12.8c0.9-0.2,1.9-0.4,2.8-0.6c-1.7-3.8-3.5-7.6-5.2-11.4l4.2,1.2l-4.2-8.5h4.2c-2.1-2.4-4.2-4.9-6.4-7.3
		c0.7-0.2,1.4-0.4,2.1-0.6C457.4,609.1,455.6,606.1,453.7,603.1z"/>
	<path class="st5" d="M438.5,602.7l-3.6,9.6h3.6l-3.6,8.5h3.6l-3.6,7.9h3.6l-6.7,10.3h3.3l-3.3,13.3l12.7,6.4l11.5-7
		c-3.2-4.3-6.5-8.5-9.7-12.8c0.9-0.2,1.9-0.4,2.8-0.6c-1.7-3.8-3.5-7.6-5.2-11.4l4.2,1.2l-4.2-8.5h4.2c-2.1-2.4-4.2-4.9-6.4-7.3
		c0.7-0.2,1.4-0.4,2.1-0.6C442.1,608.7,440.3,605.7,438.5,602.7z"/>
	<path class="st5" d="M377.3,592.5l-6.5,8l3.4,1.2l-6.2,6.9l3.4,1.2l-6,6.3l3.4,1.2l-9.6,7.6l3.2,1.1l-7.4,11.5l10,10.1l13.1-3
		c-1.7-5.1-3.4-10.1-5.1-15.2c1,0.1,1.9,0.2,2.9,0.3c-0.4-4.1-0.9-8.3-1.3-12.4l3.6,2.5l-1.3-9.4l4,1.4c-1.2-3-2.4-6-3.7-9
		c0.7,0.1,1.5,0.1,2.2,0.2C378.8,599.4,378.1,595.9,377.3,592.5z"/>
	<path class="st5" d="M363,587.2l-6.5,8l3.4,1.2l-6.2,6.9l3.4,1.2l-6,6.3l3.4,1.2l-9.6,7.6l3.2,1.1l-7.4,11.5l10,10.1l13.1-3
		c-1.7-5.1-3.4-10.1-5.1-15.2c1,0.1,1.9,0.2,2.9,0.3c-0.4-4.1-0.9-8.3-1.3-12.4l3.6,2.5l-1.3-9.4l4,1.4c-1.2-3-2.4-6-3.7-9
		c0.7,0.1,1.5,0.1,2.2,0.2C364.5,594.1,363.8,590.6,363,587.2z"/>
	<path class="st5" d="M353.2,588.7l-6.5,8l3.4,1.2l-6.2,6.9l3.4,1.2l-6,6.3l3.4,1.2l-9.6,7.6l3.2,1.1l-7.4,11.5l10,10.1l13.1-3
		c-1.7-5.1-3.4-10.1-5.1-15.2c1,0.1,1.9,0.2,2.9,0.3c-0.4-4.1-0.9-8.3-1.3-12.4l3.6,2.5l-1.3-9.4l4,1.4c-1.2-3-2.4-6-3.7-9
		c0.7,0.1,1.5,0.1,2.2,0.2C354.7,595.6,353.9,592.1,353.2,588.7z"/>
	<path class="st5" d="M338.9,583.4l-6.5,8l3.4,1.2l-6.2,6.9l3.4,1.2l-6,6.3l3.4,1.2l-9.6,7.6l3.2,1.1l-7.4,11.5l10,10.1l13.1-3
		c-1.7-5.1-3.4-10.1-5.1-15.2c1,0.1,1.9,0.2,2.9,0.3c-0.4-4.1-0.9-8.3-1.3-12.4l3.6,2.5l-1.3-9.4l4,1.4c-1.2-3-2.4-6-3.7-9
		c0.7,0.1,1.5,0.1,2.2,0.2C340.4,590.3,339.6,586.8,338.9,583.4z"/>
	<path class="st5" d="M311.1,586.7l-3.6,9.6h3.6l-3.6,8.5h3.6l-3.6,7.9h3.6l-6.7,10.3h3.3l-3.3,13.3l12.7,6.4l11.5-7
		c-3.2-4.3-6.5-8.5-9.7-12.8c0.9-0.2,1.9-0.4,2.8-0.6c-1.7-3.8-3.5-7.6-5.2-11.4l4.2,1.2l-4.2-8.5h4.2c-2.1-2.4-4.2-4.9-6.4-7.3
		c0.7-0.2,1.4-0.4,2.1-0.6C314.7,592.7,312.9,589.7,311.1,586.7z"/>
	<path class="st5" d="M295.9,586.2l-3.6,9.6h3.6l-3.6,8.5h3.6l-3.6,7.9h3.6l-6.7,10.3h3.3l-3.3,13.3l12.7,6.4l11.5-7
		c-3.2-4.3-6.5-8.5-9.7-12.8c0.9-0.2,1.9-0.4,2.8-0.6c-1.7-3.8-3.5-7.6-5.2-11.4l4.2,1.2l-4.2-8.5h4.2c-2.1-2.4-4.2-4.9-6.4-7.3
		c0.7-0.2,1.4-0.4,2.1-0.6C299.5,592.2,297.7,589.2,295.9,586.2z"/>
	<path class="st5" d="M287,590.8l-3.6,9.6h3.6l-3.6,8.5h3.6l-3.6,7.9h3.6l-6.7,10.3h3.3l-3.3,13.3l12.7,6.4l11.5-7
		c-3.2-4.3-6.5-8.5-9.7-12.8c0.9-0.2,1.9-0.4,2.8-0.6c-1.7-3.8-3.5-7.6-5.2-11.4l4.2,1.2l-4.2-8.5h4.2c-2.1-2.4-4.2-4.9-6.4-7.3
		c0.7-0.2,1.4-0.4,2.1-0.6C290.6,596.8,288.8,593.8,287,590.8z"/>
	<path class="st5" d="M271.8,590.4l-3.6,9.6h3.6l-3.6,8.5h3.6l-3.6,7.9h3.6l-6.7,10.3h3.3l-3.3,13.3l12.7,6.4l11.5-7
		c-3.2-4.3-6.5-8.5-9.7-12.8c0.9-0.2,1.9-0.4,2.8-0.6c-1.7-3.8-3.5-7.6-5.2-11.4l4.2,1.2l-4.2-8.5h4.2c-2.1-2.4-4.2-4.9-6.4-7.3
		c0.7-0.2,1.4-0.4,2.1-0.6C275.4,596.4,273.6,593.4,271.8,590.4z"/>
	<path class="st5" d="M246.4,583.5l-3.6,9.6h3.6l-3.6,8.5h3.6l-3.6,7.9h3.6l-6.7,10.3h3.3l-3.3,13.3l12.7,6.4l11.5-7
		c-3.2-4.3-6.5-8.5-9.7-12.8c0.9-0.2,1.9-0.4,2.8-0.6c-1.7-3.8-3.5-7.6-5.2-11.4l4.2,1.2l-4.2-8.5h4.2c-2.1-2.4-4.2-4.9-6.4-7.3
		c0.7-0.2,1.4-0.4,2.1-0.6C250,589.5,248.2,586.5,246.4,583.5z"/>
	<path class="st5" d="M231.2,583.1l-3.6,9.6h3.6l-3.6,8.5h3.6l-3.6,7.9h3.6l-6.7,10.3h3.3l-3.3,13.3l12.7,6.4l11.5-7
		c-3.2-4.3-6.5-8.5-9.7-12.8c0.9-0.2,1.9-0.4,2.8-0.6c-1.7-3.8-3.5-7.6-5.2-11.4l4.2,1.2l-4.2-8.5h4.2c-2.1-2.4-4.2-4.9-6.4-7.3
		c0.7-0.2,1.4-0.4,2.1-0.6C234.8,589.1,233,586.1,231.2,583.1z"/>
	<path class="st5" d="M222.3,587.7l-3.6,9.6h3.6l-3.6,8.5h3.6l-3.6,7.9h3.6l-6.7,10.3h3.3l-3.3,13.3l12.7,6.4l11.5-7
		c-3.2-4.3-6.5-8.5-9.7-12.8c0.9-0.2,1.9-0.4,2.8-0.6c-1.7-3.8-3.5-7.6-5.2-11.4l4.2,1.2l-4.2-8.5h4.2c-2.1-2.4-4.2-4.9-6.4-7.3
		c0.7-0.2,1.4-0.4,2.1-0.6C226,593.7,224.1,590.7,222.3,587.7z"/>
	<path class="st5" d="M207.1,587.2l-3.6,9.6h3.6l-3.6,8.5h3.6l-3.6,7.9h3.6l-6.7,10.3h3.3l-3.3,13.3l12.7,6.4l11.5-7
		c-3.2-4.3-6.5-8.5-9.7-12.8c0.9-0.2,1.9-0.4,2.8-0.6c-1.7-3.8-3.5-7.6-5.2-11.4l4.2,1.2l-4.2-8.5h4.2c-2.1-2.4-4.2-4.9-6.4-7.3
		c0.7-0.2,1.4-0.4,2.1-0.6C210.7,593.2,208.9,590.2,207.1,587.2z"/>
	<path class="st5" d="M183.5,592.6l-3.6,9.6h3.6l-3.6,8.5h3.6l-3.6,7.9h3.6l-6.7,10.3h3.3l-3.3,13.3l12.7,6.4l11.5-7
		c-3.2-4.3-6.5-8.5-9.7-12.8c0.9-0.2,1.9-0.4,2.8-0.6c-1.7-3.8-3.5-7.6-5.2-11.4l4.2,1.2l-4.2-8.5h4.2c-2.1-2.4-4.2-4.9-6.4-7.3
		c0.7-0.2,1.4-0.4,2.1-0.6C187.2,598.6,185.4,595.6,183.5,592.6z"/>
	<path class="st5" d="M168.3,592.2l-3.6,9.6h3.6l-3.6,8.5h3.6l-3.6,7.9h3.6l-6.7,10.3h3.3l-3.3,13.3l12.7,6.4l11.5-7
		c-3.2-4.3-6.5-8.5-9.7-12.8c0.9-0.2,1.9-0.4,2.8-0.6c-1.7-3.8-3.5-7.6-5.2-11.4l4.2,1.2l-4.2-8.5h4.2c-2.1-2.4-4.2-4.9-6.4-7.3
		c0.7-0.2,1.4-0.4,2.1-0.6C171.9,598.2,170.1,595.2,168.3,592.2z"/>
	<path class="st5" d="M159.5,596.8l-3.6,9.6h3.6l-3.6,8.5h3.6l-3.6,7.9h3.6l-6.7,10.3h3.3l-3.3,13.3l12.7,6.4l11.5-7
		c-3.2-4.3-6.5-8.5-9.7-12.8c0.9-0.2,1.9-0.4,2.8-0.6c-1.7-3.8-3.5-7.6-5.2-11.4l4.2,1.2l-4.2-8.5h4.2c-2.1-2.4-4.2-4.9-6.4-7.3
		c0.7-0.2,1.4-0.4,2.1-0.6C163.1,602.8,161.3,599.8,159.5,596.8z"/>
	<path class="st5" d="M144.2,596.3l-3.6,9.6h3.6l-3.6,8.5h3.6l-3.6,7.9h3.6l-6.7,10.3h3.3l-3.3,13.3l12.7,6.4l11.5-7
		c-3.2-4.3-6.5-8.5-9.7-12.8c0.9-0.2,1.9-0.4,2.8-0.6c-1.7-3.8-3.5-7.6-5.2-11.4l4.2,1.2l-4.2-8.5h4.2c-2.1-2.4-4.2-4.9-6.4-7.3
		c0.7-0.2,1.4-0.4,2.1-0.6C147.9,602.3,146,599.3,144.2,596.3z"/>
	<path class="st5" d="M118.8,590.9l-2.2,10.1l3.6-0.5l-2.3,8.9l3.6-0.5l-2.4,8.3l3.6-0.5l-5.1,11.2l3.3-0.5l-1.3,13.7l13.5,4.4
		l10.3-8.6c-3.8-3.7-7.6-7.5-11.5-11.2c0.9-0.4,1.8-0.7,2.7-1.1c-2.3-3.5-4.6-7-6.9-10.5l4.4,0.6l-5.4-7.8l4.2-0.6
		c-2.5-2.1-4.9-4.2-7.4-6.3c0.7-0.3,1.3-0.6,2-0.9C123.3,596.3,121.1,593.6,118.8,590.9z"/>
	<path class="st5" d="M103.7,592.8l-2.2,10.1l3.6-0.5l-2.3,8.9l3.6-0.5l-2.4,8.3l3.6-0.5l-5.1,11.2l3.3-0.5l-1.3,13.7l13.5,4.4
		l10.3-8.6c-3.8-3.7-7.6-7.5-11.5-11.2c0.9-0.4,1.8-0.7,2.7-1.1c-2.3-3.5-4.6-7-6.9-10.5l4.4,0.6l-5.4-7.8l4.2-0.6
		c-2.5-2.1-4.9-4.2-7.4-6.3c0.7-0.3,1.3-0.6,2-0.9C108.2,598.2,105.9,595.5,103.7,592.8z"/>
	<path class="st5" d="M95.6,598.6l-2.2,10.1l3.6-0.5l-2.3,8.9l3.6-0.5l-2.4,8.3l3.6-0.5l-5.1,11.2l3.3-0.5l-1.3,13.7l13.5,4.4
		l10.3-8.6c-3.8-3.7-7.6-7.5-11.5-11.2c0.9-0.4,1.8-0.7,2.7-1.1c-2.3-3.5-4.6-7-6.9-10.5l4.4,0.6l-5.4-7.8l4.2-0.6
		c-2.5-2.1-4.9-4.2-7.4-6.3c0.7-0.3,1.3-0.6,2-0.9C100.1,604,97.9,601.3,95.6,598.6z"/>
	<path class="st5" d="M80.5,600.5l-2.2,10.1l3.6-0.5l-2.3,8.9l3.6-0.5l-2.4,8.3l3.6-0.5l-5.1,11.2l3.3-0.5l-1.3,13.7l13.5,4.4
		l10.3-8.6c-3.8-3.7-7.6-7.5-11.5-11.2c0.9-0.4,1.8-0.7,2.7-1.1c-2.3-3.5-4.6-7-6.9-10.5l4.4,0.6l-5.4-7.8l4.2-0.6
		c-2.5-2.1-4.9-4.2-7.4-6.3c0.7-0.3,1.3-0.6,2-0.9C85,605.9,82.7,603.2,80.5,600.5z"/>
	<path class="st5" d="M75.2,604.8l-3.6,9.6h3.6l-3.6,8.5h3.6l-3.6,7.9h3.6l-6.7,10.3h3.3l-3.3,13.3l12.7,6.4l11.5-7
		c-3.2-4.3-6.5-8.5-9.7-12.8c0.9-0.2,1.9-0.4,2.8-0.6c-1.7-3.8-3.5-7.6-5.2-11.4l4.2,1.2l-4.2-8.5h4.2c-2.1-2.4-4.2-4.9-6.4-7.3
		c0.7-0.2,1.4-0.4,2.1-0.6C78.9,610.8,77.1,607.8,75.2,604.8z"/>
	<path class="st5" d="M60,604.4l-3.6,9.6H60l-3.6,8.5H60l-3.6,7.9H60l-6.7,10.3h3.3L53.3,654l12.7,6.4l11.5-7
		c-3.2-4.3-6.5-8.5-9.7-12.8c0.9-0.2,1.9-0.4,2.8-0.6c-1.7-3.8-3.5-7.6-5.2-11.4l4.2,1.2l-4.2-8.5h4.2c-2.1-2.4-4.2-4.9-6.4-7.3
		c0.7-0.2,1.4-0.4,2.1-0.6C63.6,610.4,61.8,607.4,60,604.4z"/>
	<path class="st5" d="M51.2,608.9l-3.6,9.6h3.6l-3.6,8.5h3.6l-3.6,7.9h3.6l-6.7,10.3h3.3l-3.3,13.3l12.7,6.4l11.5-7
		c-3.2-4.3-6.5-8.5-9.7-12.8c0.9-0.2,1.9-0.4,2.8-0.6c-1.7-3.8-3.5-7.6-5.2-11.4l4.2,1.2l-4.2-8.5h4.2c-2.1-2.4-4.2-4.9-6.4-7.3
		c0.7-0.2,1.4-0.4,2.1-0.6C54.8,614.9,53,611.9,51.2,608.9z"/>
	<path class="st5" d="M35.9,608.5l-3.6,9.6h3.6l-3.6,8.5h3.6l-3.6,7.9h3.6l-6.7,10.3h3.3l-3.3,13.3l12.7,6.4l11.5-7
		c-3.2-4.3-6.5-8.5-9.7-12.8c0.9-0.2,1.9-0.4,2.8-0.6c-1.7-3.8-3.5-7.6-5.2-11.4l4.2,1.2l-4.2-8.5h4.2c-2.1-2.4-4.2-4.9-6.4-7.3
		c0.7-0.2,1.4-0.4,2.1-0.6C39.5,614.5,37.7,611.5,35.9,608.5z"/>
	<path class="st5" d="M18.6,611.1l-3.6,9.6h3.6l-3.6,8.5h3.6l-3.6,7.9h3.6l-6.7,10.3h3.3l-3.3,13.3l12.7,6.4l11.5-7
		c-3.2-4.3-6.5-8.5-9.7-12.8c0.9-0.2,1.9-0.4,2.8-0.6c-1.7-3.8-3.5-7.6-5.2-11.4l4.2,1.2L24,628h4.2c-2.1-2.4-4.2-4.9-6.4-7.3
		c0.7-0.2,1.4-0.4,2.1-0.6C22.3,617.1,20.5,614.1,18.6,611.1z"/>
	<path class="st5" d="M3.4,610.7l-3.6,9.6h3.6l-3.6,8.5h3.6l-3.6,7.9h3.6L-3.3,647H0l-3.3,13.3l12.7,6.4l11.5-7
		c-3.2-4.3-6.5-8.5-9.7-12.8c0.9-0.2,1.9-0.4,2.8-0.6c-1.7-3.8-3.5-7.6-5.2-11.4l4.2,1.2l-4.2-8.5H13c-2.1-2.4-4.2-4.9-6.4-7.3
		c0.7-0.2,1.4-0.4,2.1-0.6C7,616.7,5.2,613.7,3.4,610.7z"/>
	<path class="st5" d="M-5.4,615.3l-3.6,9.6h3.6l-3.6,8.5h3.6l-3.6,7.9h3.6l-6.7,10.3h3.3l-3.3,13.3l12.7,6.4l11.5-7
		c-3.2-4.3-6.5-8.5-9.7-12.8c0.9-0.2,1.9-0.4,2.8-0.6c-1.7-3.8-3.5-7.6-5.2-11.4l4.2,1.2L0,632.2h4.2c-2.1-2.4-4.2-4.9-6.4-7.3
		c0.7-0.2,1.4-0.4,2.1-0.6C-1.8,621.3-3.6,618.3-5.4,615.3z"/>
	<path class="st5" d="M-20.7,614.9l-3.6,9.6h3.6l-3.6,8.5h3.6l-3.6,7.9h3.6l-6.7,10.3h3.3l-3.3,13.3l12.7,6.4l11.5-7
		c-3.2-4.3-6.5-8.5-9.7-12.8c0.9-0.2,1.9-0.4,2.8-0.6c-1.7-3.8-3.5-7.6-5.2-11.4l4.2,1.2l-4.2-8.5h4.2c-2.1-2.4-4.2-4.9-6.4-7.3
		c0.7-0.2,1.4-0.4,2.1-0.6C-17.1,620.9-18.9,617.9-20.7,614.9z"/>
	<path class="st5" d="M-41.1,620.4l-2.3,10l3.6-0.5l-2.5,8.9l3.6-0.5l-2.5,8.3l3.6-0.5l-5.2,11.1l3.3-0.4l-1.5,13.6l13.5,4.6
		l10.5-8.5c-3.8-3.8-7.5-7.6-11.3-11.4c0.9-0.3,1.8-0.7,2.7-1c-2.2-3.5-4.5-7-6.7-10.6l4.4,0.6l-5.3-7.8l4.2-0.6
		c-2.4-2.1-4.8-4.3-7.3-6.4c0.7-0.3,1.3-0.6,2-0.8C-36.7,625.9-38.9,623.2-41.1,620.4z"/>
	<path class="st5" d="M-56.2,622l-2.3,10l3.6-0.5l-2.5,8.9l3.6-0.5l-2.5,8.3l3.6-0.5l-5.2,11.1l3.3-0.4l-1.5,13.6l13.5,4.6l10.5-8.5
		c-3.8-3.8-7.5-7.6-11.3-11.4c0.9-0.3,1.8-0.7,2.7-1c-2.2-3.5-4.5-7-6.7-10.6l4.4,0.6l-5.3-7.8l4.2-0.6c-2.4-2.1-4.8-4.3-7.3-6.4
		c0.7-0.3,1.3-0.6,2-0.8C-51.8,627.5-54,624.8-56.2,622z"/>
	<path class="st5" d="M-64.4,627.8l-2.3,10l3.6-0.5l-2.5,8.9l3.6-0.5l-2.5,8.3l3.6-0.5l-5.2,11.1l3.3-0.4l-1.5,13.6l13.5,4.6
		l10.5-8.5c-3.8-3.8-7.5-7.6-11.3-11.4c0.9-0.3,1.8-0.7,2.7-1c-2.2-3.5-4.5-7-6.7-10.6l4.4,0.6l-5.3-7.8l4.2-0.6
		c-2.4-2.1-4.8-4.3-7.3-6.4c0.7-0.3,1.3-0.6,2-0.8C-60,633.2-62.2,630.5-64.4,627.8z"/>
	<path class="st5" d="M-79.5,629.4l-2.3,10l3.6-0.5l-2.5,8.9l3.6-0.5l-2.6,8.3l3.6-0.5l-5.2,11.1l3.3-0.4l-1.5,13.6L-66,684
		l10.5-8.5c-3.8-3.8-7.5-7.6-11.3-11.4c0.9-0.3,1.8-0.7,2.7-1c-2.2-3.5-4.5-7-6.7-10.6l4.4,0.6l-5.3-7.8l4.2-0.6
		c-2.4-2.1-4.8-4.3-7.3-6.4c0.7-0.3,1.3-0.6,2-0.8C-75.1,634.9-77.3,632.1-79.5,629.4z"/>
	<path class="st5" d="M790.5,590.9l-3.6,9.6h3.6l-3.6,8.5h3.6l-3.6,7.9h3.6l-6.7,10.3h3.3l-3.3,13.3l12.7,6.4l11.5-7
		c-3.2-4.3-6.5-8.5-9.7-12.8c0.9-0.2,1.9-0.4,2.8-0.6c-1.7-3.8-3.5-7.6-5.2-11.4l4.2,1.2l-4.2-8.5h4.2c-2.1-2.4-4.2-4.9-6.4-7.3
		c0.7-0.2,1.4-0.4,2.1-0.6C794.1,596.9,792.3,593.9,790.5,590.9z"/>
	<path class="st5" d="M775.3,590.5l-3.6,9.6h3.6l-3.6,8.5h3.6l-3.6,7.9h3.6l-6.7,10.3h3.3l-3.3,13.3l12.7,6.4l11.5-7
		c-3.2-4.3-6.5-8.5-9.7-12.8c0.9-0.2,1.9-0.4,2.8-0.6c-1.7-3.8-3.5-7.6-5.2-11.4l4.2,1.2l-4.2-8.5h4.2c-2.1-2.4-4.2-4.9-6.4-7.3
		c0.7-0.2,1.4-0.4,2.1-0.6C778.9,596.5,777.1,593.5,775.3,590.5z"/>
	<path class="st5" d="M766.4,595l-3.6,9.6h3.6l-3.6,8.5h3.6l-3.6,7.9h3.6l-6.7,10.3h3.3l-3.3,13.3l12.7,6.4l11.5-7
		c-3.2-4.3-6.5-8.5-9.7-12.8c0.9-0.2,1.9-0.4,2.8-0.6c-1.7-3.8-3.5-7.6-5.2-11.4l4.2,1.2l-4.2-8.5h4.2c-2.1-2.4-4.2-4.9-6.4-7.3
		c0.7-0.2,1.4-0.4,2.1-0.6C770.1,601.1,768.2,598.1,766.4,595z"/>
	<path class="st5" d="M751.2,594.6l-3.6,9.6h3.6l-3.6,8.5h3.6l-3.6,7.9h3.6l-6.7,10.3h3.3l-3.3,13.3l12.7,6.4l11.5-7
		c-3.2-4.3-6.5-8.5-9.7-12.8c0.9-0.2,1.9-0.4,2.8-0.6c-1.7-3.8-3.5-7.6-5.2-11.4l4.2,1.2l-4.2-8.5h4.2c-2.1-2.4-4.2-4.9-6.4-7.3
		c0.7-0.2,1.4-0.4,2.1-0.6C754.8,600.6,753,597.6,751.2,594.6z"/>
	<path class="st5" d="M438.7,576.9l-4.3,9.3l3.6,0.3l-4.3,8.2l3.6,0.3l-4.2,7.6l3.6,0.3l-7.4,9.8l3.3,0.2l-4.3,13l12.2,7.3l12-6.1
		c-2.9-4.5-5.8-9-8.7-13.5c1-0.1,1.9-0.3,2.9-0.4c-1.5-3.9-2.9-7.8-4.4-11.7l4.1,1.5l-3.6-8.8l4.2,0.3c-1.9-2.6-3.9-5.2-5.8-7.8
		c0.7-0.1,1.4-0.3,2.1-0.4C441.9,583.2,440.3,580.1,438.7,576.9z"/>
	<path class="st5" d="M423.6,575.4l-4.3,9.3l3.6,0.3l-4.3,8.2l3.6,0.3l-4.2,7.6l3.6,0.3l-7.4,9.8l3.3,0.2l-4.3,13l12.2,7.3l12-6.1
		c-2.9-4.5-5.8-9-8.7-13.5c1-0.1,1.9-0.3,2.9-0.4c-1.5-3.9-2.9-7.8-4.4-11.7l4.1,1.5l-3.6-8.8l4.2,0.3c-1.9-2.6-3.9-5.2-5.8-7.8
		c0.7-0.1,1.4-0.3,2.1-0.4C426.7,581.6,425.2,578.5,423.6,575.4z"/>
	<path class="st5" d="M414.4,579.3l-4.3,9.3l3.6,0.3l-4.3,8.2l3.6,0.3l-4.2,7.6l3.6,0.3l-7.4,9.8l3.3,0.2l-4.3,13l12.2,7.3l12-6.1
		c-2.9-4.5-5.8-9-8.7-13.5c1-0.1,1.9-0.3,2.9-0.4c-1.5-3.9-2.9-7.8-4.4-11.7l4.1,1.5l-3.6-8.8l4.2,0.3c-1.9-2.6-3.9-5.2-5.8-7.8
		c0.7-0.1,1.4-0.3,2.1-0.4C417.6,585.6,416,582.4,414.4,579.3z"/>
	<path class="st5" d="M399.2,577.7l-4.3,9.3l3.6,0.3l-4.3,8.2l3.6,0.3l-4.2,7.6l3.6,0.3l-7.4,9.8l3.3,0.2l-4.3,13L401,634l12-6.1
		c-2.9-4.5-5.8-9-8.7-13.5c1-0.1,1.9-0.3,2.9-0.4c-1.5-3.9-2.9-7.8-4.4-11.7l4.1,1.5l-3.6-8.8l4.2,0.3c-1.9-2.6-3.9-5.2-5.8-7.8
		c0.7-0.1,1.4-0.3,2.1-0.4C402.4,584,400.8,580.9,399.2,577.7z"/>
	<path class="st6" d="M684.3,181.5l8.3,10.6l-8.2,6.2l21.9,13.7l-8.1,10.6l18.6,26.2l-6.9,8.1l22.7,34.3l-4.4,18.7L768,358l36,18.7
		l75.2,30c3,0.6,5.9,1.2,8.9,1.8c-6.4-4.6-15.1-11.2-25.1-19.4c-15.6-12.8-39.3-36.6-66.7-65.3c-16.7-17.5-37.2-45.1-51.7-88.7
		c-22.6-27-45.3-54-67.9-80.9L684.3,181.5z"/>
	<line class="st7" x1="678.9" y1="566.3" x2="678.9" y2="618.7"/>
	<path class="st6" d="M1476.6,121.1l-9.8,17.6l9.8,15.2l7.1,20.7l-5.8,17.8l13,14.6l6,23.4l6.8,27.3l-12.9,12.7l-13.7,26.3l26.6,6.8
		l-20.1,18.1l13.2,19.9l-13.2,15.6l20.1,24.4l-12.9,12.7l44.1,13.8l61.5,23.3c14.2,4.5,28.4,9,42.6,13.5
		c-39.6-47.5-67-90-85.2-121.3c-23.4-40.2-32.9-64.1-35.5-71.3c-1.9-5.3-3.7-10.5-3.7-10.5c-1.2-3.5-2.9-8.9-4.8-15.4
		c0,0-5-17.1-9.3-36.7c-4.1-18.8-13.6-77-23.4-156.1c-2,3.8-4.6,9.7-5.4,17.3c-0.6,6.1,0.3,8.8-0.3,14.2c-0.6,4.6-2.3,11.2-7.8,18.8
		c2.6,5.5,5.3,11.1,7.9,16.6L1476.6,121.1z"/>
</g>
<g id="Слой_4">
</g>
<g id="Слой_3">
	<path class="st8" d="M-285,812.7c0,0,49.2-84.6,285.2-103.5s186.8,39.1,465.7,66.9c278.9,27.8,275.1-7.6,525-29
		c136.3-11.7,212.1-20.8,296.8-19.1c155.1,3,155.3,33.5,269.9,31.1c119.7-2.5,260.2-68.3,320.9-42.8c50.1,21,90.2,123.2,37,492.2
		c-115.6-8.1-231.2-16.2-346.8-24.3c-395.5,16.2-790.9,32.4-1186.4,48.7c-94.8-2.8-208.5-13.4-334.6-40.6
		c-147.6-31.8-271.3-77.4-368-120.8L-285,812.7z"/>
	<ellipse class="st8" cx="689.2" cy="876.3" rx="477" ry="239.3"/>
	<polygon class="st8" points="371.2,516.1 371.2,560.3 380.1,552.7 371.2,605.7 380.1,605.7 375.6,648.6 386.4,637 386.4,729.4 
		464.6,713 498.7,677.7 426.8,637 445.7,637 419.5,607.4 409.1,595.6 424.2,599.4 392.7,546.4 404,548.9 	"/>
	<path class="st8" d="M550.4,507l-13.9,44.5h6.9l-15.8,49.2l15.2-7.6l-15.2,73.2l48,39.2l49.2-54.3l-48.5-58.1l12.6,4.3
		c-8.7-15.7-17.3-31.3-26-47c4.5-1.3,8.9-2.7,13.4-4L550.4,507z"/>
	<path class="st8" d="M-142.9,117.9"/>
	<rect x="599.1" y="561.5" class="st8" width="147.7" height="122.6"/>
	<path class="st8" d="M684,500.6c-35.9,21.9-71.8,43.8-107.7,65.7c38.9,0.6,77.7,1.1,116.6,1.7c23.3,0,46.6,0,69.8,0.1
		C736.5,545.6,710.2,523.1,684,500.6z"/>
	
		<linearGradient id="SVGID_3_" gradientUnits="userSpaceOnUse" x1="684.9881" y1="536.0004" x2="1366.4557" y2="536.0004" gradientTransform="matrix(1 0 0 -1 0 994)">
		<stop  offset="0" style="stop-color:#010023"/>
		<stop  offset="0.5333" style="stop-color:#009DE9"/>
	</linearGradient>
	<path class="st9" d="M717.6,516.1c-13.3-20.2-58.7-54.3-12-61.8s25.2,8.8,61.8,12.6c36.6,3.8-2.5-15.1,49.2-25.2s48-27.8,90.9,0
		c42.9,27.8,35.3,13.9,103.5-6.3c68.1-20.2,60.6-45.4,171.6-31.5s136.3-7.6,174.2,24c37.9,31.5-48,44.2-48,44.2
		c-89.6-2.5-27.8,17.7-89.6-2.5c-61.8-20.2-75.7-21.5-130-20.2s-44.2,35.3-84.6,39.7c-40.4,4.4-48-12-82-10.7
		c-34.1,1.3-44.2,28.4-104.7,28.7c-60.6,0.3-70.7-36-82-18S717.6,516.1,717.6,516.1z"/>
	<rect x="710.7" y="507" class="st8" width="13.9" height="30.6"/>
	<path class="st8" d="M1797.4,1333.3"/>
	<path class="st10" d="M843.4,255.9c-52.9-11.8-86.2-64.3-74.4-117.2c4.5-20.1,14.9-37.4,28.9-50.5c-22.6,13.3-39.9,35.6-46.1,63.3
		c-11.8,52.9,21.5,105.4,74.4,117.2c32.8,7.3,65.4-2.7,88.3-24C893.8,256.8,868.6,261.5,843.4,255.9z"/>
	<path class="st11" d="M722.1,609.6c-6.8,0.5-13.5,1-20.3,1.5c-0.2-9.6-0.3-19.1-0.5-28.7c6.9,0.4,13.8,0.8,20.8,1.2V609.6z"/>
	<path class="st12" d="M696.8,595.2c11.7-0.1,23.4-0.2,35.1-0.4"/>
	<line class="st13" x1="714.2" y1="615.8" x2="714.1" y2="562.2"/>
	<path class="st8" d="M770.6,532.7"/>
</g>
</svg>
