<?xml version="1.0" encoding="utf-8"?>
<!-- Generator: Adobe Illustrator 21.0.2, SVG Export Plug-In . SVG Version: 6.00 Build 0)  -->
<svg version="1.1" id="Слой_1" xmlns="http://www.w3.org/2000/svg" xmlns:xlink="http://www.w3.org/1999/xlink" x="0px" y="0px"
	 viewBox="0 0 1829.7 991.5" style="enable-background:new 0 0 1829.7 991.5;" xml:space="preserve">
<style type="text/css">
	.st0{fill:url(#SVGID_1_);}
	.st1{fill:url(#SVGID_2_);}
	.st2{fill:#050B3F;stroke:#030514;stroke-width:0.25;stroke-miterlimit:10;}
	.st3{fill:#011135;}
	.st4{fill:#5DB2B2;}
	.st5{fill:#070C21;}
	.st6{fill:#03071E;}
	.st7{fill:none;stroke:#030514;stroke-width:2;stroke-miterlimit:10;}
	.st8{fill:#030514;}
	.st9{fill:url(#SVGID_3_);}
	.st10{fill:#EBFF55;}
	.st11{fill:#63610B;stroke:#63610B;stroke-miterlimit:10;}
	.st12{fill:#030514;stroke:#030514;stroke-miterlimit:10;}
	.st13{fill:none;stroke:#030514;stroke-miterlimit:10;}
</style>
<g id="Слой_1_1_">
	
		<linearGradient id="SVGID_1_" gradientUnits="userSpaceOnUse" x1="486.1731" y1="-366.6922" x2="1433.8269" y2="1274.6921" gradientTransform="matrix(1 0 0 -1 0 994)">
		<stop  offset="0.1111" style="stop-color:#FFFFFF"/>
		<stop  offset="0.6533" style="stop-color:#010023"/>
	</linearGradient>
	<rect class="st0" width="1920" height="1080"/>
	
		<radialGradient id="SVGID_2_" cx="416.2918" cy="640.9866" r="147.088" gradientTransform="matrix(0.9259 -0.3777 -0.3777 -0.9259 278.0959 1072.8092)" gradientUnits="userSpaceOnUse">
		<stop  offset="0" style="stop-color:#FDDCA7"/>
		<stop  offset="0.2371" style="stop-color:#E8D9BD"/>
		<stop  offset="0.7301" style="stop-color:#B2D1F7"/>
		<stop  offset="0.7978" style="stop-color:#AAD0FF"/>
	</radialGradient>
	<path class="st1" d="M561.8,407.5c-86.1,35.1-183.2-3.2-216.8-85.6c-20.2-49.6-12.9-103.8,15-146.8
		c-64.1,43.2-92.3,124.3-63.1,195.8c33.6,82.4,130.7,120.7,216.8,85.6c34.3-14,61.7-37.5,80.1-66C584,397.1,573.3,402.8,561.8,407.5
		z"/>
</g>
<g id="Слой_2">
	<path class="st2" d="M1411,311.9c17.4-39.8,34.8-79.5,52.2-119.3c14.6-34.8,29.2-69.6,43.8-104.4c18.4-17.4,36.8-34.8,55.2-52.2
		c-0.1,8.6-0.1,20.6,0.8,35c0.6,9.1,2.7,38.4,15.3,91.2c8.2,34.4,14,58.8,26.8,90.8c10.5,26.3,19.4,44.1,35.5,71.3
		c46.8,79.3,58.5,107.4,136.2,160S1920,540,1920,540v540H0V465.4c141.4,55.4,237.1,47,299.2,28.1c43-13.1,65.3-29.9,142.1-50
		c90.8-23.8,120.2-16.1,160.6-41.3c32-19.9,70.9-60.4,92-152.1c23.2-31.6,46.5-63.2,69.7-94.7c22.8,27.2,45.6,54.4,68.4,81.6
		c14.5,43.6,35,71.2,51.7,88.7c8.2,8.5,29.8,36.9,66.7,65.3c24.5,18.9,77.4,58.8,157.9,75c35.2,7.1,103.2,20.8,167.3-13.1
		c1-0.5,1.7-0.9,2.5-1.3C1357.5,408,1396.2,341.4,1411,311.9z"/>
	<path class="st3" d="M-72.9,574.3c8.1-1.6,123.5-48.8,254.4-27.2s244.2,25.1,299.5,31.4c55.3,6.3,126.5-58.5,232.3-64.4
		c105.8-5.9,161,13.6,267.5,54.5s301.8,98.6,357.5,97.3c55.7-1.3,133.7-53.9,263.6-68.5s190.8-27.9,284.1,8.2s0,676.9,0,676.9H-73
		L-72.9,574.3L-72.9,574.3z"/>
	<path class="st4" d="M763.7,154.4c-23.2,31.6-46.5,63.2-69.7,94.7c-21.1,91.7-60,132.2-92,152.1c-40.4,25.2-69.8,17.6-160.6,41.3
		c-26.5,6.9-46.6,13.5-63.2,19.6c0,0,75-13.1,131.6-14.4s52.6-2.6,92.1-6.6c39.5-3.9,61.8-19.7,61.8-19.7l43.4-22.4l23.7-14.5
		l11.8-23.7l14.5-21.1l2.6-18.4l-15.8,9.2l9.2-17.1l9.2-21.1l11.8-14.5h-19.7l-9.2-7.9l11.8-9.2l6.6-13.2l-9.2-6.6l-13.2-6.6
		l13.2-9.2l9.2-13.2h-13.2h-10.5l15.8-21.1L763.7,154.4z"/>
	<path class="st4" d="M1465,190.4c-17.4,39.8-34.8,79.5-52.2,119.3c-14.3,28.4-50.8,91.4-124.7,134.8c0,0,22-0.6,57.5-12.4
		s36.8-5.3,89.5-27.6c52.6-22.4,64.4-61.8,64.4-61.8l9.3-28.9l18.4-23.7l13.2-18.4l3.9-25l19.6-17.1l-17-6.6h-13.2l13.2-25h-11.8
		l14.5-17.1l-6.6-14.5l-7.9-14.1l9.2-21.5c3-2.8,6-5.6,9-8.4c-1.7-2.5-3.4-4.9-5-7.4l-17.1-7.9c4.7-13.6,9.4-27.2,14.1-40.8
		c6.2-10.8,12.5-21.7,18.7-32.5c-18.4,17.4-36.8,34.8-55.2,52.2C1494.2,120.8,1479.6,155.6,1465,190.4z"/>
	<path class="st5" d="M-12.8,700.9c0,0,21-36.6,212.8-58.1c104.4-11.7,156-15.2,201.1-13.6c52.2,1.9,91.8,8.1,127,13.6
		c158.6,24.6,176.6,54.9,238.8,36.7c40.5-11.9,62.3-33.5,106.6-29.4c14.7,1.4,36.5,6.1,69.9,4.1c17.5-1.1,31.8-3.6,41.4-5.6
		c141.5-41.7,247.6-34.2,318.3-19.7c175.2,35.9,257.7,120.5,360.9,104.8c57-8.6,100.6-4.5,113.4-7.8c28.4-7.3,50.3-17.2,63.7-24.1
		c16.9-11.5,42.1-25.6,74.9-34c16.3-4.2,31.2-6.2,44-7c0,0,14.8,5.6,59.8,95.6l-59.3,304.1c0,0-1042.4,59.3-1495.5,24
		S-107.9,952-107.9,952L-12.8,700.9z"/>
	<path class="st5" d="M2035.8,414.9"/>
	<path class="st5" d="M1131.5,578.2l-3.6,9.6h3.6l-3.6,8.5h3.6l-3.6,7.9h3.6l-6.7,10.3h3.3l-3.3,13.3l12.7,6.4l11.5-7
		c-3.2-4.3-6.5-8.5-9.7-12.8c0.9-0.2,1.9-0.4,2.8-0.6c-1.7-3.8-3.5-7.6-5.2-11.4l4.2,1.2l-4.2-8.5h4.2c-2.1-2.4-4.2-4.9-6.4-7.3
		c0.7-0.2,1.4-0.4,2.1-0.6C1135.1,584.3,1133.3,581.3,1131.5,578.2z"/>
	<path class="st5" d="M1116.2,577.8l-3.6,9.6h3.6l-3.6,8.5h3.6l-3.6,7.9h3.6l-6.7,10.3h3.3l-3.3,13.3l12.7,6.4l11.5-7
		c-3.2-4.3-6.5-8.5-9.7-12.8c0.9-0.2,1.9-0.4,2.8-0.6c-1.7-3.8-3.5-7.6-5.2-11.4l4.2,1.2l-4.2-8.5h4.2c-2.1-2.4-4.2-4.9-6.4-7.3
		c0.7-0.2,1.4-0.4,2.1-0.6C1119.8,583.8,1118,580.8,1116.2,577.8z"/>
	<path class="st5" d="M1107.4,582.4l-3.6,9.6h3.6l-3.6,8.5h3.6l-3.6,7.9h3.6l-6.7,10.3h3.3l-3.3,13.3l12.7,6.4l11.5-7
		c-3.2-4.3-6.5-8.5-9.7-12.8c0.9-0.2,1.9-0.4,2.8-0.6c-1.7-3.8-3.5-7.6-5.2-11.4l4.2,1.2l-4.2-8.5h4.2c-2.1-2.4-4.2-4.9-6.4-7.3
		c0.7-0.2,1.4-0.4,2.1-0.6C1111,588.4,1109.2,585.4,1107.4,582.4z"/>
	<path class="st5" d="M1092.1,582l-3.6,9.6h3.6l-3.6,8.5h3.6l-3.6,7.9h3.6l-6.7,10.3h3.3l-3.3,13.3l12.7,6.4l11.5-7
		c-3.2-4.3-6.5-8.5-9.7-12.8c0.9-0.2,1.9-0.4,2.8-0.6c-1.7-3.8-3.5-7.6-5.2-11.4l4.2,1.2l-4.2-8.5h4.2c-2.1-2.4-4.2-4.9-6.4-7.3
		c0.7-0.2,1.4-0.4,2.1-0.6C1095.8,588,1093.9,585,1092.1,582z"/>
	<path class="st5" d="M1143.6,577.9l5.1,9l-3.6,0.6l4.9,7.8l-3.6,0.6l4.8,7.2l-3.6,0.6l8.2,9.1l-3.3,0.5l5.3,12.6l-11.6,8.3
		l-12.4-5.2c2.5-4.7,5.1-9.4,7.6-14.1c-1-0.1-1.9-0.1-2.9-0.2c1.1-4,2.3-8,3.4-12l-4,1.8l2.9-9l-4.2,0.7c1.7-2.7,3.4-5.5,5.2-8.2
		c-0.7-0.1-1.4-0.1-2.2-0.2C1140.9,584.4,1142.3,581.2,1143.6,577.9z"/>
	<path class="st5" d="M1158.6,575.1l5.1,9l-3.6,0.6l4.9,7.8l-3.6,0.6l4.8,7.2l-3.6,0.6l8.2,9.1l-3.3,0.5l5.3,12.6l-11.6,8.3
		l-12.4-5.2c2.5-4.7,5.1-9.4,7.6-14.1c-1-0.1-1.9-0.1-2.9-0.2c1.1-4,2.3-8,3.4-12l-4,1.8l2.9-9l-4.2,0.7c1.7-2.7,3.4-5.5,5.2-8.2
		c-0.7-0.1-1.4-0.1-2.2-0.2C1155.9,581.6,1157.3,578.4,1158.6,575.1z"/>
	<path class="st5" d="M1168,578.3l5.1,9l-3.6,0.6l4.9,7.8l-3.6,0.6l4.8,7.2l-3.6,0.6l8.2,9.1l-3.3,0.5l5.3,12.6l-11.6,8.3l-12.4-5.2
		c2.5-4.7,5.1-9.4,7.6-14.1c-1-0.1-1.9-0.1-2.9-0.2c1.1-4,2.3-8,3.4-12l-4,1.8l2.9-9l-4.2,0.7c1.7-2.7,3.4-5.5,5.2-8.2
		c-0.7-0.1-1.4-0.1-2.2-0.2C1165.4,584.8,1166.7,581.6,1168,578.3z"/>
	<path class="st5" d="M1183,575.6l5.1,9l-3.6,0.6l4.9,7.8l-3.6,0.6l4.8,7.2l-3.6,0.6l8.2,9.1l-3.3,0.5l5.3,12.6l-11.6,8.3l-12.4-5.2
		c2.5-4.7,5.1-9.4,7.6-14.1c-1-0.1-1.9-0.1-2.9-0.2c1.1-4,2.3-8,3.4-12l-4,1.8l2.9-9l-4.2,0.7c1.7-2.7,3.4-5.5,5.2-8.2
		c-0.7-0.1-1.4-0.1-2.2-0.2C1180.4,582.1,1181.7,578.8,1183,575.6z"/>
	<path class="st5" d="M1080,580.5l-3.6,9.6h3.6l-3.6,8.5h3.6l-3.6,7.9h3.6l-6.7,10.3h3.3l-3.3,13.3l12.7,6.4l11.5-7
		c-3.2-4.3-6.5-8.5-9.7-12.8c0.9-0.2,1.9-0.4,2.8-0.6c-1.7-3.8-3.5-7.6-5.2-11.4l4.2,1.2l-4.2-8.5h4.2c-2.1-2.4-4.2-4.9-6.4-7.3
		c0.7-0.2,1.4-0.4,2.1-0.6C1083.7,586.6,1081.8,583.5,1080,580.5z"/>
	<path class="st5" d="M1064.8,580.1l-3.6,9.6h3.6l-3.6,8.5h3.6l-3.6,7.9h3.6l-6.7,10.3h3.3l-3.3,13.3l12.7,6.4l11.5-7
		c-3.2-4.3-6.5-8.5-9.7-12.8c0.9-0.2,1.9-0.4,2.8-0.6c-1.7-3.8-3.5-7.6-5.2-11.4l4.2,1.2l-4.2-8.5h4.2c-2.1-2.4-4.2-4.9-6.4-7.3
		c0.7-0.2,1.4-0.4,2.1-0.6C1068.4,586.1,1066.6,583.1,1064.8,580.1z"/>
	<path class="st5" d="M1055.9,584.7l-3.6,9.6h3.6l-3.6,8.5h3.6l-3.6,7.9h3.6l-6.7,10.3h3.3l-3.3,13.3l12.7,6.4l11.5-7
		c-3.2-4.3-6.5-8.5-9.7-12.8c0.9-0.2,1.9-0.4,2.8-0.6c-1.7-3.8-3.5-7.6-5.2-11.4l4.2,1.2l-4.2-8.5h4.2c-2.1-2.4-4.2-4.9-6.4-7.3
		c0.7-0.2,1.4-0.4,2.1-0.6C1059.6,590.7,1057.8,587.7,1055.9,584.7z"/>
	<path class="st5" d="M1040.7,584.3l-3.6,9.6h3.6l-3.6,8.5h3.6l-3.6,7.9h3.6l-6.7,10.3h3.3l-3.3,13.3l12.7,6.4l11.5-7
		c-3.2-4.3-6.5-8.5-9.7-12.8c0.9-0.2,1.9-0.4,2.8-0.6c-1.7-3.8-3.5-7.6-5.2-11.4l4.2,1.2l-4.2-8.5h4.2c-2.1-2.4-4.2-4.9-6.4-7.3
		c0.7-0.2,1.4-0.4,2.1-0.6C1044.3,590.3,1042.5,587.3,1040.7,584.3z"/>
	<path class="st5" d="M1235.4,578.7l-3.6,9.6h3.6l-3.6,8.5h3.6l-3.6,7.9h3.6l-6.7,10.3h3.3l-3.3,13.3l12.7,6.4l11.5-7
		c-3.2-4.3-6.5-8.5-9.7-12.8c0.9-0.2,1.9-0.4,2.8-0.6c-1.7-3.8-3.5-7.6-5.2-11.4l4.2,1.2l-4.2-8.5h4.2c-2.1-2.4-4.2-4.9-6.4-7.3
		c0.7-0.2,1.4-0.4,2.1-0.6C1239.1,584.7,1237.2,581.7,1235.4,578.7z"/>
	<path class="st5" d="M1220.2,578.2l-3.6,9.6h3.6l-3.6,8.5h3.6l-3.6,7.9h3.6l-6.7,10.3h3.3l-3.3,13.3l12.7,6.4l11.5-7
		c-3.2-4.3-6.5-8.5-9.7-12.8c0.9-0.2,1.9-0.4,2.8-0.6c-1.7-3.8-3.5-7.6-5.2-11.4l4.2,1.2l-4.2-8.5h4.2c-2.1-2.4-4.2-4.9-6.4-7.3
		c0.7-0.2,1.4-0.4,2.1-0.6C1223.8,584.3,1222,581.3,1220.2,578.2z"/>
	<path class="st5" d="M1211.3,582.8l-3.6,9.6h3.6l-3.6,8.5h3.6l-3.6,7.9h3.6l-6.7,10.3h3.3l-3.3,13.3l12.7,6.4l11.5-7
		c-3.2-4.3-6.5-8.5-9.7-12.8c0.9-0.2,1.9-0.4,2.8-0.6c-1.7-3.8-3.5-7.6-5.2-11.4l4.2,1.2l-4.2-8.5h4.2c-2.1-2.4-4.2-4.9-6.4-7.3
		c0.7-0.2,1.4-0.4,2.1-0.6C1215,588.8,1213.2,585.8,1211.3,582.8z"/>
	<path class="st5" d="M1196.1,582.4l-3.6,9.6h3.6l-3.6,8.5h3.6l-3.6,7.9h3.6l-6.7,10.3h3.3l-3.3,13.3l12.7,6.4l11.5-7
		c-3.2-4.3-6.5-8.5-9.7-12.8c0.9-0.2,1.9-0.4,2.8-0.6c-1.7-3.8-3.5-7.6-5.2-11.4l4.2,1.2l-4.2-8.5h4.2c-2.1-2.4-4.2-4.9-6.4-7.3
		c0.7-0.2,1.4-0.4,2.1-0.6C1199.7,588.4,1197.9,585.4,1196.1,582.4z"/>
	<path class="st5" d="M1286.9,576.8l-3.6,9.6h3.6l-3.6,8.5h3.6l-3.6,7.9h3.6l-6.7,10.3h3.3l-3.3,13.3l12.7,6.4l11.5-7
		c-3.2-4.3-6.5-8.5-9.7-12.8c0.9-0.2,1.9-0.4,2.8-0.6c-1.7-3.8-3.5-7.6-5.2-11.4l4.2,1.2l-4.2-8.5h4.2c-2.1-2.4-4.2-4.9-6.4-7.3
		c0.7-0.2,1.4-0.4,2.1-0.6C1290.5,582.8,1288.7,579.8,1286.9,576.8z"/>
	<path class="st5" d="M1271.6,576.4l-3.6,9.6h3.6l-3.6,8.5h3.6l-3.6,7.9h3.6l-6.7,10.3h3.3L1265,626l12.7,6.4l11.5-7
		c-3.2-4.3-6.5-8.5-9.7-12.8c0.9-0.2,1.9-0.4,2.8-0.6c-1.7-3.8-3.5-7.6-5.2-11.4l4.2,1.2l-4.2-8.5h4.2c-2.1-2.4-4.2-4.9-6.4-7.3
		c0.7-0.2,1.4-0.4,2.1-0.6C1275.2,582.4,1273.4,579.4,1271.6,576.4z"/>
	<path class="st5" d="M1262.8,581l-3.6,9.6h3.6l-3.6,8.5h3.6l-3.6,7.9h3.6l-6.7,10.3h3.3l-3.3,13.3l12.7,6.4l11.5-7
		c-3.2-4.3-6.5-8.5-9.7-12.8c0.9-0.2,1.9-0.4,2.8-0.6c-1.7-3.8-3.5-7.6-5.2-11.4l4.2,1.2l-4.2-8.5h4.2c-2.1-2.4-4.2-4.9-6.4-7.3
		c0.7-0.2,1.4-0.4,2.1-0.6C1266.4,587,1264.6,584,1262.8,581z"/>
	<path class="st5" d="M1247.5,580.5l-3.6,9.6h3.6l-3.6,8.5h3.6l-3.6,7.9h3.6l-6.7,10.3h3.3l-3.3,13.3l12.7,6.4l11.5-7
		c-3.2-4.3-6.5-8.5-9.7-12.8c0.9-0.2,1.9-0.4,2.8-0.6c-1.7-3.8-3.5-7.6-5.2-11.4l4.2,1.2l-4.2-8.5h4.2c-2.1-2.4-4.2-4.9-6.4-7.3
		c0.7-0.2,1.4-0.4,2.1-0.6C1251.2,586.6,1249.3,583.5,1247.5,580.5z"/>
	<path class="st5" d="M1133.5,567.2l-3.6,9.6h3.6l-3.6,8.5h3.6l-3.6,7.9h3.6l-6.7,10.3h3.3l-3.3,13.3l12.7,6.4l11.5-7
		c-3.2-4.3-6.5-8.5-9.7-12.8c0.9-0.2,1.9-0.4,2.8-0.6c-1.7-3.8-3.5-7.6-5.2-11.4l4.2,1.2l-4.2-8.5h4.2c-2.1-2.4-4.2-4.9-6.4-7.3
		c0.7-0.2,1.4-0.4,2.1-0.6C1137.1,573.3,1135.3,570.3,1133.5,567.2z"/>
	<path class="st5" d="M1118.2,566.8l-3.6,9.6h3.6l-3.6,8.5h3.6l-3.6,7.9h3.6l-6.7,10.3h3.3l-3.3,13.3l12.7,6.4l11.5-7
		c-3.2-4.3-6.5-8.5-9.7-12.8c0.9-0.2,1.9-0.4,2.8-0.6c-1.7-3.8-3.5-7.6-5.2-11.4l4.2,1.2l-4.2-8.5h4.2c-2.1-2.4-4.2-4.9-6.4-7.3
		c0.7-0.2,1.4-0.4,2.1-0.6C1121.8,572.8,1120,569.8,1118.2,566.8z"/>
	<path class="st5" d="M1109.4,571.4l-3.6,9.6h3.6l-3.6,8.5h3.6l-3.6,7.9h3.6l-6.7,10.3h3.3l-3.3,13.3l12.7,6.4l11.5-7
		c-3.2-4.3-6.5-8.5-9.7-12.8c0.9-0.2,1.9-0.4,2.8-0.6c-1.7-3.8-3.5-7.6-5.2-11.4l4.2,1.2l-4.2-8.5h4.2c-2.1-2.4-4.2-4.9-6.4-7.3
		c0.7-0.2,1.4-0.4,2.1-0.6C1113,577.4,1111.2,574.4,1109.4,571.4z"/>
	<path class="st5" d="M1094.1,571l-3.6,9.6h3.6l-3.6,8.5h3.6l-3.6,7.9h3.6l-6.7,10.3h3.3l-3.3,13.3l12.7,6.4l11.5-7
		c-3.2-4.3-6.5-8.5-9.7-12.8c0.9-0.2,1.9-0.4,2.8-0.6c-1.7-3.8-3.5-7.6-5.2-11.4l4.2,1.2l-4.2-8.5h4.2c-2.1-2.4-4.2-4.9-6.4-7.3
		c0.7-0.2,1.4-0.4,2.1-0.6C1097.8,577,1095.9,574,1094.1,571z"/>
	<path class="st5" d="M1361.8,592.9l-6.1,8.3l3.5,1l-5.8,7.1l3.5,1l-5.7,6.6l3.5,1l-9.2,8.1l3.2,0.9l-6.9,11.9l10.5,9.6l13-3.6
		c-1.9-5-3.9-10-5.8-15c1,0,1.9,0.1,2.9,0.1c-0.6-4.1-1.3-8.2-1.9-12.4l3.7,2.3l-1.7-9.3l4.1,1.2c-1.4-2.9-2.7-5.9-4.1-8.8
		c0.7,0,1.5,0,2.2,0C1363.7,599.7,1362.8,596.3,1361.8,592.9z"/>
	<path class="st5" d="M1347.3,588.3l-6.1,8.3l3.5,1l-5.8,7.1l3.5,1l-5.7,6.6l3.5,1l-9.2,8.1l3.2,0.9l-6.9,11.9l10.5,9.6l13-3.6
		c-1.9-5-3.9-10-5.8-15c1,0,1.9,0.1,2.9,0.1c-0.6-4.1-1.3-8.2-1.9-12.4l3.7,2.3l-1.7-9.3l4.1,1.2c-1.4-2.9-2.7-5.9-4.1-8.8
		c0.7,0,1.5,0,2.2,0C1349.2,595.1,1348.2,591.7,1347.3,588.3z"/>
	<path class="st5" d="M1337.6,590.3l-6.1,8.3l3.5,1l-5.8,7.1l3.5,1l-5.7,6.6l3.5,1l-9.2,8.1l3.2,0.9l-6.9,11.9l10.5,9.6l13-3.6
		c-1.9-5-3.9-10-5.8-15c1,0,1.9,0.1,2.9,0.1c-0.6-4.1-1.3-8.2-1.9-12.4l3.7,2.3l-1.7-9.3l4.1,1.2c-1.4-2.9-2.7-5.9-4.1-8.8
		c0.7,0,1.5,0,2.2,0C1339.4,597.1,1338.5,593.7,1337.6,590.3z"/>
	<path class="st5" d="M1323,585.7l-6.1,8.3l3.5,1l-5.8,7.1l3.5,1l-5.7,6.6l3.5,1l-9.2,8.1l3.2,0.9l-6.9,11.9l10.5,9.6l13-3.6
		c-1.9-5-3.9-10-5.8-15c1,0,1.9,0.1,2.9,0.1c-0.6-4.1-1.3-8.2-1.9-12.4l3.7,2.3l-1.7-9.3l4.1,1.2c-1.4-2.9-2.7-5.9-4.1-8.8
		c0.7,0,1.5,0,2.2,0C1324.9,592.5,1323.9,589.1,1323,585.7z"/>
	<path class="st5" d="M1432.5,620.6l-7.6,6.9l3.2,1.7l-7.1,5.9l3.2,1.7l-6.8,5.3l3.2,1.7l-10.6,6.1l3,1.5l-9,10.3l8.4,11.5l13.4-1
		c-0.9-5.3-1.9-10.5-2.8-15.8c0.9,0.2,1.9,0.5,2.8,0.7c0.2-4.2,0.3-8.3,0.5-12.5l3.2,3l0.1-9.5l3.8,1.9c-0.8-3.1-1.5-6.3-2.3-9.4
		c0.7,0.2,1.4,0.3,2.1,0.5C1433,627.6,1432.7,624.1,1432.5,620.6z"/>
	<path class="st5" d="M1419.1,613.3l-7.6,6.9l3.2,1.7l-7.1,5.9l3.2,1.7l-6.8,5.3l3.2,1.7l-10.6,6.1l3,1.5l-9,10.3l8.4,11.5l13.4-1
		c-0.9-5.3-1.9-10.5-2.8-15.8c0.9,0.2,1.9,0.5,2.8,0.7c0.2-4.2,0.3-8.3,0.5-12.5l3.2,3l0.1-9.5l3.8,1.9c-0.8-3.1-1.5-6.3-2.3-9.4
		c0.7,0.2,1.4,0.3,2.1,0.5C1419.6,620.3,1419.3,616.8,1419.1,613.3z"/>
	<path class="st5" d="M1409.1,613.3l-7.6,6.9l3.2,1.7l-7.1,5.9l3.2,1.7l-6.8,5.3l3.2,1.7l-10.6,6.1l3,1.5l-9,10.3l8.4,11.5l13.4-1
		c-0.9-5.3-1.9-10.5-2.8-15.8c0.9,0.2,1.9,0.5,2.8,0.7c0.2-4.2,0.3-8.3,0.5-12.5l3.2,3l0.1-9.5l3.8,1.9c-0.8-3.1-1.5-6.3-2.3-9.4
		c0.7,0.2,1.4,0.3,2.1,0.5C1409.6,620.4,1409.4,616.9,1409.1,613.3z"/>
	<path class="st5" d="M1395.8,606l-7.6,6.9l3.2,1.7l-7.1,5.9l3.2,1.7l-6.8,5.3l3.2,1.7l-10.6,6.1l3,1.5l-9,10.3l8.4,11.5l13.4-1
		c-0.9-5.3-1.9-10.5-2.8-15.8c0.9,0.2,1.9,0.5,2.8,0.7c0.2-4.2,0.3-8.3,0.5-12.5l3.2,3l0.1-9.5l3.8,1.9c-0.8-3.1-1.5-6.3-2.3-9.4
		c0.7,0.2,1.4,0.3,2.1,0.5C1396.3,613,1396,609.5,1395.8,606z"/>
	<path class="st5" d="M1386.4,617.5l-3.6,9.6h3.6l-3.6,8.5h3.6l-3.6,7.9h3.6l-6.7,10.3h3.3l-3.3,13.3l12.7,6.4l11.5-7
		c-3.2-4.3-6.5-8.5-9.7-12.8c0.9-0.2,1.9-0.4,2.8-0.6c-1.7-3.8-3.5-7.6-5.2-11.4l4.2,1.2l-4.2-8.5h4.2c-2.1-2.4-4.2-4.9-6.4-7.3
		c0.7-0.2,1.4-0.4,2.1-0.6C1390.1,623.5,1388.3,620.5,1386.4,617.5z"/>
	<path class="st5" d="M1371.2,617l-3.6,9.6h3.6l-3.6,8.5h3.6l-3.6,7.9h3.6l-6.7,10.3h3.3l-3.3,13.3l12.7,6.4l11.5-7
		c-3.2-4.3-6.5-8.5-9.7-12.8c0.9-0.2,1.9-0.4,2.8-0.6c-1.7-3.8-3.5-7.6-5.2-11.4l4.2,1.2l-4.2-8.5h4.2c-2.1-2.4-4.2-4.9-6.4-7.3
		c0.7-0.2,1.4-0.4,2.1-0.6C1374.8,623.1,1373,620.1,1371.2,617z"/>
	<path class="st5" d="M1362.4,621.6l-3.6,9.6h3.6l-3.6,8.5h3.6l-3.6,7.9h3.6l-6.7,10.3h3.3l-3.3,13.3l12.7,6.4l11.5-7
		c-3.2-4.3-6.5-8.5-9.7-12.8c0.9-0.2,1.9-0.4,2.8-0.6c-1.7-3.8-3.5-7.6-5.2-11.4l4.2,1.2l-4.2-8.5h4.2c-2.1-2.4-4.2-4.9-6.4-7.3
		c0.7-0.2,1.4-0.4,2.1-0.6C1366,627.6,1364.2,624.6,1362.4,621.6z"/>
	<path class="st5" d="M1347.1,621.2l-3.6,9.6h3.6l-3.6,8.5h3.6l-3.6,7.9h3.6l-6.7,10.3h3.3l-3.3,13.3l12.7,6.4l11.5-7
		c-3.2-4.3-6.5-8.5-9.7-12.8c0.9-0.2,1.9-0.4,2.8-0.6c-1.7-3.8-3.5-7.6-5.2-11.4l4.2,1.2l-4.2-8.5h4.2c-2.1-2.4-4.2-4.9-6.4-7.3
		c0.7-0.2,1.4-0.4,2.1-0.6C1350.7,627.2,1348.9,624.2,1347.1,621.2z"/>
	<path class="st5" d="M1464.2,626.6l-3.6,9.6h3.6l-3.6,8.5h3.6l-3.6,7.9h3.6l-6.7,10.3h3.3l-3.3,13.3l12.7,6.4l11.5-7
		c-3.2-4.3-6.5-8.5-9.7-12.8c0.9-0.2,1.9-0.4,2.8-0.6c-1.7-3.8-3.5-7.6-5.2-11.4l4.2,1.2l-4.2-8.5h4.2c-2.1-2.4-4.2-4.9-6.4-7.3
		c0.7-0.2,1.4-0.4,2.1-0.6C1467.8,632.7,1466,629.6,1464.2,626.6z"/>
	<path class="st5" d="M1448.9,626.2l-3.6,9.6h3.6l-3.6,8.5h3.6l-3.6,7.9h3.6l-6.7,10.3h3.3l-3.3,13.3l12.7,6.4l11.5-7
		c-3.2-4.3-6.5-8.5-9.7-12.8c0.9-0.2,1.9-0.4,2.8-0.6c-1.7-3.8-3.5-7.6-5.2-11.4l4.2,1.2l-4.2-8.5h4.2c-2.1-2.4-4.2-4.9-6.4-7.3
		c0.7-0.2,1.4-0.4,2.1-0.6C1452.6,632.2,1450.8,629.2,1448.9,626.2z"/>
	<path class="st5" d="M1440.1,630.8l-3.6,9.6h3.6l-3.6,8.5h3.6l-3.6,7.9h3.6l-6.7,10.3h3.3l-3.3,13.3l12.7,6.4l11.5-7
		c-3.2-4.3-6.5-8.5-9.7-12.8c0.9-0.2,1.9-0.4,2.8-0.6c-1.7-3.8-3.5-7.6-5.2-11.4l4.2,1.2l-4.2-8.5h4.2c-2.1-2.4-4.2-4.9-6.4-7.3
		c0.7-0.2,1.4-0.4,2.1-0.6C1443.7,636.8,1441.9,633.8,1440.1,630.8z"/>
	<path class="st5" d="M1424.9,630.4l-3.6,9.6h3.6l-3.6,8.5h3.6l-3.6,7.9h3.6l-6.7,10.3h3.3l-3.3,13.3l12.7,6.4l11.5-7
		c-3.2-4.3-6.5-8.5-9.7-12.8c0.9-0.2,1.9-0.4,2.8-0.6c-1.7-3.8-3.5-7.6-5.2-11.4l4.2,1.2l-4.2-8.5h4.2c-2.1-2.4-4.2-4.9-6.4-7.3
		c0.7-0.2,1.4-0.4,2.1-0.6C1428.5,636.4,1426.7,633.4,1424.9,630.4z"/>
	<path class="st5" d="M1517,654.6l-3.6,9.6h3.6l-3.6,8.5h3.6l-3.6,7.9h3.6l-6.7,10.3h3.3l-3.3,13.3l12.7,6.4l11.5-7
		c-3.2-4.3-6.5-8.5-9.7-12.8c0.9-0.2,1.9-0.4,2.8-0.6c-1.7-3.8-3.5-7.6-5.2-11.4l4.2,1.2l-4.2-8.5h4.2c-2.1-2.4-4.2-4.9-6.4-7.3
		c0.7-0.2,1.4-0.4,2.1-0.6C1520.7,660.6,1518.8,657.6,1517,654.6z"/>
	<path class="st5" d="M1501.8,654.1l-3.6,9.6h3.6l-3.6,8.5h3.6l-3.6,7.9h3.6l-6.7,10.3h3.3l-3.3,13.3l12.7,6.4l11.5-7
		c-3.2-4.3-6.5-8.5-9.7-12.8c0.9-0.2,1.9-0.4,2.8-0.6c-1.7-3.8-3.5-7.6-5.2-11.4l4.2,1.2l-4.2-8.5h4.2c-2.1-2.4-4.2-4.9-6.4-7.3
		c0.7-0.2,1.4-0.4,2.1-0.6C1505.4,660.1,1503.6,657.1,1501.8,654.1z"/>
	<path class="st5" d="M1492.9,658.7l-3.6,9.6h3.6l-3.6,8.5h3.6l-3.6,7.9h3.6l-6.7,10.3h3.3l-3.3,13.3l12.7,6.4l11.5-7
		c-3.2-4.3-6.5-8.5-9.7-12.8c0.9-0.2,1.9-0.4,2.8-0.6c-1.7-3.8-3.5-7.6-5.2-11.4l4.2,1.2l-4.2-8.5h4.2c-2.1-2.4-4.2-4.9-6.4-7.3
		c0.7-0.2,1.4-0.4,2.1-0.6C1496.6,664.7,1494.8,661.7,1492.9,658.7z"/>
	<path class="st5" d="M1477.7,658.3l-3.6,9.6h3.6l-3.6,8.5h3.6l-3.6,7.9h3.6l-6.7,10.3h3.3l-3.3,13.3l12.7,6.4l11.5-7
		c-3.2-4.3-6.5-8.5-9.7-12.8c0.9-0.2,1.9-0.4,2.8-0.6c-1.7-3.8-3.5-7.6-5.2-11.4l4.2,1.2l-4.2-8.5h4.2c-2.1-2.4-4.2-4.9-6.4-7.3
		c0.7-0.2,1.4-0.4,2.1-0.6C1481.3,664.3,1479.5,661.3,1477.7,658.3z"/>
	<path class="st5" d="M1573.9,675.6l-6.5,8l3.4,1.2l-6.2,6.9l3.4,1.2l-6,6.3l3.4,1.2l-9.6,7.6l3.2,1.1l-7.4,11.6l10,10.1l13.1-3
		c-1.7-5.1-3.4-10.1-5.1-15.2c1,0.1,1.9,0.2,2.9,0.3c-0.4-4.1-0.9-8.3-1.3-12.4l3.6,2.5l-1.3-9.4l4,1.4c-1.2-3-2.5-6-3.7-9
		c0.7,0,1.5,0.1,2.2,0.1C1575.4,682.5,1574.6,679,1573.9,675.6z"/>
	<path class="st5" d="M1559.6,670.3l-6.5,8l3.4,1.2l-6.2,6.9l3.4,1.2l-6,6.3l3.4,1.2l-9.6,7.6l3.2,1.1l-7.4,11.6l10,10.1l13.1-3
		c-1.7-5.1-3.4-10.1-5.1-15.2c1,0.1,1.9,0.2,2.9,0.3c-0.4-4.1-0.9-8.3-1.3-12.4l3.6,2.5l-1.3-9.4l4,1.4c-1.2-3-2.5-6-3.7-9
		c0.7,0,1.5,0.1,2.2,0.1C1561.1,677.2,1560.3,673.8,1559.6,670.3z"/>
	<path class="st5" d="M1549.7,671.8l-6.5,8l3.4,1.2l-6.2,6.9l3.4,1.2l-6,6.3l3.4,1.2l-9.6,7.6l3.2,1.1l-7.4,11.6l10,10.1l13.1-3
		c-1.7-5.1-3.4-10.1-5.1-15.2c1,0.1,1.9,0.2,2.9,0.3c-0.4-4.1-0.9-8.3-1.3-12.4l3.6,2.5l-1.3-9.4l4,1.4c-1.2-3-2.5-6-3.7-9
		c0.7,0,1.5,0.1,2.2,0.1C1551.2,678.7,1550.5,675.3,1549.7,671.8z"/>
	<path class="st5" d="M1535.4,666.6l-6.5,8l3.4,1.2l-6.2,6.9l3.4,1.2l-6,6.3l3.4,1.2l-9.6,7.6l3.2,1.1l-7.4,11.6l10,10.1l13.1-3
		c-1.7-5.1-3.4-10.1-5.1-15.2c1,0.1,1.9,0.2,2.9,0.3c-0.4-4.1-0.9-8.3-1.3-12.4l3.6,2.5l-1.3-9.4l4,1.4c-1.2-3-2.5-6-3.7-9
		c0.7,0,1.5,0.1,2.2,0.1C1536.9,673.4,1536.2,670,1535.4,666.6z"/>
	<path class="st5" d="M1029.5,592.6l-3.6,9.6h3.6l-3.6,8.5h3.6l-3.6,7.9h3.6l-6.7,10.3h3.3l-3.3,13.3l12.7,6.4l11.5-7
		c-3.2-4.3-6.5-8.5-9.7-12.8c0.9-0.2,1.9-0.4,2.8-0.6c-1.7-3.8-3.5-7.6-5.2-11.4l4.2,1.2l-4.2-8.5h4.2c-2.1-2.4-4.2-4.9-6.4-7.3
		c0.7-0.2,1.4-0.4,2.1-0.6C1033.1,598.7,1031.3,595.6,1029.5,592.6z"/>
	<path class="st5" d="M1014.2,592.2l-3.6,9.6h3.6l-3.6,8.5h3.6l-3.6,7.9h3.6l-6.7,10.3h3.3l-3.3,13.3l12.7,6.4l11.5-7
		c-3.2-4.3-6.5-8.5-9.7-12.8c0.9-0.2,1.9-0.4,2.8-0.6c-1.7-3.8-3.5-7.6-5.2-11.4l4.2,1.2l-4.2-8.5h4.2c-2.1-2.4-4.2-4.9-6.4-7.3
		c0.7-0.2,1.4-0.4,2.1-0.6C1017.9,598.2,1016,595.2,1014.2,592.2z"/>
	<path class="st5" d="M1005.4,596.8l-3.6,9.6h3.6l-3.6,8.5h3.6l-3.6,7.9h3.6l-6.7,10.3h3.3l-3.3,13.3l12.7,6.4l11.5-7
		c-3.2-4.3-6.5-8.5-9.7-12.8c0.9-0.2,1.9-0.4,2.8-0.6c-1.7-3.8-3.5-7.6-5.2-11.4l4.2,1.2l-4.2-8.5h4.2c-2.1-2.4-4.2-4.9-6.4-7.3
		c0.7-0.2,1.4-0.4,2.1-0.6C1009,602.8,1007.2,599.8,1005.4,596.8z"/>
	<path class="st5" d="M990.1,596.4l-3.6,9.6h3.6l-3.6,8.5h3.6l-3.6,7.9h3.6l-6.7,10.3h3.3l-3.3,13.3l12.7,6.4l11.5-7
		c-3.2-4.3-6.5-8.5-9.7-12.8c0.9-0.2,1.9-0.4,2.8-0.6c-1.7-3.8-3.5-7.6-5.2-11.4l4.2,1.2l-4.2-8.5h4.2c-2.1-2.4-4.2-4.9-6.4-7.3
		c0.7-0.2,1.4-0.4,2.1-0.6C993.8,602.4,992,599.4,990.1,596.4z"/>
	<path class="st5" d="M961.3,609.8l-3.6,9.6h3.6l-3.6,8.5h3.6l-3.6,7.9h3.6l-6.7,10.3h3.3l-3.3,13.3l12.7,6.4l11.5-7
		c-3.2-4.3-6.5-8.5-9.7-12.8c0.9-0.2,1.9-0.4,2.8-0.6c-1.7-3.8-3.5-7.6-5.2-11.4l4.2,1.2l-4.2-8.5h4.2c-2.1-2.4-4.2-4.9-6.4-7.3
		c0.7-0.2,1.4-0.4,2.1-0.6C964.9,615.8,963.1,612.8,961.3,609.8z"/>
	<path class="st5" d="M946,609.4l-3.6,9.6h3.6l-3.6,8.5h3.6l-3.6,7.9h3.6l-6.7,10.3h3.3l-3.3,13.3l12.7,6.4l11.5-7
		c-3.2-4.3-6.5-8.5-9.7-12.8c0.9-0.2,1.9-0.4,2.8-0.6c-1.7-3.8-3.5-7.6-5.2-11.4l4.2,1.2l-4.2-8.5h4.2c-2.1-2.4-4.2-4.9-6.4-7.3
		c0.7-0.2,1.4-0.4,2.1-0.6C949.7,615.4,947.8,612.4,946,609.4z"/>
	<path class="st5" d="M937.2,614l-3.6,9.6h3.6l-3.6,8.5h3.6l-3.6,7.9h3.6l-6.7,10.3h3.3l-3.3,13.3l12.7,6.4l11.5-7
		c-3.2-4.3-6.5-8.5-9.7-12.8c0.9-0.2,1.9-0.4,2.8-0.6c-1.7-3.8-3.5-7.6-5.2-11.4l4.2,1.2l-4.2-8.5h4.2c-2.1-2.4-4.2-4.9-6.4-7.3
		c0.7-0.2,1.4-0.4,2.1-0.6C940.8,620,939,617,937.2,614z"/>
	<path class="st5" d="M921.9,613.5l-3.6,9.6h3.6l-3.6,8.5h3.6l-3.6,7.9h3.6l-6.7,10.3h3.3l-3.3,13.3l12.7,6.4l11.5-7
		c-3.2-4.3-6.5-8.5-9.7-12.8c0.9-0.2,1.9-0.4,2.8-0.6c-1.7-3.8-3.5-7.6-5.2-11.4l4.2,1.2l-4.2-8.5h4.2c-2.1-2.4-4.2-4.9-6.4-7.3
		c0.7-0.2,1.4-0.4,2.1-0.6C925.6,619.5,923.8,616.5,921.9,613.5z"/>
	<path class="st5" d="M889.2,616.6l-3.6,9.6h3.6l-3.6,8.5h3.6l-3.6,7.9h3.6l-6.7,10.3h3.3l-3.3,13.3l12.7,6.4l11.5-7
		c-3.2-4.3-6.5-8.5-9.7-12.8c0.9-0.2,1.9-0.4,2.8-0.6c-1.7-3.8-3.5-7.6-5.2-11.4l4.2,1.2l-4.2-8.5h4.2c-2.1-2.4-4.2-4.9-6.4-7.3
		c0.7-0.2,1.4-0.4,2.1-0.6C892.8,622.6,891,619.6,889.2,616.6z"/>
	<path class="st5" d="M873.9,616.1l-3.6,9.6h3.6l-3.6,8.5h3.6l-3.6,7.9h3.6l-6.7,10.3h3.3l-3.3,13.3l12.7,6.4l11.5-7
		c-3.2-4.3-6.5-8.5-9.7-12.8c0.9-0.2,1.9-0.4,2.8-0.6c-1.7-3.8-3.5-7.6-5.2-11.4l4.2,1.2l-4.2-8.5h4.2c-2.1-2.4-4.2-4.9-6.4-7.3
		c0.7-0.2,1.4-0.4,2.1-0.6C877.6,622.1,875.7,619.1,873.9,616.1z"/>
	<path class="st5" d="M865.1,620.7l-3.6,9.6h3.6l-3.6,8.5h3.6l-3.6,7.9h3.6l-6.7,10.3h3.3l-3.3,13.3l12.7,6.4l11.5-7
		c-3.2-4.3-6.5-8.5-9.7-12.8c0.9-0.2,1.9-0.4,2.8-0.6c-1.7-3.8-3.5-7.6-5.2-11.4l4.2,1.2l-4.2-8.5h4.2c-2.1-2.4-4.2-4.9-6.4-7.3
		c0.7-0.2,1.4-0.4,2.1-0.6C868.7,626.7,866.9,623.7,865.1,620.7z"/>
	<path class="st5" d="M849.8,620.3l-3.6,9.6h3.6l-3.6,8.5h3.6l-3.6,7.9h3.6l-6.7,10.3h3.3l-3.3,13.3l12.7,6.4l11.5-7
		c-3.2-4.3-6.5-8.5-9.7-12.8c0.9-0.2,1.9-0.4,2.8-0.6c-1.7-3.8-3.5-7.6-5.2-11.4l4.2,1.2l-4.2-8.5h4.2c-2.1-2.4-4.2-4.9-6.4-7.3
		c0.7-0.2,1.4-0.4,2.1-0.6C853.5,626.3,851.7,623.3,849.8,620.3z"/>
	<path class="st5" d="M980.4,614.6l-3.6,9.6h3.6l-3.6,8.5h3.6l-3.6,7.9h3.6l-6.7,10.3h3.3l-3.3,13.3l12.7,6.4l11.5-7
		c-3.2-4.3-6.5-8.5-9.7-12.8c0.9-0.2,1.9-0.4,2.8-0.6c-1.7-3.8-3.5-7.6-5.2-11.4l4.2,1.2l-4.2-8.5h4.2c-2.1-2.4-4.2-4.9-6.4-7.3
		c0.7-0.2,1.4-0.4,2.1-0.6C984.1,620.6,982.3,617.6,980.4,614.6z"/>
	<path class="st5" d="M965.2,614.2l-3.6,9.6h3.6l-3.6,8.5h3.6l-3.6,7.9h3.6l-6.7,10.3h3.3l-3.3,13.3l12.7,6.4l11.5-7
		c-3.2-4.3-6.5-8.5-9.7-12.8c0.9-0.2,1.9-0.4,2.8-0.6c-1.7-3.8-3.5-7.6-5.2-11.4l4.2,1.2l-4.2-8.5h4.2c-2.1-2.4-4.2-4.9-6.4-7.3
		c0.7-0.2,1.4-0.4,2.1-0.6C968.8,620.2,967,617.2,965.2,614.2z"/>
	<path class="st5" d="M956.4,618.7l-3.6,9.6h3.6l-3.6,8.5h3.6l-3.6,7.9h3.6l-6.7,10.3h3.3l-3.3,13.3l12.7,6.4l11.5-7
		c-3.2-4.3-6.5-8.5-9.7-12.8c0.9-0.2,1.9-0.4,2.8-0.6c-1.7-3.8-3.5-7.6-5.2-11.4l4.2,1.2l-4.2-8.5h4.2c-2.1-2.4-4.2-4.9-6.4-7.3
		c0.7-0.2,1.4-0.4,2.1-0.6C960,624.8,958.2,621.7,956.4,618.7z"/>
	<path class="st5" d="M941.1,618.3l-3.6,9.6h3.6l-3.6,8.5h3.6l-3.6,7.9h3.6l-6.7,10.3h3.3l-3.3,13.3l12.7,6.4l11.5-7
		c-3.2-4.3-6.5-8.5-9.7-12.8c0.9-0.2,1.9-0.4,2.8-0.6c-1.7-3.8-3.5-7.6-5.2-11.4l4.2,1.2l-4.2-8.5h4.2c-2.1-2.4-4.2-4.9-6.4-7.3
		c0.7-0.2,1.4-0.4,2.1-0.6C944.7,624.3,942.9,621.3,941.1,618.3z"/>
	<path class="st5" d="M1615.4,685.4l-3.6,9.6h3.6l-3.6,8.5h3.6l-3.6,7.9h3.6l-6.7,10.3h3.3l-3.3,13.3l12.7,6.4l11.5-7
		c-3.2-4.3-6.5-8.5-9.7-12.8c0.9-0.2,1.9-0.4,2.8-0.6c-1.7-3.8-3.5-7.6-5.2-11.4l4.2,1.2l-4.2-8.5h4.2c-2.1-2.4-4.2-4.9-6.4-7.3
		c0.7-0.2,1.4-0.4,2.1-0.6C1619,691.4,1617.2,688.4,1615.4,685.4z"/>
	<path class="st5" d="M1600.2,685l-3.6,9.6h3.6l-3.6,8.5h3.6l-3.6,7.9h3.6l-6.7,10.3h3.3l-3.3,13.3l12.7,6.4l11.5-7
		c-3.2-4.3-6.5-8.5-9.7-12.8c0.9-0.2,1.9-0.4,2.8-0.6c-1.7-3.8-3.5-7.6-5.2-11.4l4.2,1.2l-4.2-8.5h4.2c-2.1-2.4-4.2-4.9-6.4-7.3
		c0.7-0.2,1.4-0.4,2.1-0.6C1603.8,691,1602,688,1600.2,685z"/>
	<path class="st5" d="M1591.3,689.6l-3.6,9.6h3.6l-3.6,8.5h3.6l-3.6,7.9h3.6l-6.7,10.3h3.3l-3.3,13.3l12.7,6.4l11.5-7
		c-3.2-4.3-6.5-8.5-9.7-12.8c0.9-0.2,1.9-0.4,2.8-0.6c-1.7-3.8-3.5-7.6-5.2-11.4l4.2,1.2l-4.2-8.5h4.2c-2.1-2.4-4.2-4.9-6.4-7.3
		c0.7-0.2,1.4-0.4,2.1-0.6C1595,695.6,1593.1,692.6,1591.3,689.6z"/>
	<path class="st5" d="M1576.1,689.1l-3.6,9.6h3.6l-3.6,8.5h3.6l-3.6,7.9h3.6l-6.7,10.3h3.3l-3.3,13.3l12.7,6.4l11.5-7
		c-3.2-4.3-6.5-8.5-9.7-12.8c0.9-0.2,1.9-0.4,2.8-0.6c-1.7-3.8-3.5-7.6-5.2-11.4l4.2,1.2l-4.2-8.5h4.2c-2.1-2.4-4.2-4.9-6.4-7.3
		c0.7-0.2,1.4-0.4,2.1-0.6C1579.7,695.1,1577.9,692.1,1576.1,689.1z"/>
	<path class="st5" d="M1674.6,685.7l-3.6,9.6h3.6l-3.6,8.5h3.6l-3.6,7.9h3.6L1668,722h3.3l-3.3,13.3l12.7,6.4l11.5-7
		c-3.2-4.3-6.5-8.5-9.7-12.8c0.9-0.2,1.9-0.4,2.8-0.6c-1.7-3.8-3.5-7.6-5.2-11.4l4.2,1.2l-4.2-8.5h4.2c-2.1-2.4-4.2-4.9-6.4-7.3
		c0.7-0.2,1.4-0.4,2.1-0.6C1678.3,691.7,1676.5,688.7,1674.6,685.7z"/>
	<path class="st5" d="M1659.4,685.3l-3.6,9.6h3.6l-3.6,8.5h3.6l-3.6,7.9h3.6l-6.7,10.3h3.3l-3.3,13.3l12.7,6.4l11.5-7
		c-3.2-4.3-6.5-8.5-9.7-12.8c0.9-0.2,1.9-0.4,2.8-0.6c-1.7-3.8-3.5-7.6-5.2-11.4l4.2,1.2l-4.2-8.5h4.2c-2.1-2.4-4.2-4.9-6.4-7.3
		c0.7-0.2,1.4-0.4,2.1-0.6C1663,691.3,1661.2,688.3,1659.4,685.3z"/>
	<path class="st5" d="M1650.6,689.9l-3.6,9.6h3.6l-3.6,8.5h3.6l-3.6,7.9h3.6l-6.7,10.3h3.3l-3.3,13.3l12.7,6.4l11.5-7
		c-3.2-4.3-6.5-8.5-9.7-12.8c0.9-0.2,1.9-0.4,2.8-0.6c-1.7-3.8-3.5-7.6-5.2-11.4l4.2,1.2l-4.2-8.5h4.2c-2.1-2.4-4.2-4.9-6.4-7.3
		c0.7-0.2,1.4-0.4,2.1-0.6C1654.2,695.9,1652.4,692.9,1650.6,689.9z"/>
	<path class="st5" d="M1635.3,689.4l-3.6,9.6h3.6l-3.6,8.5h3.6l-3.6,7.9h3.6l-6.7,10.3h3.3l-3.3,13.3l12.7,6.4l11.5-7
		c-3.2-4.3-6.5-8.5-9.7-12.8c0.9-0.2,1.9-0.4,2.8-0.6c-1.7-3.8-3.5-7.6-5.2-11.4l4.2,1.2l-4.2-8.5h4.2c-2.1-2.4-4.2-4.9-6.4-7.3
		c0.7-0.2,1.4-0.4,2.1-0.6C1638.9,695.5,1637.1,692.4,1635.3,689.4z"/>
	<path class="st5" d="M1732,680.3l-3.6,9.6h3.6l-3.6,8.5h3.6l-3.6,7.9h3.6l-6.7,10.3h3.3l-3.3,13.3l12.7,6.4l11.5-7
		c-3.2-4.3-6.5-8.5-9.7-12.8c0.9-0.2,1.9-0.4,2.8-0.6c-1.7-3.8-3.5-7.6-5.2-11.4l4.2,1.2l-4.2-8.5h4.2c-2.1-2.4-4.2-4.9-6.4-7.3
		c0.7-0.2,1.4-0.4,2.1-0.6C1735.7,686.3,1733.9,683.3,1732,680.3z"/>
	<path class="st5" d="M1716.8,679.8l-3.6,9.6h3.6l-3.6,8.5h3.6l-3.6,7.9h3.6l-6.7,10.3h3.3l-3.3,13.3l12.7,6.4l11.5-7
		c-3.2-4.3-6.5-8.5-9.7-12.8c0.9-0.2,1.9-0.4,2.8-0.6c-1.7-3.8-3.5-7.6-5.2-11.4l4.2,1.2l-4.2-8.5h4.2c-2.1-2.4-4.2-4.9-6.4-7.3
		c0.7-0.2,1.4-0.4,2.1-0.6C1720.4,685.8,1718.6,682.8,1716.8,679.8z"/>
	<path class="st5" d="M1708,684.4l-3.6,9.6h3.6l-3.6,8.5h3.6l-3.6,7.9h3.6l-6.7,10.3h3.3l-3.3,13.3l12.7,6.4l11.5-7
		c-3.2-4.3-6.5-8.5-9.7-12.8c0.9-0.2,1.9-0.4,2.8-0.6c-1.7-3.8-3.5-7.6-5.2-11.4l4.2,1.2l-4.2-8.5h4.2c-2.1-2.4-4.2-4.9-6.4-7.3
		c0.7-0.2,1.4-0.4,2.1-0.6C1711.6,690.4,1709.8,687.4,1708,684.4z"/>
	<path class="st5" d="M1692.7,684l-3.6,9.6h3.6l-3.6,8.5h3.6l-3.6,7.9h3.6l-6.7,10.3h3.3l-3.3,13.3l12.7,6.4l11.5-7
		c-3.2-4.3-6.5-8.5-9.7-12.8c0.9-0.2,1.9-0.4,2.8-0.6c-1.7-3.8-3.5-7.6-5.2-11.4l4.2,1.2l-4.2-8.5h4.2c-2.1-2.4-4.2-4.9-6.4-7.3
		c0.7-0.2,1.4-0.4,2.1-0.6C1696.3,690,1694.5,687,1692.7,684z"/>
	<path class="st5" d="M613.3,612.7l-3.6,9.6h3.6l-3.6,8.5h3.6l-3.6,7.9h3.6l-6.7,10.3h3.3l-3.3,13.3l12.7,6.4l11.5-7
		c-3.2-4.3-6.5-8.5-9.7-12.8c0.9-0.2,1.9-0.4,2.8-0.6c-1.7-3.8-3.5-7.6-5.2-11.4l4.2,1.2l-4.2-8.5h4.2c-2.1-2.4-4.2-4.9-6.4-7.3
		c0.7-0.2,1.4-0.4,2.1-0.6C616.9,618.7,615.1,615.7,613.3,612.7z"/>
	<path class="st5" d="M598,612.2l-3.6,9.6h3.6l-3.6,8.5h3.6l-3.6,7.9h3.6l-6.7,10.3h3.3l-3.3,13.3l12.7,6.4l11.5-7
		c-3.2-4.3-6.5-8.5-9.7-12.8c0.9-0.2,1.9-0.4,2.8-0.6c-1.7-3.8-3.5-7.6-5.2-11.4l4.2,1.2l-4.2-8.5h4.2c-2.1-2.4-4.2-4.9-6.4-7.3
		c0.7-0.2,1.4-0.4,2.1-0.6C601.7,618.2,599.8,615.2,598,612.2z"/>
	<path class="st5" d="M589.2,616.8l-3.6,9.6h3.6l-3.6,8.5h3.6l-3.6,7.9h3.6l-6.7,10.3h3.3l-3.3,13.3l12.7,6.4l11.5-7
		c-3.2-4.3-6.5-8.5-9.7-12.8c0.9-0.2,1.9-0.4,2.8-0.6c-1.7-3.8-3.5-7.6-5.2-11.4l4.2,1.2l-4.2-8.5h4.2c-2.1-2.4-4.2-4.9-6.4-7.3
		c0.7-0.2,1.4-0.4,2.1-0.6C592.8,622.8,591,619.8,589.2,616.8z"/>
	<path class="st5" d="M573.9,616.4l-3.6,9.6h3.6l-3.6,8.5h3.6l-3.6,7.9h3.6l-6.7,10.3h3.3l-3.3,13.3l12.7,6.4l11.5-7
		c-3.2-4.3-6.5-8.5-9.7-12.8c0.9-0.2,1.9-0.4,2.8-0.6c-1.7-3.8-3.5-7.6-5.2-11.4l4.2,1.2l-4.2-8.5h4.2c-2.1-2.4-4.2-4.9-6.4-7.3
		c0.7-0.2,1.4-0.4,2.1-0.6C577.6,622.4,575.8,619.4,573.9,616.4z"/>
	<path class="st5" d="M564.5,598.9l-3.6,9.6h3.6l-3.6,8.5h3.6l-3.6,7.9h3.6l-6.7,10.3h3.3l-3.3,13.3l12.7,6.4l11.5-7
		c-3.2-4.3-6.5-8.5-9.7-12.8c0.9-0.2,1.9-0.4,2.8-0.6c-1.7-3.8-3.5-7.6-5.2-11.4l4.2,1.2l-4.2-8.5h4.2c-2.1-2.4-4.2-4.9-6.4-7.3
		c0.7-0.2,1.4-0.4,2.1-0.6C568.2,604.9,566.3,601.9,564.5,598.9z"/>
	<path class="st5" d="M549.3,598.5l-3.6,9.6h3.6l-3.6,8.5h3.6l-3.6,7.9h3.6l-6.7,10.3h3.3l-3.3,13.3l12.7,6.4l11.5-7
		c-3.2-4.3-6.5-8.5-9.7-12.8c0.9-0.2,1.9-0.4,2.8-0.6c-1.7-3.8-3.5-7.6-5.2-11.4l4.2,1.2l-4.2-8.5h4.2c-2.1-2.4-4.2-4.9-6.4-7.3
		c0.7-0.2,1.4-0.4,2.1-0.6C552.9,604.5,551.1,601.5,549.3,598.5z"/>
	<path class="st5" d="M540.4,603.1l-3.6,9.6h3.6l-3.6,8.5h3.6l-3.6,7.9h3.6l-6.7,10.3h3.3l-3.3,13.3l12.7,6.4l11.5-7
		c-3.2-4.3-6.5-8.5-9.7-12.8c0.9-0.2,1.9-0.4,2.8-0.6c-1.7-3.8-3.5-7.6-5.2-11.4l4.2,1.2l-4.2-8.5h4.2c-2.1-2.4-4.2-4.9-6.4-7.3
		c0.7-0.2,1.4-0.4,2.1-0.6C544.1,609.1,542.3,606.1,540.4,603.1z"/>
	<path class="st5" d="M525.2,602.7l-3.6,9.6h3.6l-3.6,8.5h3.6l-3.6,7.9h3.6l-6.7,10.3h3.3l-3.3,13.3l12.7,6.4l11.5-7
		c-3.2-4.3-6.5-8.5-9.7-12.8c0.9-0.2,1.9-0.4,2.8-0.6c-1.7-3.8-3.5-7.6-5.2-11.4l4.2,1.2l-4.2-8.5h4.2c-2.1-2.4-4.2-4.9-6.4-7.3
		c0.7-0.2,1.4-0.4,2.1-0.6C528.8,608.7,527,605.7,525.2,602.7z"/>
	<path class="st5" d="M464,592.5l-6.5,8l3.4,1.2l-6.2,6.9l3.4,1.2l-6,6.3l3.4,1.2l-9.6,7.6l3.2,1.1l-7.4,11.5l10,10.1l13.1-3
		c-1.7-5.1-3.4-10.1-5.1-15.2c1,0.1,1.9,0.2,2.9,0.3c-0.4-4.1-0.9-8.3-1.3-12.4l3.6,2.5l-1.3-9.4l4,1.4c-1.2-3-2.4-6-3.7-9
		c0.7,0.1,1.5,0.1,2.2,0.2C465.5,599.4,464.8,595.9,464,592.5z"/>
	<path class="st5" d="M449.7,587.2l-6.5,8l3.4,1.2l-6.2,6.9l3.4,1.2l-6,6.3l3.4,1.2l-9.6,7.6l3.2,1.1l-7.4,11.5l10,10.1l13.1-3
		c-1.7-5.1-3.4-10.1-5.1-15.2c1,0.1,1.9,0.2,2.9,0.3c-0.4-4.1-0.9-8.3-1.3-12.4l3.6,2.5l-1.3-9.4l4,1.4c-1.2-3-2.4-6-3.7-9
		c0.7,0.1,1.5,0.1,2.2,0.2C451.2,594.1,450.5,590.6,449.7,587.2z"/>
	<path class="st5" d="M439.9,588.7l-6.5,8l3.4,1.2l-6.2,6.9l3.4,1.2l-6,6.3l3.4,1.2l-9.6,7.6l3.2,1.1l-7.4,11.5l10,10.1l13.1-3
		c-1.7-5.1-3.4-10.1-5.1-15.2c1,0.1,1.9,0.2,2.9,0.3c-0.4-4.1-0.9-8.3-1.3-12.4l3.6,2.5l-1.3-9.4l4,1.4c-1.2-3-2.4-6-3.7-9
		c0.7,0.1,1.5,0.1,2.2,0.2C441.4,595.6,440.6,592.1,439.9,588.7z"/>
	<path class="st5" d="M425.6,583.4l-6.5,8l3.4,1.2l-6.2,6.9l3.4,1.2l-6,6.3l3.4,1.2l-9.6,7.6l3.2,1.1l-7.4,11.5l10,10.1l13.1-3
		c-1.7-5.1-3.4-10.1-5.1-15.2c1,0.1,1.9,0.2,2.9,0.3c-0.4-4.1-0.9-8.3-1.3-12.4l3.6,2.5l-1.3-9.4l4,1.4c-1.2-3-2.4-6-3.7-9
		c0.7,0.1,1.5,0.1,2.2,0.2C427.1,590.3,426.3,586.8,425.6,583.4z"/>
	<path class="st5" d="M397.8,586.7l-3.6,9.6h3.6l-3.6,8.5h3.6l-3.6,7.9h3.6l-6.7,10.3h3.3l-3.3,13.3l12.7,6.4l11.5-7
		c-3.2-4.3-6.5-8.5-9.7-12.8c0.9-0.2,1.9-0.4,2.8-0.6c-1.7-3.8-3.5-7.6-5.2-11.4l4.2,1.2l-4.2-8.5h4.2c-2.1-2.4-4.2-4.9-6.4-7.3
		c0.7-0.2,1.4-0.4,2.1-0.6C401.4,592.7,399.6,589.7,397.8,586.7z"/>
	<path class="st5" d="M382.6,586.2l-3.6,9.6h3.6l-3.6,8.5h3.6l-3.6,7.9h3.6l-6.7,10.3h3.3l-3.3,13.3l12.7,6.4l11.5-7
		c-3.2-4.3-6.5-8.5-9.7-12.8c0.9-0.2,1.9-0.4,2.8-0.6c-1.7-3.8-3.5-7.6-5.2-11.4l4.2,1.2l-4.2-8.5h4.2c-2.1-2.4-4.2-4.9-6.4-7.3
		c0.7-0.2,1.4-0.4,2.1-0.6C386.2,592.2,384.4,589.2,382.6,586.2z"/>
	<path class="st5" d="M373.7,590.8l-3.6,9.6h3.6l-3.6,8.5h3.6l-3.6,7.9h3.6l-6.7,10.3h3.3l-3.3,13.3l12.7,6.4l11.5-7
		c-3.2-4.3-6.5-8.5-9.7-12.8c0.9-0.2,1.9-0.4,2.8-0.6c-1.7-3.8-3.5-7.6-5.2-11.4l4.2,1.2l-4.2-8.5h4.2c-2.1-2.4-4.2-4.9-6.4-7.3
		c0.7-0.2,1.4-0.4,2.1-0.6C377.3,596.8,375.5,593.8,373.7,590.8z"/>
	<path class="st5" d="M358.5,590.4l-3.6,9.6h3.6l-3.6,8.5h3.6l-3.6,7.9h3.6l-6.7,10.3h3.3l-3.3,13.3l12.7,6.4l11.5-7
		c-3.2-4.3-6.5-8.5-9.7-12.8c0.9-0.2,1.9-0.4,2.8-0.6c-1.7-3.8-3.5-7.6-5.2-11.4l4.2,1.2l-4.2-8.5h4.2c-2.1-2.4-4.2-4.9-6.4-7.3
		c0.7-0.2,1.4-0.4,2.1-0.6C362.1,596.4,360.3,593.4,358.5,590.4z"/>
	<path class="st5" d="M333.1,583.5l-3.6,9.6h3.6l-3.6,8.5h3.6l-3.6,7.9h3.6l-6.7,10.3h3.3l-3.3,13.3l12.7,6.4l11.5-7
		c-3.2-4.3-6.5-8.5-9.7-12.8c0.9-0.2,1.9-0.4,2.8-0.6c-1.7-3.8-3.5-7.6-5.2-11.4l4.2,1.2l-4.2-8.5h4.2c-2.1-2.4-4.2-4.9-6.4-7.3
		c0.7-0.2,1.4-0.4,2.1-0.6C336.7,589.5,334.9,586.5,333.1,583.5z"/>
	<path class="st5" d="M317.9,583.1l-3.6,9.6h3.6l-3.6,8.5h3.6l-3.6,7.9h3.6l-6.7,10.3h3.3l-3.3,13.3l12.7,6.4l11.5-7
		c-3.2-4.3-6.5-8.5-9.7-12.8c0.9-0.2,1.9-0.4,2.8-0.6c-1.7-3.8-3.5-7.6-5.2-11.4l4.2,1.2l-4.2-8.5h4.2c-2.1-2.4-4.2-4.9-6.4-7.3
		c0.7-0.2,1.4-0.4,2.1-0.6C321.5,589.1,319.7,586.1,317.9,583.1z"/>
	<path class="st5" d="M309,587.7l-3.6,9.6h3.6l-3.6,8.5h3.6l-3.6,7.9h3.6l-6.7,10.3h3.3l-3.3,13.3l12.7,6.4l11.5-7
		c-3.2-4.3-6.5-8.5-9.7-12.8c0.9-0.2,1.9-0.4,2.8-0.6c-1.7-3.8-3.5-7.6-5.2-11.4l4.2,1.2l-4.2-8.5h4.2c-2.1-2.4-4.2-4.9-6.4-7.3
		c0.7-0.2,1.4-0.4,2.1-0.6C312.7,593.7,310.8,590.7,309,587.7z"/>
	<path class="st5" d="M293.8,587.2l-3.6,9.6h3.6l-3.6,8.5h3.6l-3.6,7.9h3.6l-6.7,10.3h3.3l-3.3,13.3l12.7,6.4l11.5-7
		c-3.2-4.3-6.5-8.5-9.7-12.8c0.9-0.2,1.9-0.4,2.8-0.6c-1.7-3.8-3.5-7.6-5.2-11.4l4.2,1.2l-4.2-8.5h4.2c-2.1-2.4-4.2-4.9-6.4-7.3
		c0.7-0.2,1.4-0.4,2.1-0.6C297.4,593.2,295.6,590.2,293.8,587.2z"/>
	<path class="st5" d="M270.2,592.6l-3.6,9.6h3.6l-3.6,8.5h3.6l-3.6,7.9h3.6l-6.7,10.3h3.3l-3.3,13.3l12.7,6.4l11.5-7
		c-3.2-4.3-6.5-8.5-9.7-12.8c0.9-0.2,1.9-0.4,2.8-0.6c-1.7-3.8-3.5-7.6-5.2-11.4l4.2,1.2l-4.2-8.5h4.2c-2.1-2.4-4.2-4.9-6.4-7.3
		c0.7-0.2,1.4-0.4,2.1-0.6C273.9,598.6,272.1,595.6,270.2,592.6z"/>
	<path class="st5" d="M255,592.2l-3.6,9.6h3.6l-3.6,8.5h3.6l-3.6,7.9h3.6l-6.7,10.3h3.3l-3.3,13.3l12.7,6.4l11.5-7
		c-3.2-4.3-6.5-8.5-9.7-12.8c0.9-0.2,1.9-0.4,2.8-0.6c-1.7-3.8-3.5-7.6-5.2-11.4l4.2,1.2l-4.2-8.5h4.2c-2.1-2.4-4.2-4.9-6.4-7.3
		c0.7-0.2,1.4-0.4,2.1-0.6C258.6,598.2,256.8,595.2,255,592.2z"/>
	<path class="st5" d="M246.2,596.8l-3.6,9.6h3.6l-3.6,8.5h3.6l-3.6,7.9h3.6l-6.7,10.3h3.3l-3.3,13.3l12.7,6.4l11.5-7
		c-3.2-4.3-6.5-8.5-9.7-12.8c0.9-0.2,1.9-0.4,2.8-0.6c-1.7-3.8-3.5-7.6-5.2-11.4l4.2,1.2l-4.2-8.5h4.2c-2.1-2.4-4.2-4.9-6.4-7.3
		c0.7-0.2,1.4-0.4,2.1-0.6C249.8,602.8,248,599.8,246.2,596.8z"/>
	<path class="st5" d="M230.9,596.3l-3.6,9.6h3.6l-3.6,8.5h3.6l-3.6,7.9h3.6l-6.7,10.3h3.3l-3.3,13.3l12.7,6.4l11.5-7
		c-3.2-4.3-6.5-8.5-9.7-12.8c0.9-0.2,1.9-0.4,2.8-0.6c-1.7-3.8-3.5-7.6-5.2-11.4l4.2,1.2l-4.2-8.5h4.2c-2.1-2.4-4.2-4.9-6.4-7.3
		c0.7-0.2,1.4-0.4,2.1-0.6C234.6,602.3,232.7,599.3,230.9,596.3z"/>
	<path class="st5" d="M205.5,590.9l-2.2,10.1l3.6-0.5l-2.3,8.9l3.6-0.5l-2.4,8.3l3.6-0.5l-5.1,11.2l3.3-0.5l-1.3,13.7l13.5,4.4
		l10.3-8.6c-3.8-3.7-7.6-7.5-11.5-11.2c0.9-0.4,1.8-0.7,2.7-1.1c-2.3-3.5-4.6-7-6.9-10.5l4.4,0.6l-5.4-7.8l4.2-0.6
		c-2.5-2.1-4.9-4.2-7.4-6.3c0.7-0.3,1.3-0.6,2-0.9C210,596.3,207.8,593.6,205.5,590.9z"/>
	<path class="st5" d="M190.4,592.8l-2.2,10.1l3.6-0.5l-2.3,8.9l3.6-0.5l-2.4,8.3l3.6-0.5l-5.1,11.2l3.3-0.5l-1.3,13.7l13.5,4.4
		l10.3-8.6c-3.8-3.7-7.6-7.5-11.5-11.2c0.9-0.4,1.8-0.7,2.7-1.1c-2.3-3.5-4.6-7-6.9-10.5l4.4,0.6l-5.4-7.8l4.2-0.6
		c-2.5-2.1-4.9-4.2-7.4-6.3c0.7-0.3,1.3-0.6,2-0.9C194.9,598.2,192.6,595.5,190.4,592.8z"/>
	<path class="st5" d="M182.3,598.6l-2.2,10.1l3.6-0.5l-2.3,8.9l3.6-0.5l-2.4,8.3l3.6-0.5l-5.1,11.2l3.3-0.5l-1.3,13.7l13.5,4.4
		l10.3-8.6c-3.8-3.7-7.6-7.5-11.5-11.2c0.9-0.4,1.8-0.7,2.7-1.1c-2.3-3.5-4.6-7-6.9-10.5l4.4,0.6l-5.4-7.8l4.2-0.6
		c-2.5-2.1-4.9-4.2-7.4-6.3c0.7-0.3,1.3-0.6,2-0.9C186.8,604,184.6,601.3,182.3,598.6z"/>
	<path class="st5" d="M167.2,600.5l-2.2,10.1l3.6-0.5l-2.3,8.9l3.6-0.5l-2.4,8.3l3.6-0.5l-5.1,11.2l3.3-0.5l-1.3,13.7l13.5,4.4
		l10.3-8.6c-3.8-3.7-7.6-7.5-11.5-11.2c0.9-0.4,1.8-0.7,2.7-1.1c-2.3-3.5-4.6-7-6.9-10.5l4.4,0.6l-5.4-7.8l4.2-0.6
		c-2.5-2.1-4.9-4.2-7.4-6.3c0.7-0.3,1.3-0.6,2-0.9C171.7,605.9,169.4,603.2,167.2,600.5z"/>
	<path class="st5" d="M161.9,604.8l-3.6,9.6h3.6l-3.6,8.5h3.6l-3.6,7.9h3.6l-6.7,10.3h3.3l-3.3,13.3l12.7,6.4l11.5-7
		c-3.2-4.3-6.5-8.5-9.7-12.8c0.9-0.2,1.9-0.4,2.8-0.6c-1.7-3.8-3.5-7.6-5.2-11.4l4.2,1.2l-4.2-8.5h4.2c-2.1-2.4-4.2-4.9-6.4-7.3
		c0.7-0.2,1.4-0.4,2.1-0.6C165.6,610.8,163.8,607.8,161.9,604.8z"/>
	<path class="st5" d="M146.7,604.4l-3.6,9.6h3.6l-3.6,8.5h3.6l-3.6,7.9h3.6l-6.7,10.3h3.3L140,654l12.7,6.4l11.5-7
		c-3.2-4.3-6.5-8.5-9.7-12.8c0.9-0.2,1.9-0.4,2.8-0.6c-1.7-3.8-3.5-7.6-5.2-11.4l4.2,1.2l-4.2-8.5h4.2c-2.1-2.4-4.2-4.9-6.4-7.3
		c0.7-0.2,1.4-0.4,2.1-0.6C150.3,610.4,148.5,607.4,146.7,604.4z"/>
	<path class="st5" d="M137.9,608.9l-3.6,9.6h3.6l-3.6,8.5h3.6l-3.6,7.9h3.6l-6.7,10.3h3.3l-3.3,13.3l12.7,6.4l11.5-7
		c-3.2-4.3-6.5-8.5-9.7-12.8c0.9-0.2,1.9-0.4,2.8-0.6c-1.7-3.8-3.5-7.6-5.2-11.4l4.2,1.2l-4.2-8.5h4.2c-2.1-2.4-4.2-4.9-6.4-7.3
		c0.7-0.2,1.4-0.4,2.1-0.6C141.5,614.9,139.7,611.9,137.9,608.9z"/>
	<path class="st5" d="M122.6,608.5l-3.6,9.6h3.6l-3.6,8.5h3.6l-3.6,7.9h3.6l-6.7,10.3h3.3l-3.3,13.3l12.7,6.4l11.5-7
		c-3.2-4.3-6.5-8.5-9.7-12.8c0.9-0.2,1.9-0.4,2.8-0.6c-1.7-3.8-3.5-7.6-5.2-11.4l4.2,1.2l-4.2-8.5h4.2c-2.1-2.4-4.2-4.9-6.4-7.3
		c0.7-0.2,1.4-0.4,2.1-0.6C126.2,614.5,124.4,611.5,122.6,608.5z"/>
	<path class="st5" d="M105.3,611.1l-3.6,9.6h3.6l-3.6,8.5h3.6l-3.6,7.9h3.6l-6.7,10.3h3.3l-3.3,13.3l12.7,6.4l11.5-7
		c-3.2-4.3-6.5-8.5-9.7-12.8c0.9-0.2,1.9-0.4,2.8-0.6c-1.7-3.8-3.5-7.6-5.2-11.4l4.2,1.2l-4.2-8.5h4.2c-2.1-2.4-4.2-4.9-6.4-7.3
		c0.7-0.2,1.4-0.4,2.1-0.6C109,617.1,107.2,614.1,105.3,611.1z"/>
	<path class="st5" d="M90.1,610.7l-3.6,9.6h3.6l-3.6,8.5h3.6l-3.6,7.9h3.6L83.4,647h3.3l-3.3,13.3l12.7,6.4l11.5-7
		c-3.2-4.3-6.5-8.5-9.7-12.8c0.9-0.2,1.9-0.4,2.8-0.6c-1.7-3.8-3.5-7.6-5.2-11.4l4.2,1.2l-4.2-8.5h4.2c-2.1-2.4-4.2-4.9-6.4-7.3
		c0.7-0.2,1.4-0.4,2.1-0.6C93.7,616.7,91.9,613.7,90.1,610.7z"/>
	<path class="st5" d="M81.3,615.3l-3.6,9.6h3.6l-3.6,8.5h3.6l-3.6,7.9h3.6l-6.7,10.3h3.3l-3.3,13.3l12.7,6.4l11.5-7
		c-3.2-4.3-6.5-8.5-9.7-12.8c0.9-0.2,1.9-0.4,2.8-0.6c-1.7-3.8-3.5-7.6-5.2-11.4l4.2,1.2l-4.2-8.5h4.2c-2.1-2.4-4.2-4.9-6.4-7.3
		c0.7-0.2,1.4-0.4,2.1-0.6C84.9,621.3,83.1,618.3,81.3,615.3z"/>
	<path class="st5" d="M66,614.9l-3.6,9.6H66l-3.6,8.5H66l-3.6,7.9H66l-6.7,10.3h3.3l-3.3,13.3l12.7,6.4l11.5-7
		c-3.2-4.3-6.5-8.5-9.7-12.8c0.9-0.2,1.9-0.4,2.8-0.6c-1.7-3.8-3.5-7.6-5.2-11.4l4.2,1.2l-4.2-8.5h4.2c-2.1-2.4-4.2-4.9-6.4-7.3
		c0.7-0.2,1.4-0.4,2.1-0.6C69.6,620.9,67.8,617.9,66,614.9z"/>
	<path class="st5" d="M45.6,620.4l-2.3,10l3.6-0.5l-2.5,8.9l3.6-0.5l-2.5,8.3l3.6-0.5l-5.2,11.1l3.3-0.4l-1.5,13.6l13.5,4.6
		l10.5-8.5c-3.8-3.8-7.5-7.6-11.3-11.4c0.9-0.3,1.8-0.7,2.7-1c-2.2-3.5-4.5-7-6.7-10.6l4.4,0.6l-5.3-7.8l4.2-0.6
		c-2.4-2.1-4.8-4.3-7.3-6.4c0.7-0.3,1.3-0.6,2-0.8C50,625.9,47.8,623.2,45.6,620.4z"/>
	<path class="st5" d="M30.5,622l-2.3,10l3.6-0.5l-2.5,8.9l3.6-0.5l-2.5,8.3l3.6-0.5l-5.2,11.1l3.3-0.4L30.6,672l13.5,4.6l10.5-8.5
		c-3.8-3.8-7.5-7.6-11.3-11.4c0.9-0.3,1.8-0.7,2.7-1c-2.2-3.5-4.5-7-6.7-10.6l4.4,0.6l-5.3-7.8l4.2-0.6c-2.4-2.1-4.8-4.3-7.3-6.4
		c0.7-0.3,1.3-0.6,2-0.8C34.9,627.5,32.7,624.8,30.5,622z"/>
	<path class="st5" d="M22.3,627.8l-2.3,10l3.6-0.5l-2.5,8.9l3.6-0.5l-2.5,8.3l3.6-0.5l-5.2,11.1l3.3-0.4l-1.5,13.6l13.5,4.6
		l10.5-8.5c-3.8-3.8-7.5-7.6-11.3-11.4c0.9-0.3,1.8-0.7,2.7-1c-2.2-3.5-4.5-7-6.7-10.6l4.4,0.6l-5.3-7.8l4.2-0.6
		c-2.4-2.1-4.8-4.3-7.3-6.4c0.7-0.3,1.3-0.6,2-0.8C26.7,633.2,24.5,630.5,22.3,627.8z"/>
	<path class="st5" d="M7.2,629.4l-2.3,10l3.6-0.5L6,647.8l3.6-0.5L7,655.6l3.6-0.5l-5.2,11.1l3.3-0.4l-1.5,13.6l13.5,4.6l10.5-8.5
		c-3.8-3.8-7.5-7.6-11.3-11.4c0.9-0.3,1.8-0.7,2.7-1c-2.2-3.5-4.5-7-6.7-10.6l4.4,0.6l-5.3-7.8l4.2-0.6c-2.4-2.1-4.8-4.3-7.3-6.4
		c0.7-0.3,1.3-0.6,2-0.8C11.6,634.9,9.4,632.1,7.2,629.4z"/>
	<path class="st5" d="M877.2,590.9l-3.6,9.6h3.6l-3.6,8.5h3.6l-3.6,7.9h3.6l-6.7,10.3h3.3l-3.3,13.3l12.7,6.4l11.5-7
		c-3.2-4.3-6.5-8.5-9.7-12.8c0.9-0.2,1.9-0.4,2.8-0.6c-1.7-3.8-3.5-7.6-5.2-11.4l4.2,1.2l-4.2-8.5h4.2c-2.1-2.4-4.2-4.9-6.4-7.3
		c0.7-0.2,1.4-0.4,2.1-0.6C880.8,596.9,879,593.9,877.2,590.9z"/>
	<path class="st5" d="M862,590.5l-3.6,9.6h3.6l-3.6,8.5h3.6l-3.6,7.9h3.6l-6.7,10.3h3.3l-3.3,13.3l12.7,6.4l11.5-7
		c-3.2-4.3-6.5-8.5-9.7-12.8c0.9-0.2,1.9-0.4,2.8-0.6c-1.7-3.8-3.5-7.6-5.2-11.4l4.2,1.2l-4.2-8.5h4.2c-2.1-2.4-4.2-4.9-6.4-7.3
		c0.7-0.2,1.4-0.4,2.1-0.6C865.6,596.5,863.8,593.5,862,590.5z"/>
	<path class="st5" d="M853.1,595l-3.6,9.6h3.6l-3.6,8.5h3.6l-3.6,7.9h3.6l-6.7,10.3h3.3l-3.3,13.3l12.7,6.4l11.5-7
		c-3.2-4.3-6.5-8.5-9.7-12.8c0.9-0.2,1.9-0.4,2.8-0.6c-1.7-3.8-3.5-7.6-5.2-11.4l4.2,1.2l-4.2-8.5h4.2c-2.1-2.4-4.2-4.9-6.4-7.3
		c0.7-0.2,1.4-0.4,2.1-0.6C856.8,601.1,854.9,598.1,853.1,595z"/>
	<path class="st5" d="M837.9,594.6l-3.6,9.6h3.6l-3.6,8.5h3.6l-3.6,7.9h3.6l-6.7,10.3h3.3l-3.3,13.3l12.7,6.4l11.5-7
		c-3.2-4.3-6.5-8.5-9.7-12.8c0.9-0.2,1.9-0.4,2.8-0.6c-1.7-3.8-3.5-7.6-5.2-11.4l4.2,1.2l-4.2-8.5h4.2c-2.1-2.4-4.2-4.9-6.4-7.3
		c0.7-0.2,1.4-0.4,2.1-0.6C841.5,600.6,839.7,597.6,837.9,594.6z"/>
	<path class="st5" d="M525.4,576.9l-4.3,9.3l3.6,0.3l-4.3,8.2l3.6,0.3l-4.2,7.6l3.6,0.3l-7.4,9.8l3.3,0.2l-4.3,13l12.2,7.3l12-6.1
		c-2.9-4.5-5.8-9-8.7-13.5c1-0.1,1.9-0.3,2.9-0.4c-1.5-3.9-2.9-7.8-4.4-11.7l4.1,1.5l-3.6-8.8l4.2,0.3c-1.9-2.6-3.9-5.2-5.8-7.8
		c0.7-0.1,1.4-0.3,2.1-0.4C528.6,583.2,527,580.1,525.4,576.9z"/>
	<path class="st5" d="M510.3,575.4l-4.3,9.3l3.6,0.3l-4.3,8.2l3.6,0.3l-4.2,7.6l3.6,0.3l-7.4,9.8l3.3,0.2l-4.3,13l12.2,7.3l12-6.1
		c-2.9-4.5-5.8-9-8.7-13.5c1-0.1,1.9-0.3,2.9-0.4c-1.5-3.9-2.9-7.8-4.4-11.7l4.1,1.5l-3.6-8.8l4.2,0.3c-1.9-2.6-3.9-5.2-5.8-7.8
		c0.7-0.1,1.4-0.3,2.1-0.4C513.4,581.6,511.9,578.5,510.3,575.4z"/>
	<path class="st5" d="M501.1,579.3l-4.3,9.3l3.6,0.3l-4.3,8.2l3.6,0.3l-4.2,7.6l3.6,0.3l-7.4,9.8l3.3,0.2l-4.3,13l12.2,7.3l12-6.1
		c-2.9-4.5-5.8-9-8.7-13.5c1-0.1,1.9-0.3,2.9-0.4c-1.5-3.9-2.9-7.8-4.4-11.7l4.1,1.5l-3.6-8.8l4.2,0.3c-1.9-2.6-3.9-5.2-5.8-7.8
		c0.7-0.1,1.4-0.3,2.1-0.4C504.3,585.6,502.7,582.4,501.1,579.3z"/>
	<path class="st5" d="M485.9,577.7l-4.3,9.3l3.6,0.3l-4.3,8.2l3.6,0.3l-4.2,7.6l3.6,0.3l-7.4,9.8l3.3,0.2l-4.3,13l12.2,7.3l12-6.1
		c-2.9-4.5-5.8-9-8.7-13.5c1-0.1,1.9-0.3,2.9-0.4c-1.5-3.9-2.9-7.8-4.4-11.7l4.1,1.5L490,595l4.2,0.3c-1.9-2.6-3.9-5.2-5.8-7.8
		c0.7-0.1,1.4-0.3,2.1-0.4C489.1,584,487.5,580.9,485.9,577.7z"/>
	<path class="st6" d="M771,181.5l8.3,10.6l-8.2,6.2L793,212l-8.1,10.6l18.6,26.2l-6.9,8.1l22.7,34.3l-4.4,18.7l39.8,48.1l36,18.7
		l75.2,30c3,0.6,5.9,1.2,8.9,1.8c-6.4-4.6-15.1-11.2-25.1-19.4c-15.6-12.8-39.3-36.6-66.7-65.3c-16.7-17.5-37.2-45.1-51.7-88.7
		c-22.6-27-45.3-54-67.9-80.9L771,181.5z"/>
	<line class="st7" x1="765.6" y1="566.3" x2="765.6" y2="618.7"/>
	<path class="st6" d="M1563.3,121.1l-9.8,17.6l9.8,15.2l7.1,20.7l-5.8,17.8l13,14.6l6,23.4l6.8,27.3l-12.9,12.7l-13.7,26.3l26.6,6.8
		l-20.1,18.1l13.2,19.9l-13.2,15.6l20.1,24.4l-12.9,12.7l44.1,13.8l61.5,23.3c14.2,4.5,28.4,9,42.6,13.5
		c-39.6-47.5-67-90-85.2-121.3c-23.4-40.2-32.9-64.1-35.5-71.3c-1.9-5.3-3.7-10.5-3.7-10.5c-1.2-3.5-2.9-8.9-4.8-15.4
		c0,0-5-17.1-9.3-36.7c-4.1-18.8-13.6-77-23.4-156.1c-2,3.8-4.6,9.7-5.4,17.3c-0.6,6.1,0.3,8.8-0.3,14.2c-0.6,4.6-2.3,11.2-7.8,18.8
		c2.6,5.5,5.3,11.1,7.9,16.6L1563.3,121.1z"/>
</g>
<g id="Слой_4">
</g>
<g id="Слой_3">
	<path class="st8" d="M-198.3,812.7c0,0,49.2-84.6,285.2-103.5s186.8,39.1,465.7,66.9c278.9,27.8,275.1-7.6,525-29
		c136.3-11.7,212.1-20.8,296.8-19.1c155.1,3,155.3,33.5,269.9,31.1c119.7-2.5,260.2-68.3,320.9-42.8c50.1,21,90.2,123.2,37,492.2
		c-115.6-8.1-231.2-16.2-346.8-24.3c-395.5,16.2-790.9,32.4-1186.4,48.7c-94.8-2.8-208.5-13.4-334.6-40.6
		c-147.6-31.8-271.3-77.4-368-120.8L-198.3,812.7z"/>
	<ellipse class="st8" cx="775.9" cy="876.3" rx="477" ry="239.3"/>
	<polygon class="st8" points="457.9,516.1 457.9,560.3 466.8,552.7 457.9,605.7 466.8,605.7 462.3,648.6 473.1,637 473.1,729.4 
		551.3,713 585.4,677.7 513.5,637 532.4,637 506.2,607.4 495.8,595.6 510.9,599.4 479.4,546.4 490.7,548.9 	"/>
	<path class="st8" d="M637.1,507l-13.9,44.5h6.9l-15.8,49.2l15.2-7.6l-15.2,73.2l48,39.2l49.2-54.3L663,593.1l12.6,4.3
		c-8.7-15.7-17.3-31.3-26-47c4.5-1.3,8.9-2.7,13.4-4L637.1,507z"/>
	<path class="st8" d="M-56.2,117.9"/>
	<rect x="685.8" y="561.5" class="st8" width="147.7" height="122.6"/>
	<path class="st8" d="M770.7,500.6c-35.9,21.9-71.8,43.8-107.7,65.7c38.9,0.6,77.7,1.1,116.6,1.7c23.3,0,46.6,0,69.8,0.1
		C823.2,545.6,796.9,523.1,770.7,500.6z"/>
	
		<linearGradient id="SVGID_3_" gradientUnits="userSpaceOnUse" x1="771.6881" y1="536.0004" x2="1453.1556" y2="536.0004" gradientTransform="matrix(1 0 0 -1 0 994)">
		<stop  offset="0" style="stop-color:#010023"/>
		<stop  offset="0.5333" style="stop-color:#009DE9"/>
	</linearGradient>
	<path class="st9" d="M804.3,516.1c-13.3-20.2-58.7-54.3-12-61.8s25.2,8.8,61.8,12.6c36.6,3.8-2.5-15.1,49.2-25.2s48-27.8,90.9,0
		c42.9,27.8,35.3,13.9,103.5-6.3c68.1-20.2,60.6-45.4,171.6-31.5s136.3-7.6,174.2,24c37.9,31.5-48,44.2-48,44.2
		c-89.6-2.5-27.8,17.7-89.6-2.5c-61.8-20.2-75.7-21.5-130-20.2s-44.2,35.3-84.6,39.7s-48-12-82-10.7c-34.1,1.3-44.2,28.4-104.7,28.7
		c-60.6,0.3-70.7-36-82-18S804.3,516.1,804.3,516.1z"/>
	<rect x="797.4" y="507" class="st8" width="13.9" height="30.6"/>
	<path class="st8" d="M1884.1,1333.3"/>
	<path class="st10" d="M930.1,255.9c-52.9-11.8-86.2-64.3-74.4-117.2c4.5-20.1,14.9-37.4,28.9-50.5c-22.6,13.3-39.9,35.6-46.1,63.3
		c-11.8,52.9,21.5,105.4,74.4,117.2c32.8,7.3,65.4-2.7,88.3-24C980.5,256.8,955.3,261.5,930.1,255.9z"/>
	<path class="st11" d="M808.8,609.6c-6.8,0.5-13.5,1-20.3,1.5c-0.2-9.6-0.3-19.1-0.5-28.7c6.9,0.4,13.8,0.8,20.8,1.2V609.6z"/>
	<path class="st12" d="M783.5,595.2c11.7-0.1,23.4-0.2,35.1-0.4"/>
	<line class="st13" x1="800.9" y1="615.8" x2="800.8" y2="562.2"/>
	<path class="st8" d="M857.3,532.7"/>
</g>
</svg>
