<?xml version="1.0" encoding="utf-8"?>
<!-- Generator: Adobe Illustrator 21.0.2, SVG Export Plug-In . SVG Version: 6.00 Build 0)  -->
<svg version="1.1" id="Слой_1" xmlns="http://www.w3.org/2000/svg" xmlns:xlink="http://www.w3.org/1999/xlink" x="0px" y="0px"
	 viewBox="0 0 1000 1000" style="enable-background:new 0 0 1000 1000;" xml:space="preserve">
<style type="text/css">
	.st0{fill:none;stroke:#004477;stroke-width:50;stroke-miterlimit:10;}
	.st1{fill:none;stroke:#004477;stroke-width:12;stroke-miterlimit:10;}
	.st2{fill:none;stroke:#004477;stroke-width:60;stroke-miterlimit:10;}
	.st3{fill:none;stroke:#004477;stroke-width:16;stroke-miterlimit:10;}
	.st4{fill:none;stroke:#004477;stroke-width:40;stroke-miterlimit:10;}
	.st5{fill:none;stroke:#004477;stroke-width:8;stroke-miterlimit:10;}
</style>
<circle class="st0" cx="499.8" cy="500.2" r="425.7"/>
<circle class="st1" cx="499.8" cy="500.2" r="406.9"/>
<line class="st2" x1="92.9" y1="505.4" x2="906.7" y2="505.4"/>
<line class="st2" x1="92.9" y1="505.4" x2="499.8" y2="907.2"/>
<line class="st2" x1="906.7" y1="505.4" x2="499.8" y2="907.2"/>
<line class="st2" x1="703.3" y1="706.3" x2="499.8" y2="98.4"/>
<line class="st2" x1="296.3" y1="706.3" x2="499.8" y2="98.4"/>
<circle class="st3" cx="499.8" cy="500.2" r="419.2"/>
<line class="st4" x1="80.6" y1="505.4" x2="913.2" y2="505.4"/>
<line class="st4" x1="92.9" y1="505.4" x2="499.8" y2="912.3"/>
<line class="st4" x1="913.2" y1="505.4" x2="499.8" y2="912.3"/>
<line class="st4" x1="296.3" y1="706.3" x2="499.8" y2="93.3"/>
<line class="st4" x1="703.3" y1="706.3" x2="499.8" y2="93.3"/>
<polyline class="st1" points="468,269.6 486.8,320.1 499.8,269.6 514.2,320.1 532.2,269.6 "/>
<polyline class="st5" points="197.9,576.2 236.7,578 210,552.2 247.1,557.3 222.2,527.9 "/>
<polyline class="st5" points="792.4,579.2 753.5,581 780.3,555.3 743.1,560.4 768,530.9 "/>
</svg>
