<?xml version="1.0" encoding="utf-8"?>
<!-- Generator: Adobe Illustrator 21.0.2, SVG Export Plug-In . SVG Version: 6.00 Build 0)  -->
<svg version="1.1" id="Слой_1" xmlns="http://www.w3.org/2000/svg" xmlns:xlink="http://www.w3.org/1999/xlink" x="0px" y="0px"
	 viewBox="0 0 1080 1080" style="enable-background:new 0 0 1080 1080;" xml:space="preserve">
<style type="text/css">
	.st0{fill:url(#SVGID_1_);}
	.st1{fill:none;stroke:#002455;stroke-width:7;stroke-miterlimit:10;}
	.st2{fill:none;stroke:#002455;stroke-width:20;stroke-miterlimit:10;}
	.st3{fill:#002455;}
</style>
<radialGradient id="SVGID_1_" cx="540" cy="536.1495" r="541.9287" gradientUnits="userSpaceOnUse">
	<stop  offset="0" style="stop-color:#0071BC"/>
	<stop  offset="0" style="stop-color:#120055"/>
	<stop  offset="0.6422" style="stop-color:#01002A"/>
</radialGradient>
<rect y="-7.7" class="st0" width="1080" height="1087.7"/>
<circle class="st1" cx="540" cy="536.1" r="166.2"/>
<circle class="st2" cx="540" cy="536.1" r="158.9"/>
<line class="st2" x1="381.1" y1="538.2" x2="698.9" y2="538.2"/>
<line class="st2" x1="381.1" y1="538.2" x2="540" y2="695.1"/>
<line class="st2" x1="698.9" y1="538.2" x2="540" y2="695.1"/>
<line class="st2" x1="619.5" y1="616.6" x2="540" y2="379.3"/>
<line class="st2" x1="460.5" y1="616.6" x2="540" y2="379.3"/>
<circle class="st1" cx="540" cy="536.1" r="163.7"/>
<line class="st2" x1="376.3" y1="538.2" x2="701.4" y2="538.2"/>
<line class="st2" x1="381.1" y1="538.2" x2="540" y2="697"/>
<line class="st2" x1="701.4" y1="538.2" x2="540" y2="697"/>
<line class="st2" x1="460.5" y1="616.6" x2="540" y2="377.3"/>
<line class="st2" x1="619.5" y1="616.6" x2="540" y2="377.3"/>
<g>
	<path class="st3" d="M527.6,446.1c0.9,1.5,1.7,3.1,2.5,4.7c0.8,1.6,1.6,3.2,2.3,4.7c1.5,3.2,3,6.4,4.4,9.6l-3.8,0.2
		c0.7-3.3,1.4-6.6,2.2-10c0.8-3.3,1.6-6.6,2.4-9.9l2.3-9l2.5,8.9c0.9,3.3,1.8,6.6,2.7,9.9c0.8,3.3,1.7,6.6,2.4,10l-3.8-0.1
		c1.3-3.2,2.8-6.4,4.2-9.6c0.8-1.6,1.5-3.2,2.3-4.7c0.8-1.6,1.6-3.1,2.4-4.7c-0.3,1.7-0.7,3.5-1.1,5.2c-0.4,1.7-0.8,3.4-1.2,5.1
		c-0.9,3.4-1.8,6.8-2.8,10.1l-1.7,5.7l-2-5.9c-1.1-3.2-2.2-6.5-3.2-9.7c-1-3.3-2-6.5-2.9-9.8l4.8-0.1c-0.9,3.3-1.7,6.6-2.7,9.8
		c-0.9,3.3-1.9,6.5-2.9,9.8l-1.9,6l-1.9-5.8c-1.1-3.3-2-6.7-3-10.1c-0.4-1.7-0.9-3.4-1.3-5.1C528.3,449.6,527.9,447.9,527.6,446.1z"
		/>
</g>
<g>
	<path class="st3" d="M422.1,565.8c1.3-0.2,2.5-0.4,3.8-0.5c1.3-0.1,2.5-0.2,3.8-0.4c2.5-0.2,5.1-0.3,7.6-0.4l-1.5,3.4
		c-1.9-1.5-3.7-3.1-5.5-4.8c-1.8-1.6-3.6-3.3-5.3-4.9l-5.6-5.3l7.7,1.1c2.4,0.3,4.8,0.7,7.2,1.1c2.4,0.4,4.8,0.9,7.2,1.4l-1.8,3.2
		c-1.5-2-2.9-4.1-4.3-6.2c-0.7-1.1-1.4-2.1-2-3.2c-0.7-1.1-1.3-2.2-1.9-3.3c1,0.8,2,1.6,3,2.4c1,0.8,1.9,1.7,2.8,2.5
		c1.9,1.7,3.7,3.5,5.4,5.3l3.5,3.6l-5.3-0.3c-2.4-0.1-4.9-0.4-7.3-0.6c-2.4-0.2-4.8-0.5-7.3-0.9l2.1-4.3c1.7,1.7,3.4,3.4,5.1,5.1
		c1.7,1.7,3.3,3.5,4.9,5.3l3.6,4l-5-0.6c-2.5-0.3-5-0.7-7.5-1.1c-1.3-0.2-2.5-0.5-3.8-0.7C424.6,566.4,423.4,566.2,422.1,565.8z"/>
</g>
<g>
	<path class="st3" d="M654.2,567c-1.3,0.3-2.5,0.6-3.8,0.9c-1.3,0.3-2.5,0.5-3.8,0.7c-2.5,0.4-5,0.8-7.6,1.1l-5.1,0.6l3.6-4
		c1.6-1.8,3.3-3.6,5-5.3c1.7-1.7,3.4-3.4,5.1-5.1l2.1,4.3c-2.4,0.3-4.8,0.6-7.3,0.9c-2.4,0.2-4.9,0.5-7.3,0.6l-5.3,0.3l3.5-3.5
		c1.8-1.8,3.6-3.6,5.4-5.3c0.9-0.8,1.9-1.7,2.8-2.5c1-0.8,1.9-1.6,3-2.4c-0.6,1.1-1.2,2.2-1.9,3.3c-0.7,1.1-1.3,2.2-2,3.2
		c-1.4,2.1-2.8,4.2-4.3,6.2l-1.8-3.2c2.4-0.5,4.8-1,7.2-1.4c2.4-0.4,4.8-0.8,7.2-1.1l7.7-1.1l-5.6,5.4c-1.8,1.7-3.5,3.3-5.3,4.9
		c-1.8,1.6-3.6,3.2-5.5,4.7l-1.5-3.4c2.5,0.1,5.1,0.2,7.6,0.4c1.3,0.1,2.5,0.2,3.8,0.4C651.7,566.6,653,566.8,654.2,567z"/>
</g>
</svg>
