<?xml version="1.0" encoding="utf-8"?>
<!-- Generator: Adobe Illustrator 21.0.2, SVG Export Plug-In . SVG Version: 6.00 Build 0)  -->
<svg version="1.1" id="Слой_1" xmlns="http://www.w3.org/2000/svg" xmlns:xlink="http://www.w3.org/1999/xlink" x="0px" y="0px"
	 viewBox="0 0 1080 1080" style="enable-background:new 0 0 1080 1080;" xml:space="preserve">
<style type="text/css">
	.st0{fill:url(#SVGID_1_);}
	.st1{fill:url(#SVGID_2_);}
	.st2{fill:#00D4D1;}
	.st3{fill:url(#SVGID_3_);}
	.st4{fill:none;}
	.st5{fill:none;stroke:#333333;stroke-width:0.25;stroke-miterlimit:10;}
	.st6{fill:#333333;}
	.st7{fill:#00767F;}
	.st8{fill:url(#SVGID_4_);}
</style>
<radialGradient id="SVGID_1_" cx="538.556" cy="540.9694" r="540" gradientTransform="matrix(-1 0 0 1 1079.5394 0)" gradientUnits="userSpaceOnUse">
	<stop  offset="0" style="stop-color:#000000"/>
	<stop  offset="0.1689" style="stop-color:#AAFFFD"/>
	<stop  offset="0.4533" style="stop-color:#F0FFAA"/>
	<stop  offset="0.6156" style="stop-color:#E1FFAF"/>
	<stop  offset="0.8622" style="stop-color:#7FDFFF"/>
	<stop  offset="1" style="stop-color:#000000"/>
</radialGradient>
<polygon class="st0" points="1,1081 1081,1081 1081,354.4 1081,1 1,1 "/>
<linearGradient id="SVGID_2_" gradientUnits="userSpaceOnUse" x1="540.4565" y1="544.8948" x2="540.4565" y2="293.6169">
	<stop  offset="0.1667" style="stop-color:#002A05"/>
	<stop  offset="0.6444" style="stop-color:#00767F"/>
	<stop  offset="0.9556" style="stop-color:#7FDFFF"/>
</linearGradient>
<path class="st1" d="M42.6,475.8c0,0,3.7,8.6,42-18.5s43.2-40.7,58-70.4c14.8-29.6,17.3-35.8,21-60.5l11.1,16
	c0,0,1.2,18.5,14.8,39.5c13.6,21,29.6,38.3,49.4,51.9c19.8,13.6,25.9,22.2,53.1,23.5c27.2,1.2,38.3,1.2,55.6-16
	c17.3-17.3,76.5-43.2,98.8-63s33.3-23.5,39.5-40.7c6.2-17.3,6.2-14.8,22.2-22.2c6.6,8.6,13.2,17.3,19.8,25.9
	c1.4,10.1,6.1,33.4,24.7,55c25.5,29.6,59.1,35.2,67.9,36.4c54.3,2,79.7-3.1,92.6-8.6c2-0.9,13.3-5.9,29.3-12.1
	c6.7-2.6,13.9-5.3,22.7-8.4c27.6-9.8,36.5-11.5,63.3-21.1c17.6-6.3,26.4-10,35.2-18.4c6.2-5.9,10.4-11.8,12.4-15.4
	c14.8-27.2,16-42,18.5-53.1c2.5-11.1,2.5,29.6,24.7,44.4s28.4,48.1,58,53.1c2.8,0.5,1.9,0.1,6.4,0.9c20.6,3.3,34.3,11.2,60.8,26.7
	c10,5.9,22.5,13.2,36.5,21.4c0,34.3,0,68.6,0,102.9c-360-1.2-720-2.5-1080-3.7c-0.3-25-0.6-50-0.9-75c3.2-8.9,8.4-11.2,9.7-11.7
	C19.2,450.7,34.2,458.3,42.6,475.8z"/>
<path class="st2" d="M481.1,358.3c3.8-3.4,7.6-6.7,11.4-10.1c2,1.3,4,2.5,6,3.8c0.7,2.2,1.5,4.4,2.2,6.6c0,7.4,0,14.7,0.1,22.1
	c1.8-4.1,3.6-8.2,5.4-12.3c1.3-2.5,2.7-5.1,4-7.6c0.2-7.3,0.4-14.6,0.7-21.9c2.2,3,4.3,6,6.5,9c2.4,4.3,4.9,8.6,7.4,13
	c2.7,4.7,5.4,9.4,8,14c2.3,2.1,4.5,4.2,6.8,6.3c1.9,1.8,3.7,3.6,5.6,5.4c-12-17.9-15.9-35.7-17.3-45.3c-6.6-8.6-13.2-17.3-19.8-25.9
	c-16,7.4-16,4.9-22.2,22.2s-17.3,21-39.5,40.7c-0.9,0.8-1.8,1.5-2.6,2.2l0,0c7.6-3.2,15.2-6.4,22.8-9.6
	C471.4,366.7,476.2,362.5,481.1,358.3z"/>
<path class="st2" d="M493.6,353.7l3.4,4.5v7.7l-1.7,8l-4.6,9.3l-6.3,7c0.9-3,1.8-6.1,2.6-9.1c3.6-12.8,3-17.2,1.2-18.2
	c0,0-1.1-0.6-11.2,4.1l4.5-5.1l6.1-4.8L493.6,353.7z"/>
<path class="st2" d="M513.2,347.8c-0.5,0.2,0.3,2.8,0.3,7.7c0,1.3,0,3.6-0.4,6.3c-0.4,2.5-0.7,2.7-1.8,7c-0.8,3.2-1.2,5.1-1.5,7.6
	c-0.3,3.1-0.2,6.7,0.3,6.7c0.4,0,0.7-2.6,2.5-8.5c0.9-2.9,1.3-3.8,2.2-7c0.6-2.1,1-3.9,1.3-5.1c0.9,0.7,2,1.6,3.1,2.9
	c1.8,2.2,2.6,4.4,3.1,5.8c0.7,2.2,1.6,4,2.3,5.1c1.9,3.1,4.2,5,5.7,6.3c1.4,1.2,2.7,2,3.7,2.6c-0.7-1.6-1.8-3.9-3.1-6.6
	c-1.6-3.4-2.6-5.3-3.9-7.9c-1.5-2.7-2.6-4.6-4.4-7.5c-3.2-5.3-3.3-5-5-7.9C514.8,350.6,513.7,347.6,513.2,347.8z"/>
<path class="st2" d="M484.8,367.8c1,0.6,1,2.2,1.1,3.9c0.1,4.1-2,7.3-2.3,7.8c-0.4,0.6-0.6,0.7-2,2.5c-0.9,1.1-1.6,2-2,2.6
	c-4.3,4.5-5.4,5.3-5.6,5.1c-0.4-0.3,1.7-3.8,3.1-5.8c1-1.5,1.9-2.6,2.7-4.6c0.7-1.7,1.1-2.6,0.8-3.1c-0.6-1-3.8-1.1-15.4,3.1
	c-3,1.2-6,2.5-9,3.7c-4.1,1.8-8.3,3.5-12.4,5.3c2-2.5,5.4-6,10.4-8.7c2.4-1.3,4.1-1.8,6.2-2.5C475,372.1,481.5,365.7,484.8,367.8z"
	/>
<path class="st2" d="M154.4,380c0,0,3.1-5.3,3.7-6.8s3.7-9.3,3.7-9.3l4.2-7.8l2.7,3c0,0,1.9,5.1,2.7,6.8s4.6,9.7,6.1,11.6
	s7.4,7.8,9.7,10.1s10.5,8.4,10.5,8.4l2.5,1.1c-3.8-4.8-7.3-9.9-10.8-15.2c-13.6-21-14.8-39.5-14.8-39.5l-11.1-16
	c-3.7,24.7-6.2,30.9-21,60.5c-1.3,2.7-2.6,5.2-3.8,7.6v0l8.6-7.9L154.4,380z"/>
<path class="st2" d="M164.2,376c-1,1.3-3,3.9-5.1,6.2c-2.7,3-3.6,3.2-7.3,6.7c-1.6,1.5-3.8,3.7-6.4,6.6c6.1-4.3,10-6.1,12.5-6.9
	c0.7-0.2,3.1-0.9,5.6-2.7c1.4-1,2.5-2,3.1-2.7c0.9,0.1,2.3,0.2,3.9,0.8c3.4,1.2,4.8,3,8,5c1.4,0.9,3.5,2,6.4,2.8
	c-3.3-2.6-7-5.9-10.8-10.1c-2.9-3.3-5.3-6.5-7.2-9.4C166.2,373.3,165.3,374.6,164.2,376z"/>
<path class="st2" d="M893.1,338.5l6.8,3.3c0,0,10.8,5.1,12.1,6.2s14.2,2,14.2,2l6.5,2.9c-7.3-15.5-14.7-31-22-46.5
	c-5.7-6.6-12.9-14.2-15.4-12.7c-0.7,0.4-0.7,1.5-0.8,1.9c-2.5,11.1-3.7,25.9-18.5,53.1c-1.3,2.4-3.6,5.8-6.8,9.5l0,0l19.5-14.4
	L893.1,338.5z"/>
<path class="st2" d="M854.6,374.4c0.4,0,6.1-2.4,6.1-2.4l4.6-3.9l2.7-4.6l6.2-5.4c0,0,7.9-3.7,8.5-4c0.6-0.3,6.2-2.5,6.2-2.5
	l5.6-3.3c0,0,3.9-0.7,4.3,0c0.4,0.7,9.1,5.4,11.4,6.1c2.4,0.7,10,2.1,12.6,3s8.4,1.6,9.7,2.8c1.3,1.2,6.1,6.7,7.3,8.3
	s6.4,10.1,6.4,10.1l-8.9-9.5l-6.5-4.5c0,0-4.5-0.9-9.7-1.4c-5.2-0.4-10.9-0.6-12.8-1.3c-1.9-0.7-8-4.8-8-4.8l-7.4,0.9
	c0,0-5.9,2.1-7.3,3s-5.9,4.5-5.9,4.5l-9.8,5.5l-7.6,2.8L854.6,374.4z"/>
<g>
	
		<linearGradient id="SVGID_3_" gradientUnits="userSpaceOnUse" x1="541.5176" y1="1142.8721" x2="541.5176" y2="891.5941" gradientTransform="matrix(1 0 0 -1 0 1667.4321)">
		<stop  offset="0.1667" style="stop-color:#002A05"/>
		<stop  offset="0.6444" style="stop-color:#00767F"/>
		<stop  offset="0.9556" style="stop-color:#7FDFFF"/>
	</linearGradient>
	<path class="st3" d="M43.2,593.7c21,8.1,31.6,12.2,42,18.5c19.5,11.9,31.7,26.3,37.1,33.3c8.3,10.8,13.3,21.8,20.9,37.1
		c14.8,29.6,17.3,35.8,21,60.5l11.1-16c0,0,1.2-18.5,14.8-39.5c13.6-21,29.6-38.3,49.4-51.9s25.9-22.2,53.1-23.5s38.3-1.2,55.6,16
		c17.3,17.3,76.5,43.2,98.8,63c22.2,19.8,33.3,23.5,39.5,40.7c6.2,17.3,6.2,14.8,22.2,22.2c6.6-8.6,13.2-17.3,19.8-25.9
		c1.4-10.1,6.1-33.4,24.7-55c25.5-29.6,59.1-35.2,67.9-36.4c54.3-2,79.7,3.1,92.6,8.6c2,0.9,13.3,5.9,29.3,12.1
		c6.7,2.6,13.9,5.3,22.7,8.4c27.6,9.8,36.5,11.5,63.3,21.1c17.6,6.3,26.4,10,35.2,18.4c6.2,5.9,10.4,11.8,12.4,15.4
		c14.8,27.2,16,42,18.5,53.1c2.5,11.1,2.5-29.6,24.7-44.4s28.4-48.1,58-53.1c2.8-0.5,1.9-0.1,6.4-0.9c20.6-3.3,34.3-11.2,60.8-26.7
		c10-5.9,22.5-13.2,36.5-21.4c0-34.3,0-68.6,0-102.9c-360,1.2-720,2.5-1080,3.7c0.4,16,0.7,32,1.1,48c5.7,3,11.4,6,17.1,8.9
		C25.5,587.1,33.6,590,43.2,593.7z"/>
	<path class="st2" d="M481.7,711.1c3.8,3.4,7.6,6.7,11.4,10.1c2-1.3,4-2.5,6-3.8c0.7-2.2,1.5-4.4,2.2-6.6c0-7.4,0-14.7,0.1-22.1
		c1.8,4.1,3.6,8.2,5.4,12.3c1.3,2.5,2.7,5.1,4,7.6c0.2,7.3,0.4,14.6,0.7,21.9c2.2-3,4.3-6,6.5-9c2.4-4.3,4.9-8.6,7.4-13
		c2.7-4.7,5.4-9.4,8-14c2.3-2.1,4.5-4.2,6.8-6.3c1.9-1.8,3.7-3.6,5.6-5.4c-12,17.9-15.9,35.7-17.3,45.3
		c-6.6,8.6-13.2,17.3-19.8,25.9c-16-7.4-16-4.9-22.2-22.2s-17.3-21-39.5-40.7c-0.9-0.8-1.8-1.5-2.6-2.2l0,0
		c7.6,3.2,15.2,6.4,22.8,9.6C472,702.8,476.8,707,481.7,711.1z"/>
	<path class="st2" d="M494.2,715.7l3.4-4.5v-7.7l-1.7-8l-4.6-9.3l-6.3-7c0.9,3,1.8,6.1,2.6,9.1c3.6,12.8,3,17.2,1.2,18.2
		c0,0-1.1,0.6-11.2-4.1l4.5,5.1l6.1,4.8L494.2,715.7z"/>
	<path class="st2" d="M513.8,721.7c-0.5-0.2,0.3-2.8,0.3-7.7c0-1.3,0-3.6-0.4-6.3c-0.4-2.5-0.7-2.7-1.8-7c-0.8-3.2-1.2-5.1-1.5-7.6
		c-0.3-3.1-0.2-6.7,0.3-6.7c0.4,0,0.7,2.6,2.5,8.5c0.9,2.9,1.3,3.8,2.2,7c0.6,2.1,1,3.9,1.3,5.1c0.9-0.7,2-1.6,3.1-2.9
		c1.8-2.2,2.6-4.4,3.1-5.8c0.7-2.2,1.6-4,2.3-5.1c1.9-3.1,4.2-5,5.7-6.3c1.4-1.2,2.7-2,3.7-2.6c-0.7,1.6-1.8,3.9-3.1,6.6
		c-1.6,3.4-2.6,5.3-3.9,7.9c-1.5,2.7-2.6,4.6-4.4,7.5c-3.2,5.3-3.3,5-5,7.9C515.4,718.8,514.3,721.9,513.8,721.7z"/>
	<path class="st2" d="M485.4,701.7c1-0.6,1-2.2,1.1-3.9c0.1-4.1-2-7.3-2.3-7.8c-0.4-0.6-0.6-0.7-2-2.5c-0.9-1.1-1.6-2-2-2.6
		c-4.3-4.5-5.4-5.3-5.6-5.1c-0.4,0.3,1.7,3.8,3.1,5.8c1,1.5,1.9,2.6,2.7,4.6c0.7,1.7,1.1,2.6,0.8,3.1c-0.6,1-3.8,1.1-15.4-3.1
		c-3-1.2-6-2.5-9-3.7c-4.1-1.8-8.3-3.5-12.4-5.3c2,2.5,5.4,6,10.4,8.7c2.4,1.3,4.1,1.8,6.2,2.5C475.6,697.4,482.2,703.8,485.4,701.7
		z"/>
	<path class="st2" d="M155,689.5c0,0,3.1,5.3,3.7,6.8s3.7,9.3,3.7,9.3l4.2,7.8l2.7-3c0,0,1.9-5.1,2.7-6.8s4.6-9.7,6.1-11.6
		s7.4-7.8,9.7-10.1s10.5-8.4,10.5-8.4l2.5-1.1c-3.8,4.8-7.3,9.9-10.8,15.2c-13.6,21-14.8,39.5-14.8,39.5l-11.1,16
		c-3.7-24.7-6.2-30.9-21-60.5c-1.3-2.7-2.6-5.2-3.8-7.6v0l8.6,7.9L155,689.5z"/>
	<path class="st2" d="M164.8,693.4c-1-1.3-3-3.9-5.1-6.2c-2.7-3-3.6-3.2-7.3-6.7c-1.6-1.5-3.8-3.7-6.4-6.6c6.1,4.3,10,6.1,12.5,6.9
		c0.7,0.2,3.1,0.9,5.6,2.7c1.4,1,2.5,2,3.1,2.7c0.9-0.1,2.3-0.2,3.9-0.8c3.4-1.2,4.8-3,8-5c1.4-0.9,3.5-2,6.4-2.8
		c-3.3,2.6-7,5.9-10.8,10.1c-2.9,3.3-5.3,6.5-7.2,9.4C166.8,696.1,165.9,694.9,164.8,693.4z"/>
	<path class="st2" d="M893.7,731l6.8-3.3c0,0,10.8-5.1,12.1-6.2s14.2-2,14.2-2l6.5-2.9c-7.3,15.5-14.7,31-22,46.5
		c-5.7,6.6-12.9,14.2-15.4,12.7c-0.7-0.4-0.7-1.5-0.8-1.9c-2.5-11.1-3.7-25.9-18.5-53.1c-1.3-2.4-3.6-5.8-6.8-9.5l0,0l19.5,14.4
		L893.7,731z"/>
	<path class="st2" d="M855.2,695.1c0.4,0,6.1,2.4,6.1,2.4l4.6,3.9l2.7,4.6l6.2,5.4c0,0,7.9,3.7,8.5,4c0.6,0.3,6.2,2.5,6.2,2.5
		l5.6,3.3c0,0,3.9,0.7,4.3,0c0.4-0.7,9.1-5.4,11.4-6.1s10-2.1,12.6-3c2.7-0.9,8.4-1.6,9.7-2.8s6.1-6.7,7.3-8.3
		c1.2-1.6,6.4-10.1,6.4-10.1l-8.9,9.5l-6.5,4.5c0,0-4.5,0.9-9.7,1.4c-5.2,0.4-10.9,0.6-12.8,1.3s-8,4.8-8,4.8l-7.4-0.9
		c0,0-5.9-2.1-7.3-3c-1.3-0.9-5.9-4.5-5.9-4.5l-9.8-5.5l-7.6-2.8L855.2,695.1z"/>
</g>
<g>
	<polygon points="412.5,461.1 423.1,488.3 417.8,484.9 423.1,499.4 417.8,499.4 423.1,513.2 417.8,513.2 428.1,537.1 420.3,532.6 
		428.1,550.4 387.6,536 398.7,526 390.9,525.4 402,511.6 395.9,512.7 405.3,496 399.8,497.1 407.8,483.3 402.6,484.4 	"/>
	<polygon points="384.8,463.4 396.7,489.2 392.2,486.5 398.2,500.2 394.2,500.7 400.2,513.9 396.2,514.5 407.3,537 400.8,533.4 
		409.2,550.1 376.4,540.2 383.4,529.2 377.4,529.4 383.9,514.5 379.4,516.3 384.3,498.8 380.2,500.5 384.4,485.9 380.5,487.6 	"/>
	<polygon points="374.7,469.7 385.2,496.9 380,493.5 385.2,508 380,508 385.2,521.8 380,521.8 390.2,545.7 382.5,541.2 390.2,559 
		349.7,544.6 360.8,534.6 353.1,534 364.2,520.2 358.1,521.3 367.5,504.6 361.9,505.7 370,491.9 364.7,493 	"/>
	<polygon points="341,470.8 351.5,498 346.3,494.7 351.5,509.1 346.3,509.1 351.5,522.9 346.3,522.9 356.5,546.8 348.8,542.3 
		356.5,560.1 316.1,545.7 327.2,535.7 319.4,535.1 330.5,521.3 324.4,522.4 333.8,505.7 328.3,506.9 336.3,493 331,494.1 	"/>
	<polygon points="356.6,469.7 363.1,496.9 359.8,493.6 363.1,508 359.8,508 363.1,521.8 359.8,521.8 366.1,545.7 361.4,541.2 
		366.1,559 341.4,544.6 348.1,534.6 343.4,534 350.2,520.2 346.5,521.3 352.2,504.7 348.8,505.8 353.7,491.9 350.5,493 	"/>
	<polygon points="306.1,471.4 322.8,495.3 316.9,493.3 325.5,506 320.4,507.3 328.8,519.5 323.7,520.8 339.4,541.4 330.8,539 
		342.6,554.4 299.8,550.1 308.2,537.7 300.5,539.1 308,522.9 302.3,525.5 307.5,507.1 302.4,509.5 306.8,494.1 302,496.4 	"/>
	<polygon points="286.1,471.4 296.7,498.5 291.4,495.2 296.7,509.6 291.4,509.6 296.7,523.5 291.4,523.5 301.6,547.3 293.9,542.9 
		301.6,560.6 261.2,546.2 272.3,536.2 264.5,535.7 275.6,521.8 269.5,522.9 278.9,506.3 273.4,507.4 281.4,493.6 276.1,494.7 	"/>
	<polygon points="327.4,486.1 335.1,513.2 331.3,509.9 335.1,524.3 331.3,524.3 335.1,538.2 331.3,538.2 338.8,562 333.1,557.6 
		338.8,575.3 309.2,560.9 317.3,550.9 311.6,550.4 319.7,536.5 315.2,537.6 322.1,521 318.1,522.1 324,508.2 320.1,509.4 	"/>
	<polygon points="426.2,495.9 430.7,524.7 426.3,520.3 428.3,535.5 423.2,534.4 425.4,549.1 420.3,547.9 425.2,573.4 418.6,567.4 
		422.4,586.4 385.9,563.7 398.9,556.3 391.4,554.2 405.2,543 399,542.8 411.7,528.5 406.1,528.4 416.9,516.6 411.5,516.5 	"/>
	<polygon points="390.5,501.9 401.1,529.1 395.8,525.8 401.1,540.2 395.8,540.2 401.1,554 395.8,554 406.1,577.9 398.3,573.5 
		406.1,591.2 365.6,576.8 376.7,566.8 368.9,566.2 380,552.4 373.9,553.5 383.3,536.9 377.8,538 385.8,524.1 380.6,525.2 	"/>
	<polygon points="260.6,477.1 271.3,503.7 266.6,500.7 272,514.8 267.5,515 272.8,528.6 268.3,528.9 278.5,552.1 271.6,548.1 
		279.3,565.4 243.7,553.1 252.6,542.6 245.9,542.5 254.6,528 249.4,529.5 256.5,512.4 251.8,513.8 257.9,499.5 253.5,500.9 	"/>
	<polygon points="246.2,473.3 256.7,500.5 251.5,497.2 256.7,511.6 251.5,511.6 256.7,525.4 251.5,525.4 261.7,549.3 254,544.9 
		261.7,562.6 221.3,548.2 232.3,538.2 224.6,537.6 235.7,523.8 229.6,524.9 239,508.3 233.5,509.4 241.5,495.5 236.2,496.6 	"/>
	<polygon points="302.3,471.7 311,498.8 306.7,495.5 311,509.9 306.7,509.9 311,523.8 306.7,523.8 315.2,547.6 308.7,543.2 
		315.2,560.9 281.7,546.5 290.9,536.5 284.4,536 293.6,522.1 288.6,523.2 296.4,506.6 291.8,507.7 298.4,493.9 294.1,495 	"/>
	<polygon points="221.3,473.3 231.8,500.5 226.5,497.2 231.8,511.6 226.5,511.6 231.8,525.4 226.5,525.4 236.8,549.3 229,544.9 
		236.8,562.6 196.3,548.2 207.4,538.2 199.6,537.6 210.7,523.8 204.6,524.9 214,508.3 208.5,509.4 216.5,495.5 211.3,496.6 	"/>
	<polygon points="195.2,481 205.7,508.2 200.5,504.8 205.7,519.3 200.5,519.3 205.7,533.1 200.5,533.1 210.7,557 202.9,552.5 
		210.7,570.3 170.2,555.8 181.3,545.9 173.6,545.3 184.7,531.5 178.6,532.6 188,515.9 182.4,517 190.5,503.2 185.2,504.3 	"/>
	<polygon points="168.6,480.5 179.1,507.7 173.9,504.3 179.1,518.7 173.9,518.7 179.1,532.6 173.9,532.6 184.1,556.4 176.3,552 
		184.1,569.8 143.6,555.3 154.7,545.4 147,544.8 158.1,530.9 152,532.1 161.4,515.4 155.8,516.5 163.9,502.7 158.6,503.8 	"/>
	<polygon points="149.2,473.3 159.7,500.5 154.5,497.2 159.7,511.6 154.5,511.6 159.7,525.4 154.5,525.4 164.7,549.3 156.9,544.8 
		164.7,562.6 124.2,548.2 135.3,538.2 127.6,537.6 138.6,523.8 132.6,524.9 142,508.3 136.4,509.4 144.5,495.5 139.2,496.6 	"/>
	<polygon points="129.8,463.3 140.3,490.4 135,487.1 140.3,501.5 135,501.5 140.3,515.4 135,515.4 145.3,539.2 137.5,534.8 
		145.3,552.5 104.8,538.1 115.9,528.1 108.2,527.6 119.2,513.7 113.1,514.8 122.6,498.2 117,499.3 125.1,485.4 119.8,486.6 	"/>
	<polygon points="111.5,466.3 122,493.5 116.7,490.2 122,504.6 116.7,504.6 122,518.4 116.7,518.4 127,542.3 119.2,537.8 127,555.6 
		86.5,541.2 97.6,531.2 89.9,530.6 100.9,516.8 94.8,517.9 104.3,501.3 98.7,502.4 106.8,488.5 101.5,489.6 	"/>
	<polygon points="85.4,471.9 96,499.1 90.7,495.8 96,510.2 90.7,510.2 96,524 90.7,524 100.9,547.9 93.2,543.4 100.9,561.2 
		60.5,546.8 71.6,536.8 63.8,536.2 74.9,522.4 68.8,523.5 78.2,506.9 72.7,508 80.7,494.1 75.4,495.2 	"/>
	<polygon points="63.2,469.7 73.8,496.9 68.5,493.5 73.8,508 68.5,508 73.8,521.8 68.5,521.8 78.8,545.7 71,541.2 78.8,559 
		38.3,544.6 49.4,534.6 41.6,534 52.7,520.2 46.6,521.3 56,504.6 50.5,505.7 58.5,491.9 53.3,493 	"/>
	<polygon points="43.8,470.3 54.4,497.4 49.1,494.1 54.4,508.5 49.1,508.5 54.4,522.4 49.1,522.4 59.4,546.2 51.6,541.8 59.4,559.5 
		18.9,545.1 30,535.1 22.2,534.6 33.3,520.7 27.2,521.8 36.6,505.2 31.1,506.3 39.1,492.4 33.9,493.5 	"/>
	<polygon points="23.6,469.7 34.1,496.9 28.9,493.6 34.1,508 28.9,508 34.1,521.8 28.9,521.8 39.1,545.7 31.4,541.2 39.1,559 
		-1.4,544.6 9.7,534.6 2,534 13.1,520.2 7,521.3 16.4,504.7 10.8,505.8 18.9,491.9 13.6,493 	"/>
	<polygon points="182.3,481 192.8,508.2 187.6,504.8 192.8,519.3 187.6,519.3 192.8,533.1 187.6,533.1 197.8,557 190.1,552.5 
		197.8,570.3 157.4,555.8 168.4,545.9 160.7,545.3 171.8,531.5 165.7,532.6 175.1,515.9 169.6,517 177.6,503.2 172.3,504.3 	"/>
	<polygon points="440.9,473.3 451.4,500.5 446.1,497.2 451.4,511.6 446.1,511.6 451.4,525.4 446.1,525.4 456.4,549.3 448.6,544.9 
		456.4,562.6 415.9,548.2 427,538.2 419.2,537.6 430.3,523.8 424.2,524.9 433.7,508.3 428.1,509.4 436.2,495.5 430.9,496.6 	"/>
	<polygon points="464.9,476.7 475.4,503.8 470.1,500.5 475.4,514.9 470.1,514.9 475.4,528.8 470.1,528.8 480.4,552.6 472.6,548.2 
		480.4,565.9 439.9,551.5 451,541.5 443.2,541 454.3,527.1 448.2,528.2 457.7,511.6 452.1,512.7 460.2,498.8 454.9,499.9 	"/>
	<polygon points="482.9,463.3 490.8,490.4 486.9,487.1 490.8,501.5 486.9,501.5 490.8,515.4 486.9,515.4 494.6,539.2 488.8,534.8 
		494.6,552.5 464.2,538.1 472.6,528.1 466.7,527.6 475,513.7 470.5,514.8 477.5,498.2 473.4,499.3 479.4,485.4 475.5,486.6 	"/>
	<polygon points="494.3,485.5 512,508.7 506,506.9 515,519.3 510,520.8 518.9,532.7 513.8,534.1 530.3,554.2 521.6,552.1 534,567 
		491.1,564.3 499,551.7 491.4,553.3 498.2,536.9 492.6,539.6 497.1,521.1 492.1,523.7 495.9,508.1 491.2,510.6 	"/>
	<polygon points="525.5,476 536.1,503.2 530.8,499.8 536.1,514.2 530.8,514.2 536.1,528.1 530.8,528.1 541.1,551.9 533.3,547.5 
		541.1,565.2 500.6,550.8 511.7,540.9 503.9,540.3 515,526.4 508.9,527.5 518.3,510.9 512.8,512 520.8,498.2 515.6,499.3 	"/>
	<polygon points="548.2,470.1 558.7,497.2 553.5,493.9 558.7,508.3 553.5,508.3 558.7,522.2 553.5,522.2 563.7,546 556,541.6 
		563.7,559.3 523.3,544.9 534.3,534.9 526.6,534.4 537.7,520.5 531.6,521.6 541,505 535.5,506.1 543.5,492.2 538.2,493.3 	"/>
	<polygon points="574.9,471.7 585.4,498.8 580.1,495.5 585.4,509.9 580.1,509.9 585.4,523.8 580.1,523.8 590.4,547.6 582.6,543.2 
		590.4,560.9 549.9,546.5 561,536.5 553.2,536 564.3,522.1 558.2,523.2 567.7,506.6 562.1,507.7 570.2,493.8 564.9,494.9 	"/>
	<polygon points="598.2,470.1 608.7,497.3 603.5,493.9 608.7,508.4 603.5,508.4 608.7,522.2 603.5,522.2 613.7,546.1 606,541.6 
		613.7,559.4 573.3,545 584.3,535 576.6,534.4 587.7,520.6 581.6,521.7 591,505 585.5,506.1 593.5,492.3 588.2,493.4 	"/>
	<polygon points="620.2,478.4 630.7,505.5 625.5,502.2 630.7,516.6 625.5,516.6 630.7,530.5 625.5,530.5 635.7,554.3 628,549.9 
		635.7,567.6 595.3,553.2 606.3,543.2 598.6,542.7 609.7,528.8 603.6,529.9 613,513.3 607.5,514.4 615.5,500.6 610.2,501.7 	"/>
	<polygon points="642.9,469.4 653.4,496.5 648.1,493.2 653.4,507.6 648.1,507.6 653.4,521.5 648.1,521.5 658.4,545.3 650.6,540.9 
		658.4,558.6 617.9,544.2 629,534.2 621.2,533.7 632.3,519.8 626.2,520.9 635.7,504.3 630.1,505.4 638.2,491.6 632.9,492.7 	"/>
	<polygon points="664.1,473 680.8,496.9 674.9,494.9 683.4,507.6 678.3,508.9 686.8,521.1 681.6,522.3 697.3,543 688.7,540.6 
		700.5,556 657.7,551.6 666.1,539.3 658.5,540.6 665.9,524.5 660.2,527 665.4,508.6 660.3,511 664.8,495.7 659.9,498 	"/>
	<polygon points="653.2,467 660.3,494.2 656.8,490.9 660.3,505.3 656.8,505.3 660.3,519.1 656.8,519.1 663.7,543 658.4,538.5 
		663.7,556.3 636.4,541.9 643.9,531.9 638.7,531.3 646.1,517.5 642,518.6 648.4,502 644.6,503.1 650,489.2 646.5,490.3 	"/>
	<polygon points="705.5,477.8 716.1,504.9 710.8,501.6 716.1,516 710.8,516 716.1,529.9 710.8,529.9 721.1,553.7 713.3,549.3 
		721.1,567 680.6,552.6 691.7,542.6 683.9,542.1 695,528.2 688.9,529.3 698.3,512.7 692.8,513.8 700.8,499.9 695.6,501.1 	"/>
	<polygon points="730.2,471 740.7,498.2 735.5,494.9 740.7,509.3 735.5,509.3 740.7,523.1 735.5,523.1 745.7,547 738,542.5 
		745.7,560.3 705.3,545.9 716.3,535.9 708.6,535.3 719.7,521.5 713.6,522.6 723,506 717.5,507.1 725.5,493.2 720.2,494.3 	"/>
	<polygon points="752.9,469.4 763.4,496.5 758.1,493.2 763.4,507.6 758.1,507.6 763.4,521.5 758.1,521.5 768.4,545.3 760.6,540.9 
		768.4,558.6 727.9,544.2 739,534.2 731.2,533.7 742.3,519.8 736.2,520.9 745.7,504.3 740.1,505.4 748.2,491.6 742.9,492.7 	"/>
	<polygon points="775.5,467.2 786.1,494.4 780.8,491.1 786.1,505.5 780.8,505.5 786.1,519.3 780.8,519.3 791.1,543.2 783.3,538.7 
		791.1,556.5 750.6,542.1 761.7,532.1 753.9,531.5 765,517.7 758.9,518.8 768.3,502.1 762.8,503.3 770.8,489.4 765.6,490.5 	"/>
	<polygon points="796.9,471.2 807.4,498.4 802.1,495 807.4,509.5 802.1,509.5 807.4,523.3 802.1,523.3 812.4,547.2 804.6,542.7 
		812.4,560.5 771.9,546 783,536.1 775.2,535.5 786.3,521.7 780.2,522.8 789.7,506.1 784.1,507.2 792.2,493.4 786.9,494.5 	"/>
	<polygon points="315.5,504.1 326.1,531.3 320.8,527.9 326.1,542.4 320.8,542.4 326.1,556.2 320.8,556.2 331.1,580.1 323.3,575.6 
		331.1,593.4 290.6,579 301.7,569 293.9,568.4 305,554.6 298.9,555.7 308.3,539 302.8,540.1 310.8,526.3 305.6,527.4 	"/>
	<polygon points="827.2,471.8 837.7,499 832.5,495.6 837.7,510 832.5,510 837.7,523.9 832.5,523.9 842.7,547.7 835,543.3 
		842.7,561.1 802.3,546.6 813.3,536.7 805.6,536.1 816.7,522.2 810.6,523.4 820,506.7 814.5,507.8 822.5,494 817.2,495.1 	"/>
	<polygon points="855.2,469.5 865.7,496.7 860.5,493.3 865.7,507.8 860.5,507.8 865.7,521.6 860.5,521.6 870.7,545.5 863,541 
		870.7,558.8 830.3,544.3 841.3,534.4 833.6,533.8 844.7,519.9 838.6,521.1 848,504.4 842.5,505.5 850.5,491.7 845.2,492.8 	"/>
	<polygon points="805.2,480.3 821,504.7 815.2,502.5 823.3,515.5 818.2,516.6 826.2,529.1 821,530.2 835.9,551.4 827.4,548.7 
		838.7,564.4 796.1,558.6 804.9,546.6 797.2,547.6 805.2,531.8 799.5,534.1 805.3,515.9 800.1,518.1 805.1,502.9 800.2,505.1 	"/>
	<polygon points="994.1,465.7 1004.6,492.8 999.4,489.5 1004.6,503.9 999.4,503.9 1004.6,517.8 999.4,517.8 1009.6,541.6 
		1001.9,537.2 1009.6,554.9 969.1,540.5 980.2,530.5 972.5,530 983.6,516.1 977.5,517.2 986.9,500.6 981.3,501.7 989.4,487.8 
		984.1,488.9 	"/>
	<polygon points="966.4,468 978.2,493.8 973.7,491 979.8,504.7 975.8,505.3 981.7,518.5 977.7,519 988.9,541.5 982.3,538 
		990.7,554.7 957.9,544.8 965,533.7 959,534 965.5,519.1 961,520.8 965.8,503.3 961.7,505 965.9,490.5 962.1,492.1 	"/>
	<polygon points="956.2,474.3 966.8,501.4 961.5,498.1 966.8,512.5 961.5,512.5 966.8,526.4 961.5,526.4 971.8,550.2 964,545.8 
		971.8,563.5 931.3,549.1 942.4,539.1 934.6,538.6 945.7,524.7 939.6,525.8 949,509.2 943.5,510.3 951.5,496.4 946.3,497.5 	"/>
	<polygon points="922.6,475.4 933.1,502.5 927.8,499.2 933.1,513.6 927.8,513.6 933.1,527.5 927.8,527.5 938.1,551.3 930.3,546.9 
		938.1,564.6 897.6,550.2 908.7,540.2 900.9,539.7 912,525.8 905.9,526.9 915.4,510.3 909.8,511.4 917.9,497.5 912.6,498.7 	"/>
	<polygon points="938.2,474.3 944.6,501.4 941.4,498.1 944.6,512.5 941.4,512.5 944.6,526.4 941.4,526.4 947.7,550.2 942.9,545.8 
		947.7,563.5 922.9,549.1 929.7,539.1 925,538.6 931.7,524.7 928,525.8 933.8,509.2 930.4,510.3 935.3,496.5 932.1,497.6 	"/>
	<polygon points="887.6,476 904.4,499.8 898.5,497.9 907,510.6 901.9,511.9 910.4,524 905.3,525.3 920.9,546 912.3,543.6 
		924.1,558.9 881.4,554.6 889.8,542.3 882.1,543.6 889.5,527.5 883.9,530 889,511.6 883.9,514 888.4,498.6 883.5,501 	"/>
	<polygon points="867.7,475.9 878.2,503.1 872.9,499.8 878.2,514.2 872.9,514.2 878.2,528 872.9,528 883.2,551.9 875.4,547.4 
		883.2,565.2 842.7,550.8 853.8,540.8 846.1,540.2 857.1,526.4 851,527.5 860.5,510.9 854.9,512 863,498.1 857.7,499.2 	"/>
	<polygon points="909,490.6 916.7,517.8 912.8,514.5 916.7,528.9 912.8,528.9 916.7,542.7 912.8,542.7 920.3,566.6 914.7,562.1 
		920.3,579.9 890.7,565.5 898.8,555.5 893.1,554.9 901.3,541.1 896.8,542.2 903.7,525.5 899.6,526.7 905.5,512.8 901.7,513.9 	"/>
	<polygon points="1007.7,500.4 1012.3,529.2 1007.8,524.9 1009.9,540.1 1004.8,538.9 1007,553.6 1001.8,552.5 1006.8,578 
		1000.1,572 1004,591 967.5,568.3 980.4,560.9 972.9,558.7 986.7,547.5 980.5,547.3 993.3,533 987.6,533 998.4,521.1 993,521.1 	"/>
	<polygon points="972.1,506.5 982.6,533.6 977.4,530.3 982.6,544.7 977.4,544.7 982.6,558.6 977.4,558.6 987.6,582.4 979.9,578 
		987.6,595.7 947.1,581.3 958.2,571.3 950.5,570.8 961.6,556.9 955.5,558 964.9,541.4 959.3,542.5 967.4,528.7 962.1,529.8 	"/>
	<polygon points="1022.4,477.9 1033,505 1027.7,501.7 1033,516.1 1027.7,516.1 1033,530 1027.7,530 1037.9,553.8 1030.2,549.4 
		1037.9,567.1 997.5,552.7 1008.6,542.7 1000.8,542.2 1011.9,528.3 1005.8,529.4 1015.2,512.8 1009.7,513.9 1017.7,500.1 
		1012.4,501.2 	"/>
	<polygon points="1051.2,467.1 1061.8,494.2 1056.5,490.9 1061.8,505.3 1056.5,505.3 1061.8,519.2 1056.5,519.2 1066.8,543 
		1059,538.6 1066.8,556.3 1026.3,541.9 1037.4,531.9 1029.6,531.4 1040.7,517.5 1034.6,518.6 1044,502 1038.5,503.1 1046.5,489.2 
		1041.2,490.4 	"/>
	<polygon points="1023.5,469.4 1035.3,495.2 1030.9,492.4 1036.9,506.1 1032.9,506.7 1038.9,519.9 1034.8,520.4 1046,542.9 
		1039.5,539.4 1047.9,556.1 1015.1,546.2 1022.1,535.1 1016.1,535.4 1022.6,520.5 1018.1,522.2 1022.9,504.8 1018.9,506.5 
		1023.1,491.9 1019.2,493.5 	"/>
	<polygon points="1013.4,475.7 1023.9,502.8 1018.7,499.5 1023.9,513.9 1018.7,513.9 1023.9,527.8 1018.7,527.8 1028.9,551.6 
		1021.1,547.2 1028.9,564.9 988.4,550.5 999.5,540.5 991.8,540 1002.9,526.1 996.8,527.2 1006.2,510.6 1000.6,511.7 1008.7,497.8 
		1003.4,499 	"/>
	<polygon points="979.7,476.8 990.2,503.9 985,500.6 990.2,515 985,515 990.2,528.9 985,528.9 995.2,552.7 987.5,548.3 995.2,566 
		954.8,551.6 965.8,541.6 958.1,541.1 969.2,527.2 963.1,528.3 972.5,511.7 966.9,512.8 975,499 969.7,500.1 	"/>
	<polygon points="995.3,475.7 1001.7,502.9 998.5,499.5 1001.7,513.9 998.5,513.9 1001.7,527.8 998.5,527.8 1004.8,551.6 
		1000.1,547.2 1004.8,564.9 980.1,550.5 986.8,540.6 982.1,540 988.9,526.1 985.1,527.2 990.9,510.6 987.5,511.7 992.4,497.9 
		989.2,499 	"/>
	<polygon points="944.8,477.4 961.5,501.2 955.6,499.3 964.2,512 959.1,513.3 967.5,525.5 962.4,526.7 978.1,547.4 969.5,545 
		981.3,560.3 938.5,556 946.9,543.7 939.2,545 946.7,528.9 941,531.4 946.2,513 941,515.4 945.5,500.1 940.7,502.4 	"/>
	<polygon points="924.8,477.3 935.3,504.5 930.1,501.2 935.3,515.6 930.1,515.6 935.3,529.5 930.1,529.5 940.3,553.3 932.6,548.9 
		940.3,566.6 899.9,552.2 911,542.2 903.2,541.6 914.3,527.8 908.2,528.9 917.6,512.3 912.1,513.4 920.1,499.5 914.8,500.6 	"/>
	<polygon points="966.1,492 973.8,519.2 970,515.9 973.8,530.3 970,530.3 973.8,544.1 970,544.1 977.5,568 971.8,563.5 977.5,581.3 
		947.8,566.9 956,556.9 950.3,556.3 958.4,542.5 953.9,543.6 960.8,527 956.8,528.1 962.7,514.2 958.8,515.3 	"/>
	<polygon points="1064.9,501.8 1069.4,530.6 1064.9,526.3 1067,541.5 1061.9,540.3 1064.1,555 1059,553.9 1063.9,579.4 
		1057.3,573.4 1061.1,592.4 1024.6,569.7 1037.6,562.3 1030.1,560.1 1043.9,548.9 1037.7,548.7 1050.4,534.5 1044.8,534.4 
		1055.5,522.5 1050.2,522.5 	"/>
	<polygon points="1029.2,507.9 1039.8,535.1 1034.5,531.7 1039.8,546.1 1034.5,546.1 1039.8,560 1034.5,560 1044.8,583.8 
		1037,579.4 1044.8,597.2 1004.3,582.7 1015.4,572.8 1007.6,572.2 1018.7,558.3 1012.6,559.5 1022,542.8 1016.5,543.9 1024.5,530.1 
		1019.3,531.2 	"/>
	<polygon points="1070.9,469.8 1081.5,497 1076.2,493.7 1081.5,508.1 1076.2,508.1 1081.5,522 1076.2,522 1086.4,545.8 
		1078.7,541.4 1086.4,559.1 1046,544.7 1057.1,534.7 1049.3,534.2 1060.4,520.3 1054.3,521.4 1063.7,504.8 1058.2,505.9 1066.2,492 
		1060.9,493.1 	"/>
	<polygon points="896.5,455.5 907,482.7 901.7,479.4 907,493.8 901.7,493.8 907,507.6 901.7,507.6 912,531.5 904.2,527 912,544.8 
		871.5,530.4 882.6,520.4 874.9,519.8 885.9,506 879.8,507.1 889.3,490.4 883.7,491.6 891.8,477.7 886.5,478.8 	"/>
	<polygon points="868.8,457.8 880.6,483.6 876.1,480.9 882.2,494.6 878.2,495.2 884.1,508.3 880.1,508.9 891.2,531.4 884.7,527.8 
		893.1,544.5 860.3,534.6 867.3,523.6 861.4,523.9 867.8,508.9 863.4,510.7 868.2,493.2 864.1,494.9 868.3,480.3 864.5,482 	"/>
	<polygon points="858.6,464.1 869.2,491.3 863.9,488 869.2,502.4 863.9,502.4 869.2,516.2 863.9,516.2 874.2,540.1 866.4,535.6 
		874.2,553.4 833.7,539 844.8,529 837,528.4 848.1,514.6 842,515.7 851.4,499 845.9,500.2 853.9,486.3 848.7,487.4 	"/>
	<polygon points="825,465.2 835.5,492.4 830.2,489.1 835.5,503.5 830.2,503.5 835.5,517.3 830.2,517.3 840.5,541.2 832.7,536.7 
		840.5,554.5 800,540.1 811.1,530.1 803.3,529.5 814.4,515.7 808.3,516.8 817.7,500.2 812.2,501.3 820.2,487.4 815,488.5 	"/>
	<polygon points="840.6,464.1 847,491.3 843.8,488 847,502.4 843.8,502.4 847,516.2 843.8,516.2 850,540.1 845.3,535.7 850,553.4 
		825.3,539 832.1,529 827.3,528.4 834.1,514.6 830.4,515.7 836.2,499.1 832.8,500.2 837.7,486.3 834.5,487.4 	"/>
	<polygon points="790,465.8 806.8,489.7 800.9,487.7 809.4,500.4 804.3,501.7 812.8,513.9 807.7,515.2 823.3,535.9 814.7,533.4 
		826.5,548.8 783.8,544.5 792.1,532.1 784.5,533.5 791.9,517.3 786.3,519.9 791.4,501.5 786.3,503.9 790.8,488.5 785.9,490.8 	"/>
	<polygon points="770.1,465.8 780.6,493 775.3,489.6 780.6,504 775.3,504 780.6,517.9 775.3,517.9 785.6,541.7 777.8,537.3 
		785.6,555 745.1,540.6 756.2,530.7 748.4,530.1 759.5,516.2 753.4,517.3 762.9,500.7 757.3,501.8 765.4,488 760.1,489.1 	"/>
	<polygon points="811.4,480.5 819.1,507.6 815.2,504.3 819.1,518.7 815.2,518.7 819.1,532.6 815.2,532.6 822.7,556.4 817,552 
		822.7,569.7 793.1,555.3 801.2,545.3 795.5,544.8 803.7,530.9 799.2,532 806.1,515.4 802,516.5 807.9,502.7 804.1,503.8 	"/>
	<polygon points="910.1,490.3 914.6,519.1 910.2,514.7 912.3,529.9 907.1,528.8 909.4,543.5 904.2,542.3 909.2,567.8 902.5,561.8 
		906.4,580.8 869.9,558.1 882.8,550.7 875.3,548.6 889.1,537.4 882.9,537.2 895.7,522.9 890,522.8 900.8,511 895.4,510.9 	"/>
	<polygon points="874.5,496.3 885,523.5 879.8,520.2 885,534.6 879.8,534.6 885,548.5 879.8,548.5 890,572.3 882.2,567.9 890,585.6 
		849.5,571.2 860.6,561.2 852.9,560.7 864,546.8 857.9,547.9 867.3,531.3 861.7,532.4 869.8,518.5 864.5,519.6 	"/>
	<polygon points="924.8,467.7 935.3,494.9 930.1,491.6 935.3,506 930.1,506 935.3,519.9 930.1,519.9 940.3,543.7 932.6,539.3 
		940.3,557 899.9,542.6 911,532.6 903.2,532.1 914.3,518.2 908.2,519.3 917.6,502.7 912.1,503.8 920.1,489.9 914.8,491 	"/>
	<polygon points="134.5,457.5 145,484.6 139.7,481.3 145,495.7 139.7,495.7 145,509.6 139.7,509.6 150,533.4 142.2,529 150,546.7 
		109.5,532.3 120.6,522.3 112.8,521.8 123.9,507.9 117.8,509 127.3,492.4 121.7,493.5 129.8,479.6 124.5,480.8 	"/>
	<polygon points="106.8,459.8 118.6,485.6 114.1,482.8 120.1,496.5 116.1,497.1 122.1,510.3 118.1,510.8 129.2,533.3 122.7,529.8 
		131.1,546.5 98.3,536.6 105.3,525.5 99.3,525.8 105.8,510.9 101.4,512.6 106.2,495.2 102.1,496.9 106.3,482.3 102.4,483.9 	"/>
	<polygon points="96.6,466.1 107.2,493.2 101.9,489.9 107.2,504.3 101.9,504.3 107.2,518.2 101.9,518.2 112.1,542 104.4,537.6 
		112.1,555.3 71.7,540.9 82.8,530.9 75,530.4 86.1,516.5 80,517.6 89.4,501 83.9,502.1 91.9,488.2 86.6,489.4 	"/>
	<polygon points="62.9,467.2 73.5,494.3 68.2,491 73.5,505.4 68.2,505.4 73.5,519.3 68.2,519.3 78.5,543.1 70.7,538.7 78.5,556.4 
		38,542 49.1,532 41.3,531.5 52.4,517.6 46.3,518.7 55.7,502.1 50.2,503.2 58.2,489.4 53,490.5 	"/>
	<polygon points="78.5,466.1 85,493.3 81.8,489.9 85,504.3 81.8,504.3 85,518.2 81.8,518.2 88,542 83.3,537.6 88,555.3 63.3,540.9 
		70.1,531 65.3,530.4 72.1,516.5 68.4,517.6 74.1,501 70.8,502.1 75.7,488.3 72.4,489.4 	"/>
	<polygon points="28,467.8 44.8,491.6 38.9,489.7 47.4,502.4 42.3,503.7 50.8,515.9 45.6,517.1 61.3,537.8 52.7,535.4 64.5,550.7 
		21.8,546.4 30.1,534.1 22.5,535.4 29.9,519.3 24.2,521.8 29.4,503.4 24.3,505.8 28.8,490.5 23.9,492.8 	"/>
	<polygon points="8.1,467.7 18.6,494.9 13.3,491.6 18.6,506 13.3,506 18.6,519.9 13.3,519.9 23.6,543.7 15.8,539.3 23.6,557 
		-16.9,542.6 -5.8,532.6 -13.6,532.1 -2.5,518.2 -8.6,519.3 0.8,502.7 -4.7,503.8 3.3,489.9 -1.9,491 	"/>
	<polygon points="49.3,482.4 57.1,509.6 53.2,506.3 57.1,520.7 53.2,520.7 57.1,534.5 53.2,534.5 60.7,558.4 55,554 60.7,571.7 
		31.1,557.3 39.2,547.3 33.5,546.7 41.6,532.9 37.2,534 44.1,517.4 40,518.5 45.9,504.6 42,505.7 	"/>
	<polygon points="148.1,492.2 152.6,521 148.2,516.7 150.3,531.9 145.1,530.8 147.3,545.4 142.2,544.3 147.2,569.8 140.5,563.8 
		144.3,582.8 107.8,560.1 120.8,552.7 113.3,550.5 127.1,539.3 120.9,539.1 133.6,524.9 128,524.8 138.8,512.9 133.4,512.9 	"/>
	<polygon points="112.5,498.3 123,525.5 117.7,522.1 123,536.5 117.7,536.5 123,550.4 117.7,550.4 128,574.2 120.2,569.8 128,587.6 
		87.5,573.1 98.6,563.2 90.9,562.6 101.9,548.7 95.8,549.9 105.3,533.2 99.7,534.3 107.8,520.5 102.5,521.6 	"/>
	<polygon points="162.8,469.7 173.3,496.9 168.1,493.5 173.3,507.9 168.1,507.9 173.3,521.8 168.1,521.8 178.3,545.6 170.6,541.2 
		178.3,559 137.9,544.5 148.9,534.6 141.2,534 152.3,520.1 146.2,521.3 155.6,504.6 150,505.7 158.1,491.9 152.8,493 	"/>
	<polygon points="321,466.4 330.2,493.6 325.6,490.3 330.2,504.7 325.6,504.7 330.2,518.5 325.6,518.5 334.5,542.4 327.8,537.9 
		334.5,555.7 299.2,541.3 308.9,531.3 302.1,530.7 311.8,516.9 306.5,518 314.7,501.3 309.8,502.5 316.9,488.6 312.3,489.7 	"/>
	<polygon points="296.8,468.7 307.1,494.5 303.2,491.8 308.5,505.5 305,506.1 310.2,519.2 306.7,519.8 316.4,542.3 310.7,538.7 
		318,555.4 289.4,545.5 295.5,534.5 290.3,534.8 296,519.8 292.1,521.6 296.3,504.1 292.7,505.8 296.4,491.2 293,492.9 	"/>
	<polygon points="287.9,475 297.1,502.2 292.5,498.9 297.1,513.3 292.5,513.3 297.1,527.1 292.5,527.1 301.5,551 294.7,546.5 
		301.5,564.3 266.2,549.9 275.8,539.9 269.1,539.3 278.7,525.5 273.4,526.6 281.6,509.9 276.8,511.1 283.8,497.2 279.2,498.3 	"/>
	<polygon points="258.5,476.1 267.7,503.3 263.1,500 267.7,514.4 263.1,514.4 267.7,528.2 263.1,528.2 272.1,552.1 265.3,547.6 
		272.1,565.4 236.7,551 246.4,541 239.6,540.4 249.3,526.6 244,527.7 252.2,511.1 247.4,512.2 254.4,498.3 249.8,499.4 	"/>
	<polygon points="272.2,475 277.8,502.2 275,498.9 277.8,513.3 275,513.3 277.8,527.1 275,527.1 280.4,551 276.3,546.6 280.4,564.3 
		258.8,549.9 264.8,539.9 260.6,539.3 266.5,525.5 263.3,526.6 268.3,510 265.4,511.1 269.6,497.2 266.8,498.3 	"/>
	<polygon points="228,476.7 242.7,500.6 237.5,498.6 245,511.4 240.5,512.6 247.9,524.8 243.4,526.1 257.1,546.8 249.6,544.3 
		259.9,559.7 222.6,555.4 229.9,543 223.2,544.4 229.7,528.2 224.7,530.8 229.2,512.4 224.8,514.8 228.7,499.4 224.5,501.7 	"/>
	<polygon points="210.6,476.7 219.8,503.9 215.2,500.5 219.8,514.9 215.2,514.9 219.8,528.8 215.2,528.8 224.2,552.6 217.4,548.2 
		224.2,565.9 188.8,551.5 198.5,541.6 191.7,541 201.4,527.1 196.1,528.2 204.3,511.6 199.5,512.7 206.5,498.9 201.9,500 	"/>
	<polygon points="246.7,491.4 253.4,518.5 250,515.2 253.4,529.6 250,529.6 253.4,543.5 250,543.5 256.6,567.3 251.6,562.9 
		256.6,580.6 230.7,566.2 237.8,556.2 232.8,555.7 239.9,541.8 236,542.9 242.1,526.3 238.5,527.4 243.6,513.6 240.3,514.7 	"/>
	<polygon points="332.9,501.2 336.8,530 333,525.6 334.8,540.8 330.3,539.7 332.2,554.4 327.7,553.2 332.1,578.7 326.3,572.7 
		329.6,591.7 297.7,569 309,561.6 302.5,559.5 314.5,548.3 309.1,548.1 320.3,533.8 315.3,533.7 324.7,521.9 320,521.8 	"/>
	<polygon points="301.8,507.2 311,534.4 306.4,531.1 311,545.5 306.4,545.5 311,559.4 306.4,559.4 315.3,583.2 308.6,578.8 
		315.3,596.5 280,582.1 289.7,572.1 282.9,571.6 292.6,557.7 287.3,558.8 295.5,542.2 290.6,543.3 297.7,529.4 293.1,530.5 	"/>
	<polygon points="345.7,478.6 354.9,505.8 350.3,502.5 354.9,516.9 350.3,516.9 354.9,530.8 350.3,530.8 359.3,554.6 352.5,550.2 
		359.3,567.9 323.9,553.5 333.6,543.5 326.8,543 336.5,529.1 331.2,530.2 339.4,513.6 334.6,514.7 341.6,500.8 337,501.9 	"/>
	<polygon points="665,463.7 675.5,490.9 670.3,487.5 675.5,502 670.3,502 675.5,515.8 670.3,515.8 680.5,539.7 672.8,535.2 
		680.5,553 640.1,538.5 651.1,528.6 643.4,528 654.5,514.1 648.4,515.3 657.8,498.6 652.3,499.7 660.3,485.9 655,487 	"/>
	<polygon points="637.3,466 649.1,491.8 644.7,489.1 650.7,502.8 646.7,503.3 652.6,516.5 648.6,517.1 659.8,539.6 653.2,536 
		661.6,552.7 628.8,542.8 635.9,531.7 629.9,532 636.4,517.1 631.9,518.9 636.7,501.4 632.7,503.1 636.8,488.5 633,490.2 	"/>
	<polygon points="627.2,472.3 637.7,499.5 632.4,496.1 637.7,510.6 632.4,510.6 637.7,524.4 632.4,524.4 642.7,548.3 634.9,543.8 
		642.7,561.6 602.2,547.1 613.3,537.2 605.5,536.6 616.6,522.7 610.5,523.9 620,507.2 614.4,508.3 622.5,494.5 617.2,495.6 	"/>
	<polygon points="593.5,473.4 604,500.6 598.7,497.2 604,511.7 598.7,511.7 604,525.5 598.7,525.5 609,549.4 601.2,544.9 609,562.7 
		568.5,548.3 579.6,538.3 571.9,537.7 582.9,523.9 576.8,525 586.3,508.3 580.7,509.4 588.8,495.6 583.5,496.7 	"/>
	<polygon points="609.1,472.3 615.5,499.5 612.3,496.2 615.5,510.6 612.3,510.6 615.5,524.4 612.3,524.4 618.6,548.3 613.8,543.8 
		618.6,561.6 593.8,547.2 600.6,537.2 595.9,536.6 602.6,522.8 598.9,523.9 604.7,507.2 601.3,508.4 606.2,494.5 603,495.6 	"/>
	<polygon points="558.6,474 575.3,497.9 569.4,495.9 578,508.6 572.8,509.9 581.3,522.1 576.2,523.4 591.9,544 583.3,541.6 595,557 
		552.3,552.7 560.7,540.3 553,541.6 560.4,525.5 554.8,528.1 559.9,509.7 554.8,512.1 559.3,496.7 554.5,499 	"/>
	<polygon points="538.6,474 549.1,501.1 543.9,497.8 549.1,512.2 543.9,512.2 549.1,526.1 543.9,526.1 554.1,549.9 546.4,545.5 
		554.1,563.2 513.6,548.8 524.7,538.8 517,538.3 528.1,524.4 522,525.5 531.4,508.9 525.8,510 533.9,496.1 528.6,497.3 	"/>
	<polygon points="579.9,488.7 587.6,515.8 583.7,512.5 587.6,526.9 583.7,526.9 587.6,540.8 583.7,540.8 591.2,564.6 585.6,560.2 
		591.2,577.9 561.6,563.5 569.7,553.5 564.1,553 572.2,539.1 567.7,540.2 574.6,523.6 570.6,524.7 576.4,510.8 572.6,511.9 	"/>
	<polygon points="678.6,498.5 683.2,527.3 678.7,522.9 680.8,538.1 675.7,537 677.9,551.6 672.7,550.5 677.7,576 671.1,570 
		674.9,589 638.4,566.3 651.3,558.9 643.9,556.7 657.6,545.5 651.4,545.3 664.2,531.1 658.5,531 669.3,519.1 663.9,519.1 	"/>
	<polygon points="643,504.5 653.5,531.7 648.3,528.4 653.5,542.8 648.3,542.8 653.5,556.6 648.3,556.6 658.5,580.5 650.8,576 
		658.5,593.8 618.1,579.4 629.2,569.4 621.4,568.8 632.5,555 626.4,556.1 635.8,539.4 630.3,540.6 638.3,526.7 633,527.8 	"/>
	<polygon points="693.3,475.9 703.9,503.1 698.6,499.8 703.9,514.2 698.6,514.2 703.9,528 698.6,528 708.9,551.9 701.1,547.4 
		708.9,565.2 668.4,550.8 679.5,540.8 671.7,540.2 682.8,526.4 676.7,527.5 686.1,510.8 680.6,512 688.6,498.1 683.4,499.2 	"/>
	<polygon points="547.1,470.2 557.7,497.4 552.4,494 557.7,508.5 552.4,508.5 557.7,522.3 552.4,522.3 562.6,546.2 554.9,541.7 
		562.6,559.5 522.2,545.1 533.3,535.1 525.5,534.5 536.6,520.7 530.5,521.8 539.9,505.1 534.4,506.2 542.4,492.4 537.1,493.5 	"/>
	<polygon points="519.4,472.5 531.2,498.3 526.8,495.6 532.8,509.3 528.8,509.8 534.7,523 530.7,523.6 541.9,546.1 535.4,542.5 
		543.8,559.2 510.9,549.3 518,538.3 512,538.5 518.5,523.6 514,525.4 518.8,507.9 514.8,509.6 518.9,495 515.1,496.7 	"/>
	<polygon points="509.3,478.8 519.8,506 514.5,502.6 519.8,517.1 514.5,517.1 519.8,530.9 514.5,530.9 524.8,554.8 517,550.3 
		524.8,568.1 484.3,553.7 495.4,543.7 487.7,543.1 498.7,529.3 492.6,530.4 502.1,513.7 496.5,514.8 504.6,501 499.3,502.1 	"/>
	<polygon points="475.6,479.9 486.1,507.1 480.9,503.8 486.1,518.2 480.9,518.2 486.1,532 480.9,532 491.1,555.9 483.4,551.4 
		491.1,569.2 450.6,554.8 461.7,544.8 454,544.2 465.1,530.4 459,531.5 468.4,514.8 462.8,516 470.9,502.1 465.6,503.2 	"/>
	<polygon points="491.2,478.8 497.6,506 494.4,502.7 497.6,517.1 494.4,517.1 497.6,530.9 494.4,530.9 500.7,554.8 495.9,550.3 
		500.7,568.1 476,553.7 482.7,543.7 478,543.1 484.8,529.3 481,530.4 486.8,513.8 483.4,514.9 488.3,501 485.1,502.1 	"/>
	<polygon points="440.7,480.5 457.4,504.4 451.5,502.4 460.1,515.1 455,516.4 463.4,528.6 458.3,529.9 474,550.5 465.4,548.1 
		477.2,563.5 434.4,559.2 442.8,546.8 435.1,548.2 442.6,532 436.9,534.6 442.1,516.2 436.9,518.6 441.4,503.2 436.6,505.5 	"/>
	<polygon points="420.7,480.5 431.2,507.6 426,504.3 431.2,518.7 426,518.7 431.2,532.6 426,532.6 436.2,556.4 428.5,552 
		436.2,569.7 395.8,555.3 406.8,545.3 399.1,544.8 410.2,530.9 404.1,532 413.5,515.4 408,516.5 416,502.7 410.7,503.8 	"/>
	<polygon points="462,495.2 469.7,522.3 465.9,519 469.7,533.4 465.9,533.4 469.7,547.3 465.9,547.3 473.4,571.1 467.7,566.7 
		473.4,584.4 443.7,570 451.9,560 446.2,559.5 454.3,545.6 449.8,546.7 456.7,530.1 452.7,531.2 458.6,517.3 454.7,518.5 	"/>
	<polygon points="560.7,505 565.3,533.8 560.8,529.4 562.9,544.6 557.8,543.5 560,558.1 554.8,557 559.8,582.5 553.2,576.5 
		557,595.5 520.5,572.8 533.4,565.4 526,563.3 539.8,552.1 533.6,551.8 546.3,537.6 540.6,537.5 551.4,525.7 546.1,525.6 	"/>
	<polygon points="525.1,511 535.7,538.2 530.4,534.9 535.7,549.3 530.4,549.3 535.7,563.1 530.4,563.1 540.7,587 532.9,582.6 
		540.7,600.3 500.2,585.9 511.3,575.9 503.5,575.3 514.6,561.5 508.5,562.6 517.9,546 512.4,547.1 520.4,533.2 515.1,534.3 	"/>
	<polygon points="575.5,482.4 586,509.6 580.7,506.3 586,520.7 580.7,520.7 586,534.5 580.7,534.5 591,558.4 583.2,554 591,571.7 
		550.5,557.3 561.6,547.3 553.8,546.7 564.9,532.9 558.8,534 568.2,517.4 562.7,518.5 570.7,504.6 565.5,505.7 	"/>
	<polygon points="801.9,457.3 812.4,484.5 807.2,481.1 812.4,495.6 807.2,495.6 812.4,509.4 807.2,509.4 817.4,533.3 809.7,528.8 
		817.4,546.6 777,532.1 788.1,522.2 780.3,521.6 791.4,507.8 785.3,508.9 794.7,492.2 789.2,493.3 797.2,479.5 791.9,480.6 	"/>
	<polygon points="774.2,459.6 786,485.4 781.6,482.7 787.6,496.4 783.6,496.9 789.5,510.1 785.5,510.7 796.7,533.2 790.2,529.6 
		798.5,546.3 765.7,536.4 772.8,525.4 766.8,525.6 773.3,510.7 768.8,512.5 773.6,495 769.6,496.7 773.7,482.1 769.9,483.8 	"/>
	<polygon points="764.1,465.9 774.6,493.1 769.3,489.7 774.6,504.2 769.3,504.2 774.6,518 769.3,518 779.6,541.9 771.8,537.4 
		779.6,555.2 739.1,540.7 750.2,530.8 742.4,530.2 753.5,516.4 747.4,517.5 756.9,500.8 751.3,501.9 759.4,488.1 754.1,489.2 	"/>
	<polygon points="730.4,467 740.9,494.2 735.7,490.9 740.9,505.3 735.7,505.3 740.9,519.1 735.7,519.1 745.9,543 738.1,538.5 
		745.9,556.3 705.4,541.9 716.5,531.9 708.8,531.3 719.9,517.5 713.8,518.6 723.2,501.9 717.6,503 725.7,489.2 720.4,490.3 	"/>
	<polygon points="746,465.9 752.4,493.1 749.2,489.8 752.4,504.2 749.2,504.2 752.4,518 749.2,518 755.5,541.9 750.7,537.4 
		755.5,555.2 730.7,540.8 737.5,530.8 732.8,530.2 739.6,516.4 735.8,517.5 741.6,500.8 738.2,502 743.1,488.1 739.9,489.2 	"/>
	<polygon points="695.5,467.6 712.2,491.5 706.3,489.5 714.9,502.2 709.8,503.5 718.2,515.7 713.1,517 728.8,537.6 720.2,535.2 
		732,550.6 689.2,546.3 697.6,533.9 689.9,535.3 697.3,519.1 691.7,521.7 696.8,503.3 691.7,505.7 696.2,490.3 691.4,492.6 	"/>
	<polygon points="675.5,467.6 686,494.7 680.8,491.4 686,505.8 680.8,505.8 686,519.7 680.8,519.7 691,543.5 683.3,539.1 691,556.8 
		650.5,542.4 661.6,532.4 653.9,531.9 665,518 658.9,519.1 668.3,502.5 662.7,503.6 670.8,489.7 665.5,490.9 	"/>
	<polygon points="716.8,482.3 724.5,509.4 720.6,506.1 724.5,520.5 720.6,520.5 724.5,534.4 720.6,534.4 728.2,558.2 722.5,553.8 
		728.2,571.5 698.5,557.1 706.6,547.1 701,546.6 709.1,532.7 704.6,533.8 711.5,517.2 707.5,518.3 713.3,504.4 709.5,505.5 	"/>
	<polygon points="815.5,492.1 820.1,520.9 815.6,516.5 817.7,531.7 812.6,530.6 814.8,545.2 809.6,544.1 814.6,569.6 808,563.6 
		811.8,582.6 775.3,559.9 788.2,552.5 780.8,550.3 794.5,539.2 788.4,538.9 801.1,524.7 795.4,524.6 806.2,512.8 800.8,512.7 	"/>
	<polygon points="779.9,498.1 790.5,525.3 785.2,522 790.5,536.4 785.2,536.4 790.5,550.2 785.2,550.2 795.4,574.1 787.7,569.6 
		795.4,587.4 755,573 766.1,563 758.3,562.4 769.4,548.6 763.3,549.7 772.7,533.1 767.2,534.2 775.2,520.3 769.9,521.4 	"/>
	<polygon points="830.2,469.5 840.8,496.7 835.5,493.4 840.8,507.8 835.5,507.8 840.8,521.6 835.5,521.6 845.8,545.5 838,541 
		845.8,558.8 805.3,544.4 816.4,534.4 808.6,533.8 819.7,520 813.6,521.1 823,504.5 817.5,505.6 825.5,491.7 820.3,492.8 	"/>
	<polygon points="36.7,640.4 25.9,613.3 31.2,616.6 25.9,602.2 31.1,602.2 25.8,588.3 31,588.3 20.6,564.5 28.4,568.9 20.5,551.2 
		61.1,565.4 50.1,575.4 57.8,575.9 46.8,589.9 52.9,588.7 43.6,605.4 49.2,604.3 41.2,618.2 46.5,617 	"/>
	<polygon points="64.3,637.9 52.3,612.2 56.8,614.9 50.7,601.2 54.7,600.6 48.7,587.5 52.7,586.9 41.4,564.5 47.9,568 39.4,551.3 
		72.3,561 65.3,572.1 71.3,571.8 64.9,586.8 69.4,585 64.7,602.5 68.7,600.8 64.7,615.4 68.5,613.7 	"/>
	<polygon points="74.4,631.5 63.7,604.4 69,607.7 63.6,593.3 68.9,593.3 63.5,579.5 68.8,579.4 58.4,555.7 66.2,560.1 58.3,542.4 
		98.9,556.5 87.8,566.6 95.6,567.1 84.6,581 90.7,579.8 81.4,596.5 86.9,595.4 79,609.3 84.3,608.2 	"/>
	<polygon points="108.1,630.2 97.4,603.1 102.7,606.4 97.3,592 102.6,592 97.2,578.1 102.5,578.1 92.1,554.3 99.8,558.7 92,541 
		132.5,555.1 121.5,565.2 129.3,565.7 118.3,579.6 124.4,578.5 115.1,595.2 120.6,594 112.7,608 117.9,606.8 	"/>
	<polygon points="92.5,631.4 85.9,604.3 89.1,607.6 85.8,593.2 89,593.1 85.7,579.3 88.9,579.3 82.5,555.5 87.3,559.9 82.4,542.2 
		107.2,556.4 100.5,566.4 105.3,567 98.6,580.9 102.3,579.7 96.7,596.4 100.1,595.3 95.2,609.2 98.4,608 	"/>
	<polygon points="143,629.3 126.1,605.6 132,607.5 123.4,594.8 128.5,593.5 120,581.4 125.1,580.1 109.2,559.5 117.9,561.9 
		105.9,546.6 148.7,550.6 140.4,563 148.1,561.6 140.8,577.8 146.4,575.2 141.4,593.7 146.5,591.2 142.1,606.6 147,604.3 	"/>
	<polygon points="163,629.2 152.3,602.1 157.6,605.4 152.2,591 157.5,591 152.1,577.2 157.4,577.1 146.9,553.4 154.7,557.8 
		146.8,540.1 187.4,554.2 176.4,564.3 184.2,564.8 173.2,578.7 179.3,577.5 170,594.2 175.5,593.1 167.6,607 172.8,605.9 	"/>
	<polygon points="121.6,614.8 113.7,587.7 117.6,591 113.6,576.6 117.5,576.6 113.5,562.8 117.4,562.7 109.7,538.9 115.4,543.3 
		109.6,525.6 139.3,539.8 131.3,549.9 137,550.4 128.9,564.3 133.4,563.2 126.6,579.9 130.7,578.7 124.9,592.6 128.7,591.5 	"/>
	<polygon points="22.8,605.7 18,577 22.5,581.3 20.3,566.1 25.5,567.2 23.2,552.5 28.3,553.6 23.2,528.2 29.9,534.1 25.9,515.2 
		62.6,537.6 49.7,545.1 57.1,547.2 43.4,558.5 49.6,558.7 37,573 42.7,573 31.9,585 37.3,585 	"/>
	<polygon points="58.4,599.4 47.6,572.3 52.9,575.6 47.6,561.2 52.8,561.2 47.5,547.4 52.7,547.3 42.3,523.6 50.1,527.9 42.2,510.3 
		82.8,524.4 71.8,534.4 79.5,534.9 68.5,548.9 74.6,547.7 65.3,564.4 70.9,563.3 62.9,577.2 68.2,576.1 	"/>
	<polygon points="8.2,628.4 -2.5,601.3 2.8,604.6 -2.6,590.2 2.7,590.1 -2.7,576.3 2.6,576.3 -7.8,552.5 0,556.9 -7.9,539.2 
		32.7,553.3 21.6,563.4 29.4,563.9 18.4,577.8 24.5,576.7 15.2,593.4 20.7,592.2 12.8,606.2 18.1,605 	"/>
	<polygon points="157.9,628.8 147.1,601.7 152.4,605 147.1,590.6 152.3,590.6 147,576.8 152.2,576.7 141.8,553 149.6,557.4 
		141.7,539.7 182.3,553.8 171.3,563.9 179,564.4 168,578.3 174.1,577.1 164.8,593.8 170.4,592.7 162.4,606.6 167.7,605.5 	"/>
	<polygon points="185.6,626.3 173.6,600.6 178,603.3 171.9,589.7 175.9,589.1 169.9,575.9 173.9,575.3 162.6,552.9 169.1,556.4 
		160.6,539.8 193.5,549.4 186.5,560.6 192.5,560.2 186.1,575.2 190.6,573.4 185.9,590.9 189.9,589.2 185.9,603.8 189.7,602.1 	"/>
	<polygon points="195.7,620 184.9,592.9 190.2,596.2 184.8,581.8 190.1,581.7 184.7,567.9 190,567.9 179.6,544.1 187.4,548.5 
		179.5,530.8 220.1,544.9 209,555 216.8,555.5 205.8,569.4 211.9,568.3 202.6,585 208.1,583.8 200.2,597.7 205.5,596.6 	"/>
	<polygon points="229.3,618.6 218.6,591.5 223.9,594.8 218.5,580.4 223.8,580.4 218.4,566.6 223.7,566.5 213.3,542.8 221.1,547.1 
		213.2,529.5 253.7,543.6 242.7,553.6 250.5,554.1 239.5,568.1 245.6,566.9 236.3,583.6 241.8,582.5 233.9,596.4 239.1,595.2 	"/>
	<polygon points="213.7,619.8 207.1,592.7 210.3,596 207,581.6 210.2,581.6 206.9,567.7 210.1,567.7 203.7,543.9 208.5,548.3 
		203.6,530.6 228.4,544.9 221.7,554.9 226.5,555.4 219.8,569.3 223.5,568.2 217.9,584.8 221.3,583.7 216.5,597.6 219.7,596.5 	"/>
	<polygon points="264.2,617.7 247.3,594 253.3,595.9 244.6,583.3 249.7,582 241.2,569.8 246.3,568.5 230.4,548 239.1,550.3 
		227.2,535.1 269.9,539 261.7,551.5 269.3,550.1 262,566.2 267.6,563.7 262.6,582.1 267.7,579.7 263.3,595.1 268.2,592.7 	"/>
	<polygon points="284.2,617.7 273.5,590.6 278.8,593.9 273.4,579.5 278.7,579.4 273.3,565.6 278.6,565.6 268.1,541.8 275.9,546.2 
		268.1,528.5 308.6,542.6 297.6,552.7 305.4,553.2 294.4,567.1 300.5,566 291.2,582.7 296.7,581.5 288.8,595.4 294,594.3 	"/>
	<polygon points="242.8,603.3 234.9,576.1 238.8,579.4 234.8,565.1 238.7,565 234.7,551.2 238.6,551.2 230.9,527.4 236.6,531.8 
		230.8,514.1 260.5,528.3 252.5,538.3 258.2,538.8 250.2,552.8 254.6,551.6 247.8,568.3 251.9,567.2 246.1,581.1 249.9,579.9 	"/>
	<polygon points="144,594.1 139.3,565.4 143.7,569.7 141.5,554.5 146.7,555.6 144.4,541 149.5,542.1 144.4,516.6 151.1,522.5 
		147.1,503.6 183.8,526 170.9,533.5 178.3,535.6 164.7,546.9 170.9,547.1 158.2,561.4 163.9,561.5 153.2,573.4 158.5,573.4 	"/>
	<polygon points="179.6,587.8 168.8,560.8 174.1,564 168.8,549.7 174,549.6 168.7,535.8 173.9,535.8 163.5,512 171.3,516.4 
		163.4,498.7 204,512.8 193,522.9 200.7,523.4 189.7,537.3 195.8,536.2 186.5,552.9 192.1,551.7 184.1,565.6 189.4,564.5 	"/>
	<polygon points="129.5,616.8 118.7,589.7 124,593 118.6,578.6 123.9,578.6 118.5,564.8 123.8,564.7 113.4,541 121.2,545.3 
		113.3,527.7 153.9,541.8 142.9,551.8 150.6,552.3 139.6,566.3 145.7,565.1 136.4,581.8 141.9,580.7 134,594.6 139.3,593.4 	"/>
	<polygon points="263.8,621.8 253.1,594.7 258.4,598 253,583.6 258.3,583.5 252.9,569.7 258.2,569.7 247.8,545.9 255.6,550.3 
		247.7,532.6 288.2,546.7 277.2,556.8 285,557.3 274,571.2 280.1,570.1 270.8,586.8 276.3,585.6 268.4,599.5 273.6,598.4 	"/>
	<polygon points="291.5,619.2 279.5,593.5 284,596.2 277.9,582.6 281.9,582 275.8,568.9 279.8,568.3 268.5,545.9 275.1,549.4 
		266.6,532.7 299.4,542.4 292.5,553.5 298.5,553.2 292.1,568.1 296.6,566.3 291.8,583.9 295.9,582.1 291.8,596.8 295.7,595.1 	"/>
	<polygon points="301.6,612.9 290.9,585.8 296.2,589.1 290.8,574.7 296.1,574.7 290.7,560.8 296,560.8 285.5,537 293.3,541.4 
		285.5,523.7 326,537.9 315,547.9 322.8,548.4 311.8,562.4 317.9,561.2 308.6,577.9 314.1,576.8 306.2,590.7 311.4,589.5 	"/>
	<polygon points="335.3,611.5 324.6,584.4 329.9,587.7 324.5,573.4 329.8,573.3 324.4,559.5 329.7,559.5 319.2,535.7 327,540.1 
		319.1,522.4 359.7,536.5 348.7,546.6 356.5,547.1 345.5,561 351.6,559.9 342.2,576.6 347.8,575.4 339.8,589.3 345.1,588.2 	"/>
	<polygon points="319.7,612.7 313.1,585.6 316.3,588.9 313,574.5 316.2,574.5 312.9,560.7 316.1,560.6 309.7,536.9 314.4,541.3 
		309.6,523.5 334.4,537.8 327.7,547.8 332.4,548.3 325.8,562.2 329.5,561.1 323.8,577.8 327.2,576.6 322.4,590.5 325.6,589.4 	"/>
	<polygon points="370.2,610.7 353.3,586.9 359.2,588.9 350.6,576.2 355.7,574.9 347.1,562.8 352.2,561.5 336.4,540.9 345,543.3 
		333.1,528 375.9,532 367.6,544.4 375.3,543 368,559.2 373.6,556.6 368.6,575 373.7,572.6 369.3,588 374.1,585.6 	"/>
	<polygon points="390.2,610.6 379.4,583.5 384.7,586.8 379.4,572.4 384.6,572.4 379.3,558.5 384.5,558.5 374.1,534.7 381.9,539.1 
		374,521.4 414.6,535.6 403.6,545.6 411.3,546.1 400.3,560.1 406.4,558.9 397.1,575.6 402.7,574.5 394.7,588.4 400,587.2 	"/>
	<polygon points="348.8,596.2 340.9,569.1 344.7,572.4 340.8,558 344.6,558 340.7,544.1 344.5,544.1 336.9,520.3 342.6,524.7 
		336.8,507 366.5,521.2 358.5,531.2 364.1,531.8 356.1,545.7 360.6,544.5 353.8,561.2 357.8,560.1 352.1,574 355.9,572.8 	"/>
	<polygon points="250,587.1 245.2,558.3 249.7,562.7 247.5,547.5 252.7,548.5 250.3,533.9 255.5,535 250.3,509.5 257,515.5 
		253.1,496.5 289.7,518.9 276.8,526.4 284.3,528.6 270.6,539.9 276.8,540 264.2,554.4 269.8,554.4 259.1,566.3 264.5,566.3 	"/>
	<polygon points="285.5,580.8 274.8,553.7 280.1,557 274.7,542.6 280,542.6 274.6,528.7 279.9,528.7 269.5,504.9 277.3,509.3 
		269.4,491.6 310,505.8 298.9,515.8 306.7,516.3 295.7,530.2 301.8,529.1 292.5,545.8 298,544.6 290.1,558.6 295.3,557.4 	"/>
	<polygon points="235.4,609.7 224.7,582.6 230,585.9 224.6,571.6 229.9,571.5 224.5,557.7 229.8,557.7 219.4,533.9 227.1,538.3 
		219.3,520.6 259.8,534.7 248.8,544.8 256.6,545.3 245.6,559.2 251.7,558.1 242.4,574.8 247.9,573.6 240,587.5 245.2,586.4 	"/>
	<polygon points="391.5,610.4 380.8,583.3 386.1,586.6 380.7,572.2 386,572.2 380.6,558.3 385.9,558.3 375.4,534.5 383.2,538.9 
		375.4,521.2 415.9,535.4 404.9,545.4 412.7,545.9 401.7,559.9 407.8,558.7 398.5,575.4 404,574.3 396.1,588.2 401.3,587 	"/>
	<polygon points="419.2,607.9 407.2,582.2 411.7,584.9 405.6,571.2 409.6,570.6 403.5,557.5 407.5,556.9 396.2,534.5 402.8,538 
		394.2,521.3 427.1,531 420.2,542.1 426.1,541.8 419.8,556.8 424.2,555 419.5,572.5 423.6,570.8 419.5,585.4 423.3,583.7 	"/>
	<polygon points="429.3,601.5 418.6,574.4 423.9,577.7 418.5,563.3 423.8,563.3 418.4,549.5 423.7,549.4 413.2,525.7 421,530.1 
		413.1,512.4 453.7,526.5 442.7,536.6 450.5,537.1 439.5,551 445.6,549.8 436.2,566.5 441.8,565.4 433.8,579.3 439.1,578.2 	"/>
	<polygon points="463,600.2 452.2,573.1 457.5,576.4 452.2,562 457.4,562 452.1,548.1 457.3,548.1 446.9,524.3 454.7,528.7 
		446.8,511 487.4,525.1 476.4,535.2 484.1,535.7 473.1,549.6 479.2,548.5 469.9,565.2 475.5,564 467.5,578 472.8,576.8 	"/>
	<polygon points="447.4,601.4 440.7,574.2 444,577.6 440.7,563.2 443.9,563.1 440.6,549.3 443.8,549.3 437.3,525.5 442.1,529.9 
		437.2,512.2 462.1,526.4 455.4,536.4 460.1,537 453.4,550.9 457.2,549.7 451.5,566.4 454.9,565.3 450.1,579.2 453.3,578 	"/>
	<polygon points="497.9,599.3 481,575.6 486.9,577.5 478.2,564.8 483.3,563.5 474.8,551.4 479.9,550.1 464.1,529.5 472.7,531.9 
		460.8,516.6 503.6,520.6 495.3,533 503,531.6 495.6,547.8 501.3,545.2 496.2,563.7 501.3,561.2 497,576.6 501.8,574.3 	"/>
	<polygon points="517.8,599.2 507.1,572.1 512.4,575.4 507,561 512.3,561 506.9,547.2 512.2,547.1 501.8,523.4 509.6,527.8 
		501.7,510.1 542.3,524.2 531.2,534.3 539,534.8 528,548.7 534.1,547.5 524.8,564.2 530.3,563.1 522.4,577 527.7,575.9 	"/>
	<polygon points="476.5,584.8 468.5,557.7 472.4,561 468.5,546.6 472.3,546.6 468.4,532.8 472.2,532.7 464.5,508.9 470.3,513.3 
		464.5,495.6 494.2,509.8 486.1,519.9 491.8,520.4 483.8,534.3 488.3,533.2 481.5,549.9 485.5,548.7 479.7,562.6 483.6,561.5 	"/>
	<polygon points="377.6,575.7 372.9,547 377.4,551.3 375.2,536.1 380.3,537.2 378,522.5 383.2,523.6 378,498.2 384.7,504.1 
		380.7,485.2 417.4,507.6 404.5,515.1 412,517.2 398.3,528.5 404.5,528.7 391.9,543 397.5,543 386.8,555 392.2,555 	"/>
	<polygon points="413.2,569.4 402.5,542.3 407.8,545.6 402.4,531.2 407.7,531.2 402.3,517.4 407.6,517.3 397.1,493.6 404.9,497.9 
		397.1,480.3 437.6,494.4 426.6,504.4 434.4,504.9 423.4,518.9 429.5,517.7 420.2,534.4 425.7,533.3 417.8,547.2 423,546 	"/>
	<polygon points="363.1,598.4 352.4,571.3 357.7,574.6 352.3,560.2 357.6,560.1 352.2,546.3 357.5,546.3 347,522.5 354.8,526.9 
		346.9,509.2 387.5,523.3 376.5,533.4 384.3,533.9 373.3,547.8 379.4,546.7 370.1,563.4 375.6,562.2 367.6,576.2 372.9,575 	"/>
	<polygon points="521.8,620.3 511.1,593.2 516.4,596.5 511,582.2 516.3,582.1 510.9,568.3 516.2,568.3 505.7,544.5 513.5,548.9 
		505.7,531.2 546.2,545.3 535.2,555.4 543,555.9 532,569.8 538.1,568.7 528.8,585.4 534.3,584.2 526.4,598.1 531.6,597 	"/>
	<polygon points="549.5,617.8 537.5,592.1 542,594.8 535.9,581.2 539.9,580.6 533.8,567.5 537.8,566.9 526.5,544.4 533.1,548 
		524.5,531.3 557.4,541 550.5,552.1 556.4,551.8 550.1,566.7 554.5,564.9 549.8,582.4 553.9,580.7 549.8,595.3 553.6,593.6 	"/>
	<polygon points="559.6,611.5 548.9,584.4 554.2,587.7 548.8,573.3 554.1,573.3 548.7,559.4 554,559.4 543.5,535.6 551.3,540 
		543.4,522.3 584,536.4 573,546.5 580.8,547 569.8,560.9 575.9,559.8 566.6,576.5 572.1,575.3 564.1,589.3 569.4,588.1 	"/>
	<polygon points="593.3,610.1 582.5,583 587.8,586.3 582.5,571.9 587.7,571.9 582.4,558.1 587.6,558 577.2,534.3 585,538.7 
		577.1,521 617.7,535.1 606.7,545.2 614.4,545.7 603.4,559.6 609.5,558.4 600.2,575.1 605.8,574 597.8,587.9 603.1,586.8 	"/>
	<polygon points="577.7,611.3 571,584.2 574.3,587.5 571,573.1 574.2,573.1 570.9,559.3 574.1,559.2 567.6,535.4 572.4,539.8 
		567.5,522.1 592.4,536.4 585.7,546.4 590.4,546.9 583.7,560.8 587.5,559.7 581.8,576.4 585.2,575.2 580.4,589.1 583.6,588 	"/>
	<polygon points="628.2,609.3 611.3,585.5 617.2,587.5 608.5,574.8 613.6,573.5 605.1,561.4 610.2,560.1 594.4,539.5 603,541.9 
		591.1,526.6 633.9,530.6 625.6,543 633.3,541.6 625.9,557.8 631.6,555.2 626.5,573.6 631.6,571.2 627.3,586.6 632.1,584.2 	"/>
	<polygon points="648.2,609.2 637.4,582.1 642.7,585.4 637.3,571 642.6,571 637.2,557.1 642.5,557.1 632.1,533.3 639.9,537.7 
		632,520 672.6,534.1 661.5,544.2 669.3,544.7 658.3,558.6 664.4,557.5 655.1,574.2 660.6,573 652.7,587 658,585.8 	"/>
	<polygon points="606.8,594.8 598.8,567.7 602.7,571 598.8,556.6 602.6,556.5 598.7,542.7 602.5,542.7 594.8,518.9 600.6,523.3 
		594.8,505.6 624.5,519.8 616.4,529.8 622.1,530.3 614.1,544.3 618.6,543.1 611.8,559.8 615.8,558.7 610,572.6 613.9,571.4 	"/>
	<polygon points="507.9,585.7 503.2,556.9 507.7,561.2 505.5,546.1 510.6,547.1 508.3,532.5 513.5,533.6 508.3,508.1 515,514.1 
		511.1,495.1 547.7,517.5 534.8,525 542.3,527.1 528.6,538.4 534.8,538.6 522.2,552.9 527.8,553 517.1,564.9 522.5,564.9 	"/>
	<polygon points="543.5,579.4 532.8,552.3 538.1,555.6 532.7,541.2 538,541.1 532.6,527.3 537.9,527.3 527.5,503.5 535.2,507.9 
		527.4,490.2 567.9,504.3 556.9,514.4 564.7,514.9 553.7,528.8 559.8,527.7 550.5,544.4 556,543.2 548.1,557.1 553.3,556 	"/>
	<polygon points="493.4,608.3 482.7,581.2 488,584.5 482.6,570.1 487.9,570.1 482.5,556.3 487.8,556.2 477.3,532.5 485.1,536.9 
		477.2,519.2 517.8,533.3 506.8,543.4 514.6,543.9 503.6,557.8 509.7,556.6 500.4,573.3 505.9,572.2 497.9,586.1 503.2,585 	"/>
	<polygon points="616.3,624.9 605.5,597.9 610.8,601.1 605.5,586.8 610.7,586.7 605.4,572.9 610.6,572.9 600.2,549.1 608,553.5 
		600.1,535.8 640.7,549.9 629.7,560 637.4,560.5 626.4,574.4 632.5,573.3 623.2,590 628.8,588.8 620.8,602.7 626.1,601.6 	"/>
	<polygon points="643.9,622.4 631.9,596.7 636.4,599.4 630.3,585.8 634.3,585.2 628.3,572.1 632.3,571.5 621,549 627.5,552.6 
		619,535.9 651.9,545.6 644.9,556.7 650.9,556.4 644.5,571.3 649,569.5 644.3,587.1 648.3,585.3 644.3,599.9 648.1,598.3 	"/>
	<polygon points="654,616.1 643.3,589 648.6,592.3 643.2,577.9 648.5,577.9 643.1,564 648.4,564 638,540.2 645.8,544.6 637.9,526.9 
		678.5,541.1 667.4,551.1 675.2,551.6 664.2,565.5 670.3,564.4 661,581.1 666.5,579.9 658.6,593.9 663.9,592.7 	"/>
	<polygon points="687.7,614.7 677,587.6 682.3,590.9 676.9,576.5 682.2,576.5 676.8,562.7 682.1,562.6 671.7,538.9 679.4,543.3 
		671.6,525.6 712.1,539.7 701.1,549.8 708.9,550.3 697.9,564.2 704,563 694.7,579.7 700.2,578.6 692.3,592.5 697.5,591.4 	"/>
	<polygon points="672.1,615.9 665.5,588.8 668.7,592.1 665.4,577.7 668.6,577.7 665.3,563.9 668.5,563.8 662.1,540 666.9,544.4 
		662,526.7 686.8,541 680.1,551 684.9,551.5 678.2,565.4 681.9,564.3 676.3,581 679.7,579.8 674.8,593.7 678,592.6 	"/>
	<polygon points="722.6,613.9 705.7,590.1 711.6,592.1 703,579.4 708.1,578.1 699.6,566 704.7,564.7 688.8,544.1 697.5,546.5 
		685.6,531.2 728.3,535.2 720,547.6 727.7,546.2 720.4,562.4 726,559.8 721,578.2 726.1,575.8 721.7,591.2 726.6,588.8 	"/>
	<polygon points="742.6,613.8 731.9,586.7 737.2,590 731.8,575.6 737.1,575.6 731.7,561.7 737,561.7 726.5,537.9 734.3,542.3 
		726.4,524.6 767,538.8 756,548.8 763.8,549.3 752.8,563.2 758.9,562.1 749.6,578.8 755.1,577.6 747.2,591.6 752.4,590.4 	"/>
	<polygon points="701.2,599.4 693.3,572.3 697.2,575.6 693.2,561.2 697.1,561.2 693.1,547.3 697,547.3 689.3,523.5 695,527.9 
		689.2,510.2 718.9,524.4 710.9,534.4 716.6,535 708.5,548.9 713,547.7 706.2,564.4 710.3,563.3 704.5,577.2 708.3,576 	"/>
	<polygon points="602.4,590.3 597.6,561.5 602.1,565.8 599.9,550.7 605.1,551.7 602.8,537.1 607.9,538.2 602.8,512.7 609.5,518.7 
		605.5,499.7 642.2,522.1 629.3,529.6 636.7,531.8 623,543 629.2,543.2 616.6,557.6 622.3,557.6 611.5,569.5 616.9,569.5 	"/>
	<polygon points="638,584 627.2,556.9 632.5,560.2 627.2,545.8 632.4,545.7 627.1,531.9 632.3,531.9 621.9,508.1 629.7,512.5 
		621.8,494.8 662.4,508.9 651.4,519 659.1,519.5 648.1,533.4 654.2,532.3 644.9,549 650.5,547.8 642.5,561.8 647.8,560.6 	"/>
	<polygon points="587.8,612.9 577.1,585.8 582.4,589.1 577,574.7 582.3,574.7 576.9,560.9 582.2,560.8 571.8,537.1 579.6,541.5 
		571.7,523.8 612.3,537.9 601.2,548 609,548.5 598,562.4 604.1,561.2 594.8,577.9 600.3,576.8 592.4,590.7 597.7,589.6 	"/>
	<polygon points="727.5,637.6 716.8,610.5 722.1,613.8 716.7,599.4 722,599.4 716.6,585.5 721.9,585.5 711.4,561.7 719.2,566.1 
		711.3,548.4 751.9,562.6 740.9,572.6 748.7,573.1 737.7,587.1 743.8,585.9 734.5,602.6 740,601.5 732.1,615.4 737.3,614.2 	"/>
	<polygon points="755.2,635.1 743.2,609.4 747.7,612.1 741.5,598.4 745.5,597.8 739.5,584.7 743.5,584.1 732.2,561.7 738.7,565.2 
		730.2,548.5 763.1,558.2 756.1,569.3 762.1,569 755.7,584 760.2,582.2 755.5,599.7 759.6,598 755.5,612.6 759.3,610.9 	"/>
	<polygon points="765.3,628.7 754.5,601.6 759.8,604.9 754.5,590.5 759.7,590.5 754.4,576.7 759.6,576.6 749.2,552.9 757,557.3 
		749.1,539.6 789.7,553.7 778.7,563.7 786.4,564.2 775.4,578.2 781.5,577 772.2,593.7 777.8,592.6 769.8,606.5 775.1,605.4 	"/>
	<polygon points="799,627.4 788.2,600.3 793.5,603.6 788.1,589.2 793.4,589.1 788,575.3 793.3,575.3 782.9,551.5 790.7,555.9 
		782.8,538.2 823.4,552.3 812.3,562.4 820.1,562.9 809.1,576.8 815.2,575.7 805.9,592.4 811.4,591.2 803.5,605.2 808.8,604 	"/>
	<polygon points="783.4,628.6 776.7,601.4 780,604.8 776.6,590.4 779.9,590.3 776.5,576.5 779.8,576.5 773.3,552.7 778.1,557.1 
		773.2,539.4 798.1,553.6 791.4,563.6 796.1,564.2 789.4,578.1 793.1,576.9 787.5,593.6 790.9,592.5 786.1,606.4 789.3,605.2 	"/>
	<polygon points="833.9,626.5 817,602.8 822.9,604.7 814.2,592 819.3,590.7 810.8,578.6 815.9,577.3 800.1,556.7 808.7,559.1 
		796.8,543.8 839.6,547.8 831.3,560.2 838.9,558.8 831.6,575 837.3,572.4 832.2,590.9 837.3,588.4 833,603.8 837.8,601.5 	"/>
	<polygon points="853.8,626.4 843.1,599.3 848.4,602.6 843,588.2 848.3,588.2 842.9,574.4 848.2,574.3 837.8,550.6 845.6,555 
		837.7,537.3 878.2,551.4 867.2,561.4 875,561.9 864,575.9 870.1,574.7 860.8,591.4 866.3,590.3 858.4,604.2 863.6,603.1 	"/>
	<polygon points="812.4,612 804.5,584.9 808.4,588.2 804.5,573.8 808.3,573.8 804.4,560 808.2,559.9 800.5,536.1 806.2,540.5 
		800.4,522.8 830.2,537 822.1,547.1 827.8,547.6 819.8,561.5 824.2,560.4 817.5,577.1 821.5,575.9 815.7,589.8 819.6,588.7 	"/>
	<polygon points="713.6,602.9 708.9,574.2 713.4,578.5 711.2,563.3 716.3,564.4 714,549.7 719.2,550.8 714,525.4 720.7,531.3 
		716.7,512.4 753.4,534.8 740.5,542.3 748,544.4 734.3,555.7 740.5,555.8 727.8,570.2 733.5,570.2 722.8,582.2 728.2,582.2 	"/>
	<polygon points="749.2,596.6 738.5,569.5 743.8,572.8 738.4,558.4 743.7,558.4 738.3,544.6 743.6,544.5 733.1,520.8 740.9,525.1 
		733,507.5 773.6,521.6 762.6,531.6 770.4,532.1 759.4,546.1 765.5,544.9 756.2,561.6 761.7,560.5 753.8,574.4 759,573.2 	"/>
	<polygon points="699.1,625.6 688.3,598.5 693.6,601.8 688.3,587.4 693.5,587.3 688.2,573.5 693.4,573.5 683,549.7 690.8,554.1 
		682.9,536.4 723.5,550.5 712.5,560.6 720.2,561.1 709.3,575 715.3,573.9 706,590.6 711.6,589.4 703.6,603.4 708.9,602.2 	"/>
	<polygon points="842.8,634.4 832.1,607.3 837.3,610.6 832,596.3 837.2,596.2 831.9,582.4 837.1,582.4 826.7,558.6 834.5,563 
		826.6,545.3 867.2,559.4 856.2,569.5 863.9,570 853,583.9 859,582.8 849.7,599.5 855.3,598.3 847.3,612.2 852.6,611.1 	"/>
	<polygon points="870.5,631.9 858.5,606.2 862.9,608.9 856.8,595.3 860.8,594.7 854.8,581.6 858.8,581 847.5,558.5 854,562.1 
		845.5,545.4 878.4,555.1 871.4,566.2 877.4,565.9 871,580.8 875.5,579 870.8,596.5 874.8,594.8 870.8,609.4 874.6,607.7 	"/>
	<polygon points="880.6,625.6 869.8,598.5 875.1,601.8 869.8,587.4 875,587.4 869.7,573.5 874.9,573.5 864.5,549.7 872.3,554.1 
		864.4,536.4 905,550.5 894,560.6 901.7,561.1 890.7,575 896.8,573.9 887.5,590.6 893.1,589.4 885.1,603.4 890.4,602.2 	"/>
	<polygon points="914.2,624.2 903.5,597.1 908.8,600.4 903.4,586 908.7,586 903.3,572.2 908.6,572.1 898.2,548.4 906,552.8 
		898.1,535.1 938.6,549.2 927.6,559.3 935.4,559.8 924.4,573.7 930.5,572.5 921.2,589.2 926.7,588.1 918.8,602 924,600.9 	"/>
	<polygon points="898.6,625.4 892,598.3 895.2,601.6 891.9,587.2 895.1,587.2 891.8,573.4 895,573.3 888.6,549.5 893.4,553.9 
		888.5,536.2 913.3,550.5 906.6,560.5 911.4,561 904.7,574.9 908.4,573.8 902.8,590.5 906.2,589.3 901.4,603.2 904.6,602.1 	"/>
	<polygon points="949.2,623.4 932.2,599.6 938.2,601.6 929.5,588.9 934.6,587.6 926.1,575.5 931.2,574.2 915.4,553.6 924,556 
		912.1,540.7 954.8,544.7 946.6,557.1 954.2,555.7 946.9,571.9 952.5,569.3 947.5,587.7 952.6,585.3 948.2,600.7 953.1,598.3 	"/>
	<polygon points="969.1,623.3 958.4,596.2 963.7,599.5 958.3,585.1 963.6,585.1 958.2,571.2 963.5,571.2 953.1,547.4 960.8,551.8 
		953,534.1 993.5,548.2 982.5,558.3 990.3,558.8 979.3,572.7 985.4,571.6 976.1,588.3 981.6,587.1 973.7,601.1 978.9,599.9 	"/>
	<polygon points="927.7,608.9 919.8,581.8 923.7,585.1 919.7,570.7 923.6,570.6 919.6,556.8 923.5,556.8 915.8,533 921.5,537.4 
		915.7,519.7 945.4,533.9 937.4,543.9 943.1,544.4 935.1,558.4 939.5,557.2 932.7,573.9 936.8,572.8 931,586.7 934.9,585.5 	"/>
	<polygon points="828.9,599.8 824.2,571 828.6,575.3 826.4,560.2 831.6,561.2 829.3,546.6 834.4,547.7 829.3,522.2 836,528.2 
		832,509.2 868.7,531.6 855.8,539.1 863.3,541.2 849.6,552.5 855.8,552.7 843.1,567 848.8,567.1 838.1,579 843.4,579 	"/>
	<polygon points="864.5,593.5 853.8,566.4 859,569.7 853.7,555.3 858.9,555.2 853.6,541.4 858.8,541.4 848.4,517.6 856.2,522 
		848.3,504.3 888.9,518.4 877.9,528.5 885.6,529 874.7,542.9 880.7,541.8 871.4,558.5 877,557.3 869,571.2 874.3,570.1 	"/>
	<polygon points="814.4,622.4 803.6,595.3 808.9,598.6 803.6,584.2 808.8,584.2 803.5,570.4 808.7,570.3 798.3,546.6 806.1,551 
		798.2,533.3 838.8,547.4 827.8,557.5 835.5,558 824.5,571.9 830.6,570.7 821.3,587.4 826.9,586.3 818.9,600.2 824.2,599.1 	"/>
	<polygon points="959.7,644.7 949,617.6 954.3,620.9 948.9,606.5 954.2,606.5 948.8,592.7 954.1,592.6 943.7,568.8 951.5,573.2 
		943.6,555.5 984.1,569.7 973.1,579.7 980.9,580.2 969.9,594.2 976,593 966.7,609.7 972.2,608.6 964.3,622.5 969.5,621.3 	"/>
	<polygon points="987.4,642.2 975.4,616.5 979.9,619.2 973.8,605.5 977.8,604.9 971.7,591.8 975.7,591.2 964.4,568.8 971,572.3 
		962.5,555.6 995.3,565.3 988.4,576.4 994.4,576.1 988,591.1 992.5,589.3 987.7,606.8 991.8,605.1 987.7,619.7 991.6,618 	"/>
	<polygon points="997.5,635.8 986.8,608.7 992.1,612 986.7,597.6 992,597.6 986.6,583.8 991.9,583.7 981.4,560 989.2,564.4 
		981.4,546.7 1021.9,560.8 1010.9,570.9 1018.7,571.4 1007.7,585.3 1013.8,584.1 1004.5,600.8 1010,599.7 1002.1,613.6 
		1007.3,612.5 	"/>
	<polygon points="1031.2,634.5 1020.5,607.4 1025.8,610.7 1020.4,596.3 1025.6,596.3 1020.3,582.4 1025.5,582.4 1015.1,558.6 
		1022.9,563 1015,545.3 1055.6,559.5 1044.6,569.5 1052.4,570 1041.4,583.9 1047.5,582.8 1038.1,599.5 1043.7,598.3 1035.7,612.3 
		1041,611.1 	"/>
	<polygon points="1015.6,635.7 1009,608.6 1012.2,611.9 1008.9,597.5 1012.1,597.4 1008.8,583.6 1012,583.6 1005.6,559.8 
		1010.3,564.2 1005.5,546.5 1030.3,560.7 1023.6,570.8 1028.3,571.3 1021.7,585.2 1025.4,584 1019.7,600.7 1023.1,599.6 
		1018.3,613.5 1021.5,612.3 	"/>
	<polygon points="1066.1,633.6 1049.2,609.9 1055.1,611.8 1046.5,599.1 1051.6,597.8 1043,585.7 1048.1,584.4 1032.3,563.8 
		1040.9,566.2 1029,550.9 1071.8,554.9 1063.5,567.3 1071.2,565.9 1063.9,582.1 1069.5,579.5 1064.5,598 1069.6,595.5 1065.2,611 
		1070,608.6 	"/>
	<polygon points="1067.7,626.6 1056.9,599.5 1062.2,602.8 1056.9,588.4 1062.1,588.4 1056.8,574.6 1062,574.5 1051.6,550.8 
		1059.4,555.1 1051.5,537.4 1092.1,551.6 1081.1,561.6 1088.8,562.1 1077.8,576.1 1083.9,574.9 1074.6,591.6 1080.2,590.5 
		1072.2,604.4 1077.5,603.2 	"/>
	<polygon points="1044.7,619.1 1036.8,592 1040.6,595.3 1036.7,580.9 1040.5,580.9 1036.6,567.1 1040.4,567 1032.8,543.3 
		1038.5,547.6 1032.7,529.9 1062.4,544.2 1054.4,554.2 1060,554.7 1052,568.6 1056.5,567.5 1049.7,584.2 1053.7,583 1048,596.9 
		1051.8,595.8 	"/>
	<polygon points="945.9,610 941.1,581.3 945.6,585.6 943.4,570.4 948.5,571.5 946.2,556.8 951.4,557.9 946.2,532.5 952.9,538.4 
		949,519.5 985.6,541.9 972.7,549.4 980.2,551.5 966.5,562.8 972.7,563 960.1,577.3 965.7,577.4 955,589.3 960.4,589.3 	"/>
	<polygon points="981.4,603.7 970.7,576.6 976,579.9 970.6,565.5 975.9,565.5 970.5,551.7 975.8,551.6 965.4,527.9 973.2,532.2 
		965.3,514.6 1005.8,528.7 994.8,538.7 1002.6,539.2 991.6,553.2 997.7,552 988.4,568.7 993.9,567.6 986,581.5 991.2,580.4 	"/>
	<polygon points="931.3,632.7 920.6,605.6 925.9,608.9 920.5,594.5 925.8,594.5 920.4,580.6 925.7,580.6 915.2,556.8 923,561.2 
		915.2,543.5 955.7,557.6 944.7,567.7 952.5,568.2 941.5,582.1 947.6,581 938.3,597.7 943.8,596.5 935.9,610.5 941.1,609.3 	"/>
	<polygon points="953.1,652.8 942.3,625.7 947.6,629 942.3,614.6 947.5,614.6 942.2,600.8 947.4,600.7 937,577 944.8,581.4 
		936.9,563.7 977.5,577.8 966.5,587.9 974.2,588.4 963.2,602.3 969.3,601.1 960,617.8 965.6,616.7 957.6,630.6 962.9,629.5 	"/>
	<polygon points="980.7,650.3 968.7,624.6 973.2,627.3 967.1,613.6 971.1,613.1 965.1,599.9 969.1,599.3 957.8,576.9 964.3,580.4 
		955.8,563.8 988.7,573.4 981.7,584.6 987.7,584.2 981.3,599.2 985.8,597.4 981.1,614.9 985.1,613.2 981.1,627.8 984.9,626.1 	"/>
	<polygon points="990.8,643.9 980.1,616.9 985.4,620.1 980,605.8 985.3,605.7 979.9,591.9 985.2,591.9 974.8,568.1 982.6,572.5 
		974.7,554.8 1015.3,568.9 1004.2,579 1012,579.5 1001,593.4 1007.1,592.3 997.8,609 1003.3,607.8 995.4,621.7 1000.7,620.6 	"/>
	<polygon points="1024.5,642.6 1013.8,615.5 1019.1,618.8 1013.7,604.4 1019,604.4 1013.6,590.6 1018.9,590.5 1008.5,566.8 
		1016.2,571.1 1008.4,553.5 1048.9,567.6 1037.9,577.6 1045.7,578.1 1034.7,592.1 1040.8,590.9 1031.5,607.6 1037,606.5 
		1029.1,620.4 1034.3,619.2 	"/>
	<polygon points="1008.9,643.8 1002.3,616.7 1005.5,620 1002.2,605.6 1005.4,605.6 1002.1,591.7 1005.3,591.7 998.9,567.9 
		1003.7,572.3 998.8,554.6 1023.6,568.9 1016.9,578.9 1021.7,579.4 1015,593.3 1018.7,592.2 1013.1,608.8 1016.5,607.7 
		1011.6,621.6 1014.9,620.5 	"/>
	<polygon points="1059.4,641.7 1042.5,618 1048.4,619.9 1039.8,607.3 1044.9,606 1036.4,593.8 1041.5,592.5 1025.6,572 
		1034.3,574.3 1022.4,559.1 1065.1,563 1056.8,575.5 1064.5,574.1 1057.2,590.2 1062.8,587.7 1057.8,606.1 1062.9,603.7 
		1058.5,619.1 1063.4,616.7 	"/>
	<polygon points="1065.8,642.9 1055.1,615.8 1060.3,619.1 1055,604.8 1060.2,604.7 1054.9,590.9 1060.1,590.9 1049.7,567.1 
		1057.5,571.5 1049.6,553.8 1090.2,567.9 1079.2,578 1086.9,578.5 1076,592.4 1082,591.3 1072.7,608 1078.3,606.8 1070.3,620.7 
		1075.6,619.6 	"/>
	<polygon points="1038,627.3 1030.1,600.1 1034,603.4 1030,589.1 1033.9,589 1029.9,575.2 1033.8,575.2 1026.1,551.4 1031.8,555.8 
		1026,538.1 1055.7,552.3 1047.7,562.3 1053.4,562.8 1045.4,576.7 1049.8,575.6 1043,592.3 1047.1,591.1 1041.3,605.1 1045.1,603.9 
			"/>
	<polygon points="939.2,618.1 934.4,589.4 938.9,593.7 936.7,578.5 941.9,579.6 939.6,565 944.7,566 939.6,540.6 946.3,546.5 
		942.3,527.6 979,550 966.1,557.5 973.5,559.6 959.8,570.9 966,571.1 953.4,585.4 959.1,585.5 948.3,597.4 953.7,597.4 	"/>
	<polygon points="974.8,611.8 964,584.7 969.3,588 964,573.7 969.2,573.6 963.9,559.8 969.1,559.8 958.7,536 966.5,540.4 
		958.6,522.7 999.2,536.8 988.2,546.9 995.9,547.4 984.9,561.3 991,560.2 981.7,576.9 987.3,575.7 979.3,589.6 984.6,588.5 	"/>
	<polygon points="924.6,640.8 913.9,613.7 919.2,617 913.8,602.6 919.1,602.6 913.7,588.8 919,588.7 908.6,565 916.4,569.3 
		908.5,551.6 949.1,565.8 938,575.8 945.8,576.3 934.8,590.3 940.9,589.1 931.6,605.8 937.1,604.7 929.2,618.6 934.5,617.4 	"/>
	<polygon points="466.1,448.2 475.8,475.7 470.6,472.2 475.4,486.8 470.1,486.6 474.9,500.6 469.7,500.5 479.2,524.6 471.5,519.9 
		478.7,537.9 438.7,522.2 450.1,512.6 442.4,511.8 453.9,498.3 447.8,499.2 457.8,482.9 452.2,483.8 460.7,470.2 455.4,471.1 	"/>
	<polygon points="438.3,449.6 449.3,475.8 444.9,472.9 450.5,486.8 446.5,487.2 452,500.6 448,501 458.4,523.8 452,520.1 
		459.9,537.1 427.4,526.1 434.8,515.3 428.8,515.4 435.8,500.7 431.2,502.3 436.6,484.9 432.5,486.5 437.1,472.1 433.2,473.6 	"/>
	<polygon points="428,455.6 437.7,483.1 432.5,479.6 437.3,494.1 432,494 436.8,508 431.6,507.8 441.1,532 433.4,527.3 440.6,545.3 
		400.6,529.6 412.1,519.9 404.3,519.1 415.8,505.6 409.7,506.6 419.7,490.2 414.1,491.2 422.6,477.6 417.3,478.5 	"/>
	<polygon points="394.3,455.6 404,483.1 398.8,479.6 403.6,494.2 398.3,494 403.1,508 397.9,507.8 407.4,532 399.7,527.3 
		406.9,545.3 366.9,529.6 378.3,520 370.6,519.2 382.1,505.7 376,506.6 386,490.3 380.4,491.2 388.9,477.6 383.6,478.5 	"/>
	<polygon points="409.9,455 415.5,482.4 412.4,478.9 415.1,493.4 411.9,493.3 414.7,507.3 411.5,507.2 417,531.2 412.4,526.6 
		416.5,544.5 392.3,529.3 399.4,519.6 394.6,518.8 401.9,505.2 398.1,506.2 404.4,489.8 401,490.8 406.3,477.1 403.1,478.1 	"/>
	<polygon points="359.4,455.1 375.3,479.4 369.5,477.3 377.7,490.3 372.5,491.4 380.5,503.8 375.4,504.9 390.4,526.1 381.9,523.4 
		393.2,539.1 350.6,533.5 359.3,521.4 351.6,522.5 359.6,506.6 353.9,509 359.6,490.7 354.4,493 359.4,477.7 354.5,479.9 	"/>
	<polygon points="339.4,454.4 349.1,481.9 343.9,478.4 348.7,492.9 343.5,492.8 348.3,506.8 343,506.6 352.5,530.8 344.9,526.1 
		352,544.1 312.1,528.4 323.5,518.7 315.7,517.9 327.3,504.4 321.1,505.3 331.1,489 325.5,490 334,476.4 328.7,477.3 	"/>
	<polygon points="380.2,470.4 387,497.8 383.3,494.3 386.7,508.9 382.8,508.7 386.2,522.7 382.4,522.6 389.1,546.7 383.6,542 
		388.7,560 359.5,544.6 368,534.9 362.3,534.1 370.9,520.6 366.4,521.5 373.8,505.1 369.7,506.1 376.1,492.4 372.2,493.4 	"/>
	<polygon points="478.6,483.4 482.2,512.3 477.9,507.8 479.5,523.1 474.4,521.8 476.1,536.5 471,535.2 475.1,560.8 468.7,554.7 
		471.9,573.8 436.2,549.9 449.4,542.9 442,540.5 456.1,529.8 449.9,529.4 463.1,515.5 457.5,515.2 468.6,503.8 463.2,503.6 	"/>
	<polygon points="442.8,488.3 452.4,515.8 447.3,512.3 452.1,526.9 446.8,526.7 451.6,540.7 446.4,540.5 455.9,564.7 448.2,560 
		455.4,578 415.4,562.3 426.8,552.7 419.1,551.9 430.6,538.4 424.5,539.3 434.5,523 428.9,523.9 437.4,510.3 432.1,511.2 	"/>
	<polygon class="st4" points="494,461.3 503.7,488.8 498.5,485.3 503.3,499.9 498.1,499.7 502.9,513.8 497.6,513.6 507.1,537.8 
		499.5,533.1 506.6,551.1 466.7,535.3 478.1,525.7 470.3,524.9 481.9,511.4 475.7,512.3 485.7,496 480.1,496.9 488.6,483.3 
		483.3,484.3 	"/>
	<circle class="st5" cx="567.5" cy="534.6" r="10.3"/>
	<circle class="st5" cx="567.5" cy="534.6" r="9.8"/>
	<line class="st5" x1="557.7" y1="534.7" x2="577.4" y2="534.7"/>
	<line class="st5" x1="557.7" y1="534.7" x2="567.5" y2="544.4"/>
	<line class="st5" x1="577.4" y1="534.7" x2="567.5" y2="544.4"/>
	<line class="st5" x1="572.5" y1="539.6" x2="567.5" y2="524.9"/>
	<line class="st5" x1="562.6" y1="539.6" x2="567.5" y2="524.9"/>
	<circle class="st5" cx="567.5" cy="534.6" r="10.1"/>
	<line class="st5" x1="557.4" y1="534.7" x2="577.5" y2="534.7"/>
	<line class="st5" x1="557.7" y1="534.7" x2="567.5" y2="544.5"/>
	<line class="st5" x1="577.5" y1="534.7" x2="567.5" y2="544.5"/>
	<line class="st5" x1="562.6" y1="539.6" x2="567.5" y2="524.8"/>
	<line class="st5" x1="572.5" y1="539.6" x2="567.5" y2="524.8"/>
	<g>
		<polygon class="st6" points="566.8,529 567.4,530.2 567.1,530.2 567.3,529 567.5,527.5 567.8,529 568,530.2 567.8,530.2 
			568.3,529 568,530.3 567.9,530.7 567.8,530.3 567.3,529.1 567.8,529.1 567.4,530.3 567.2,530.7 567.1,530.3 		"/>
	</g>
	<g>
		<polygon class="st6" points="560.3,536.4 561.2,536.4 561.1,536.6 560.4,536 559.3,535.3 560.6,535.6 561.5,535.9 561.4,536.1 
			560.9,535.3 561.5,535.9 561.8,536.1 561.4,536.1 560.5,536.1 560.7,535.7 561.3,536.4 561.5,536.7 561.2,536.6 		"/>
	</g>
	<g>
		<polygon class="st6" points="574.6,536.5 573.7,536.7 573.4,536.7 573.6,536.5 574.1,535.8 574.4,536.2 573.4,536.2 573.1,536.2 
			573.3,536 574,535.3 573.5,536.1 573.4,535.9 574.3,535.7 575.6,535.3 574.5,536.1 573.8,536.6 573.7,536.4 		"/>
	</g>
</g>
<path class="st7" d="M1133.4,703.9"/>
<linearGradient id="SVGID_4_" gradientUnits="userSpaceOnUse" x1="-56.4126" y1="479.4852" x2="-56.4126" y2="479.4852">
	<stop  offset="0.1667" style="stop-color:#002A05"/>
	<stop  offset="0.6444" style="stop-color:#00767F"/>
	<stop  offset="0.9556" style="stop-color:#7FDFFF"/>
</linearGradient>
<path class="st8" d="M-56.4,479.5"/>
</svg>
